M48
INCH,LZ
;FILE_FORMAT=2:4
;TYPE=PLATED
;Layer: PTH_Through
;EasyEDA v6.5.1, 2022-03-30 12:51:21
;1b3168c556004a9db489dd156287313a,d03eed67808b488db07f83a96349b93e,10
;Gerber Generator version 0.2
;Holesize 1 = 0.0120 inch
T01C0.0120
;Holesize 2 = 0.0120 inch
T02C0.0120
;Holesize 3 = 0.0240 inch
T03C0.0240
;Holesize 4 = 0.0390 inch
T04C0.0390
;Holesize 5 = 0.0430 inch
T05C0.0430
;Holesize 6 = 0.0470 inch
T06C0.0470
;Holesize 7 = 0.0590 inch
T07C0.0590
;Holesize 8 = 0.0630 inch
T08C0.0630
;Holesize 9 = 0.0870 inch
T09C0.0870
%
G05
G90
T01
X020831Y-003900
X011700Y-003349
X012850Y-003650
X017180Y-005005
X005400Y-008860
X013550Y-003650
X013550Y-003050
T02
X018569Y-005400
X017900Y-004400
X015025Y-008050
X017800Y-005957
X005400Y-004136
X020550Y-002650
X011700Y-004923
X011700Y-005711
X011700Y-006498
X011700Y-007286
X005400Y-006498
X005400Y-007286
X005400Y-008073
X008943Y-009451
X011700Y-004136
X005400Y-005711
T03
X018293Y-001741G85X018293Y-002017
X021107Y-001741G85X021107Y-002017
X021107Y-000383G85X021107Y-000659
X018293Y-000383G85X018293Y-000659
T04
X033592Y-009650G85X033671Y-009650
X034577Y-009650G85X034655Y-009650
X035561Y-009650G85X035640Y-009650
T05
X038300Y-005200
X002050Y-008650
X002050Y-007650
X002050Y-006650
X002050Y-005650
X002050Y-004650
X002050Y-003650
T06
X033764Y-001108
X035536Y-001108
T07
X036028Y-002092
X033272Y-002092
T08
X003224Y-013959
X005724Y-012959
X010705Y-013959
X013205Y-012959
X018185Y-013959
X020685Y-012959
X025665Y-013959
X028165Y-012959
X033146Y-013959
X035646Y-012959
X003224Y-021439
X005724Y-020439
X010705Y-021439
X013205Y-020439
X018185Y-021439
X020685Y-020439
X025665Y-021439
X028165Y-020439
X033146Y-021439
X035646Y-020439
T09
X036703Y-007052G85X036703Y-006737
X032529Y-007052G85X032529Y-006737
M30
