G04 Layer: TopPasteMaskLayer*
G04 EasyEDA v6.5.1, 2022-03-30 12:51:21*
G04 1b3168c556004a9db489dd156287313a,d03eed67808b488db07f83a96349b93e,10*
G04 Gerber Generator version 0.2*
G04 Scale: 100 percent, Rotated: No, Reflected: No *
G04 Dimensions in inches *
G04 leading zeros omitted , absolute positions ,3 integer and 6 decimal *
%FSLAX36Y36*%
%MOIN*%

%ADD12C,0.0220*%
%ADD15R,0.0157X0.0551*%
%ADD17R,0.0510X0.0692*%
%ADD20R,0.0787X0.0394*%
%ADD21R,0.0394X0.0787*%

%LPD*%
G36*
X1339259Y-285980D02*
G01*
X1337280Y-287960D01*
X1337280Y-319440D01*
X1339259Y-321420D01*
X1348220Y-321420D01*
X1348220Y-306840D01*
X1361220Y-306840D01*
X1361220Y-321420D01*
X1370740Y-321420D01*
X1372720Y-319440D01*
X1372720Y-287960D01*
X1370740Y-285980D01*
G37*
G36*
X1339259Y-348980D02*
G01*
X1337280Y-350940D01*
X1337280Y-382040D01*
X1339259Y-384020D01*
X1370740Y-384020D01*
X1372720Y-382040D01*
X1372720Y-350940D01*
X1370740Y-348980D01*
X1361220Y-348980D01*
X1361220Y-363940D01*
X1348220Y-363940D01*
X1348220Y-348980D01*
G37*
G36*
X1269260Y-348579D02*
G01*
X1267280Y-350560D01*
X1267280Y-382040D01*
X1269260Y-384020D01*
X1300740Y-384020D01*
X1302720Y-382040D01*
X1302720Y-350560D01*
X1300740Y-348579D01*
X1291780Y-348579D01*
X1291780Y-363160D01*
X1278780Y-363160D01*
X1278780Y-348579D01*
G37*
G36*
X1269260Y-285980D02*
G01*
X1267280Y-287960D01*
X1267280Y-319060D01*
X1269260Y-321019D01*
X1278780Y-321019D01*
X1278780Y-306060D01*
X1291780Y-306060D01*
X1291780Y-321019D01*
X1300740Y-321019D01*
X1302720Y-319060D01*
X1302720Y-287960D01*
X1300740Y-285980D01*
G37*
G36*
X1564259Y-575980D02*
G01*
X1562280Y-577960D01*
X1562280Y-609440D01*
X1564259Y-611420D01*
X1573220Y-611420D01*
X1573220Y-596840D01*
X1586220Y-596840D01*
X1586220Y-611420D01*
X1595740Y-611420D01*
X1597720Y-609440D01*
X1597720Y-577960D01*
X1595740Y-575980D01*
G37*
G36*
X1564259Y-638980D02*
G01*
X1562280Y-640939D01*
X1562280Y-672039D01*
X1564259Y-674020D01*
X1595740Y-674020D01*
X1597720Y-672039D01*
X1597720Y-640939D01*
X1595740Y-638980D01*
X1586220Y-638980D01*
X1586220Y-653940D01*
X1573220Y-653940D01*
X1573220Y-638980D01*
G37*
G36*
X1494259Y-575980D02*
G01*
X1492280Y-577960D01*
X1492280Y-609440D01*
X1494259Y-611420D01*
X1503220Y-611420D01*
X1503220Y-596840D01*
X1516220Y-596840D01*
X1516220Y-611420D01*
X1525740Y-611420D01*
X1527720Y-609440D01*
X1527720Y-577960D01*
X1525740Y-575980D01*
G37*
G36*
X1494259Y-638980D02*
G01*
X1492280Y-640939D01*
X1492280Y-672039D01*
X1494259Y-674020D01*
X1525740Y-674020D01*
X1527720Y-672039D01*
X1527720Y-640939D01*
X1525740Y-638980D01*
X1516220Y-638980D01*
X1516220Y-653940D01*
X1503220Y-653940D01*
X1503220Y-638980D01*
G37*
G36*
X1424259Y-575980D02*
G01*
X1422280Y-577960D01*
X1422280Y-609440D01*
X1424259Y-611420D01*
X1433220Y-611420D01*
X1433220Y-596840D01*
X1446220Y-596840D01*
X1446220Y-611420D01*
X1455740Y-611420D01*
X1457720Y-609440D01*
X1457720Y-577960D01*
X1455740Y-575980D01*
G37*
G36*
X1424259Y-638980D02*
G01*
X1422280Y-640939D01*
X1422280Y-672039D01*
X1424259Y-674020D01*
X1455740Y-674020D01*
X1457720Y-672039D01*
X1457720Y-640939D01*
X1455740Y-638980D01*
X1446220Y-638980D01*
X1446220Y-653940D01*
X1433220Y-653940D01*
X1433220Y-638980D01*
G37*
G36*
X1764259Y-576280D02*
G01*
X1762280Y-578260D01*
X1762280Y-609740D01*
X1764259Y-611720D01*
X1773220Y-611720D01*
X1773220Y-597160D01*
X1786220Y-597160D01*
X1786220Y-611720D01*
X1795740Y-611720D01*
X1797720Y-609740D01*
X1797720Y-578260D01*
X1795740Y-576280D01*
G37*
G36*
X1764259Y-639280D02*
G01*
X1762280Y-641240D01*
X1762280Y-672340D01*
X1764259Y-674320D01*
X1795740Y-674320D01*
X1797720Y-672340D01*
X1797720Y-641240D01*
X1795740Y-639280D01*
X1786220Y-639280D01*
X1786220Y-654240D01*
X1773220Y-654240D01*
X1773220Y-639280D01*
G37*
G36*
X1634259Y-638580D02*
G01*
X1632280Y-640560D01*
X1632280Y-672039D01*
X1634259Y-674020D01*
X1665740Y-674020D01*
X1667720Y-672039D01*
X1667720Y-640560D01*
X1665740Y-638580D01*
X1656780Y-638580D01*
X1656780Y-653160D01*
X1643779Y-653160D01*
X1643779Y-638580D01*
G37*
G36*
X1634259Y-575980D02*
G01*
X1632280Y-577960D01*
X1632280Y-609060D01*
X1634259Y-611020D01*
X1643779Y-611020D01*
X1643779Y-596060D01*
X1656780Y-596060D01*
X1656780Y-611020D01*
X1665740Y-611020D01*
X1667720Y-609060D01*
X1667720Y-577960D01*
X1665740Y-575980D01*
G37*
G36*
X1614840Y-225640D02*
G01*
X1612080Y-227600D01*
X1612080Y-245320D01*
X1614840Y-247280D01*
X1633740Y-247280D01*
X1635700Y-245320D01*
X1635700Y-227600D01*
X1633740Y-225640D01*
G37*
G36*
X1576260Y-225640D02*
G01*
X1574300Y-227600D01*
X1574300Y-245320D01*
X1576260Y-247280D01*
X1595160Y-247280D01*
X1597920Y-245320D01*
X1597920Y-227600D01*
X1595160Y-225640D01*
G37*
G36*
X1706140Y-622080D02*
G01*
X1704180Y-624840D01*
X1704180Y-643740D01*
X1706140Y-645699D01*
X1723860Y-645699D01*
X1725820Y-643740D01*
X1725820Y-624840D01*
X1723860Y-622080D01*
G37*
G36*
X1706140Y-584300D02*
G01*
X1704180Y-586260D01*
X1704180Y-605160D01*
X1706140Y-607920D01*
X1723860Y-607920D01*
X1725820Y-605160D01*
X1725820Y-586260D01*
X1723860Y-584300D01*
G37*
G36*
X1889840Y-254180D02*
G01*
X1887080Y-256140D01*
X1887080Y-273860D01*
X1889840Y-275820D01*
X1908740Y-275820D01*
X1910700Y-273860D01*
X1910700Y-256140D01*
X1908740Y-254180D01*
G37*
G36*
X1851260Y-254180D02*
G01*
X1849300Y-256140D01*
X1849300Y-273860D01*
X1851260Y-275820D01*
X1870160Y-275820D01*
X1872920Y-273860D01*
X1872920Y-256140D01*
X1870160Y-254180D01*
G37*
G36*
X2086300Y-254180D02*
G01*
X2083540Y-256140D01*
X2083540Y-273860D01*
X2086300Y-275820D01*
X2105200Y-275820D01*
X2107160Y-273860D01*
X2107160Y-256140D01*
X2105200Y-254180D01*
G37*
G36*
X2047720Y-254180D02*
G01*
X2045760Y-256140D01*
X2045760Y-273860D01*
X2047720Y-275820D01*
X2066620Y-275820D01*
X2069379Y-273860D01*
X2069379Y-256140D01*
X2066620Y-254180D01*
G37*
G36*
X1705600Y-99040D02*
G01*
X1703620Y-101000D01*
X1703620Y-146280D01*
X1705600Y-148240D01*
X1722120Y-148060D01*
X1722120Y-130719D01*
X1739840Y-130719D01*
X1739840Y-148440D01*
X1755980Y-148240D01*
X1757960Y-146280D01*
X1757960Y-101000D01*
X1755980Y-99040D01*
G37*
G36*
X1705600Y-183680D02*
G01*
X1703620Y-185640D01*
X1703620Y-230920D01*
X1705600Y-232900D01*
X1755980Y-232900D01*
X1757960Y-230920D01*
X1757960Y-185640D01*
X1755980Y-183680D01*
X1739840Y-183880D01*
X1739840Y-201200D01*
X1722120Y-201200D01*
X1722120Y-183680D01*
G37*
D12*
X1878326Y-340000D02*
G01*
X1831673Y-340000D01*
X1878326Y-390000D02*
G01*
X1831673Y-390000D01*
X1878326Y-440000D02*
G01*
X1831673Y-440000D01*
X1878326Y-490000D02*
G01*
X1831673Y-490000D01*
X1878326Y-540000D02*
G01*
X1831673Y-540000D01*
X1878326Y-590000D02*
G01*
X1831673Y-590000D01*
X1878326Y-640000D02*
G01*
X1831673Y-640000D01*
X1878326Y-690000D02*
G01*
X1831673Y-690000D01*
X2104507Y-340000D02*
G01*
X2057852Y-340000D01*
X2104507Y-390000D02*
G01*
X2057852Y-390000D01*
X2104507Y-440000D02*
G01*
X2057852Y-440000D01*
X2104507Y-490000D02*
G01*
X2057852Y-490000D01*
X2104507Y-540000D02*
G01*
X2057852Y-540000D01*
X2104507Y-590000D02*
G01*
X2057852Y-590000D01*
X2104507Y-640000D02*
G01*
X2057852Y-640000D01*
X2104507Y-690000D02*
G01*
X2057852Y-690000D01*
D15*
G01*
X2021180Y-168229D03*
G01*
X1995590Y-168229D03*
G01*
X1970000Y-168229D03*
G01*
X1944409Y-168229D03*
G01*
X1918819Y-168229D03*
G36*
X1464488Y-220401D02*
G01*
X1515511Y-220401D01*
X1515511Y-289594D01*
X1464488Y-289594D01*
G37*
D17*
G01*
X1490000Y-122220D03*
D20*
G01*
X1169989Y-334859D03*
G01*
X1169979Y-413600D03*
G01*
X1169989Y-492339D03*
G01*
X1169960Y-571080D03*
G01*
X1169989Y-649819D03*
G01*
X1170020Y-728560D03*
G01*
X1169970Y-807300D03*
G01*
X1169909Y-886039D03*
D21*
G01*
X1051719Y-945129D03*
G01*
X972989Y-945100D03*
G01*
X894279Y-945100D03*
G01*
X815510Y-945100D03*
G01*
X736819Y-945079D03*
G01*
X658159Y-945140D03*
G36*
X500639Y-866350D02*
G01*
X579380Y-866350D01*
X579380Y-905720D01*
X500639Y-905720D01*
G37*
G36*
X500610Y-787611D02*
G01*
X579349Y-787611D01*
X579349Y-826981D01*
X500610Y-826981D01*
G37*
G36*
X500610Y-708870D02*
G01*
X579349Y-708870D01*
X579349Y-748240D01*
X500610Y-748240D01*
G37*
G36*
X500610Y-630129D02*
G01*
X579349Y-630129D01*
X579349Y-669499D01*
X500610Y-669499D01*
G37*
G36*
X500610Y-551390D02*
G01*
X579349Y-551390D01*
X579349Y-590759D01*
X500610Y-590759D01*
G37*
G36*
X500610Y-472649D02*
G01*
X579349Y-472649D01*
X579349Y-512020D01*
X500610Y-512020D01*
G37*
G36*
X500610Y-393910D02*
G01*
X579349Y-393910D01*
X579349Y-433279D01*
X500610Y-433279D01*
G37*
G36*
X500610Y-315169D02*
G01*
X579349Y-315169D01*
X579349Y-354540D01*
X500610Y-354540D01*
G37*
G36*
X1764054Y-519843D02*
G01*
X1764054Y-481260D01*
X1671929Y-481260D01*
X1671929Y-519843D01*
G37*
G36*
X1764054Y-429290D02*
G01*
X1764054Y-390709D01*
X1671929Y-390709D01*
X1671929Y-429290D01*
G37*
G36*
X1764054Y-338739D02*
G01*
X1764054Y-300156D01*
X1671929Y-300156D01*
X1671929Y-338739D01*
G37*
G36*
X1538071Y-339133D02*
G01*
X1538071Y-480866D01*
X1445945Y-480866D01*
X1445945Y-339133D01*
G37*
M02*
