G04 Layer: TopSolderMaskLayer*
G04 EasyEDA v6.5.1, 2022-03-30 12:51:21*
G04 1b3168c556004a9db489dd156287313a,d03eed67808b488db07f83a96349b93e,10*
G04 Gerber Generator version 0.2*
G04 Scale: 100 percent, Rotated: No, Reflected: No *
G04 Dimensions in inches *
G04 leading zeros omitted , absolute positions ,3 integer and 6 decimal *
%FSLAX36Y36*%
%MOIN*%

%ADD11C,0.0200*%
%ADD44C,0.0827*%
%ADD45C,0.0434*%
%ADD46C,0.0670*%
%ADD47C,0.1300*%
%ADD48C,0.0260*%
%ADD51C,0.0748*%
%ADD57C,0.0985*%
%ADD63C,0.0906*%
%ADD64C,0.0749*%

%LPD*%
G36*
X2808920Y-689440D02*
G01*
X2807840Y-689539D01*
X2806860Y-689840D01*
X2806000Y-690320D01*
X2805280Y-691000D01*
X2804680Y-691860D01*
X2804260Y-692920D01*
X2804000Y-694160D01*
X2803920Y-695580D01*
X2803920Y-739419D01*
X2804000Y-740819D01*
X2804280Y-742039D01*
X2804700Y-743100D01*
X2805320Y-743980D01*
X2806060Y-744659D01*
X2806900Y-745160D01*
X2807860Y-745460D01*
X2808920Y-745560D01*
X2810000Y-745460D01*
X2810980Y-745180D01*
X2811840Y-744700D01*
X2812600Y-744020D01*
X2813220Y-743160D01*
X2813680Y-742099D01*
X2813940Y-740860D01*
X2814020Y-739419D01*
X2814020Y-695580D01*
X2813940Y-694140D01*
X2813680Y-692900D01*
X2813240Y-691840D01*
X2812620Y-690980D01*
X2811860Y-690300D01*
X2811000Y-689820D01*
X2810020Y-689539D01*
G37*
G36*
X2877040Y-689440D02*
G01*
X2875940Y-689539D01*
X2874980Y-689840D01*
X2874120Y-690320D01*
X2873380Y-691000D01*
X2872799Y-691860D01*
X2872380Y-692920D01*
X2872120Y-694160D01*
X2872040Y-695580D01*
X2872040Y-739419D01*
X2872120Y-740819D01*
X2872380Y-742039D01*
X2872820Y-743100D01*
X2873420Y-743980D01*
X2874160Y-744659D01*
X2875020Y-745160D01*
X2875980Y-745460D01*
X2877040Y-745560D01*
X2878100Y-745460D01*
X2879080Y-745180D01*
X2879940Y-744700D01*
X2880720Y-744020D01*
X2881340Y-743160D01*
X2881780Y-742099D01*
X2882040Y-740860D01*
X2882140Y-739419D01*
X2882140Y-695580D01*
X2882060Y-694140D01*
X2881780Y-692900D01*
X2881340Y-691840D01*
X2880740Y-690980D01*
X2879980Y-690300D01*
X2879100Y-689820D01*
X2878120Y-689539D01*
G37*
G36*
X2531780Y-704400D02*
G01*
X2528920Y-704500D01*
X2526300Y-704800D01*
X2523940Y-705320D01*
X2521820Y-706020D01*
X2519960Y-706900D01*
X2518340Y-707880D01*
X2517000Y-708960D01*
X2515940Y-710180D01*
X2515100Y-711440D01*
X2514520Y-712720D01*
X2514160Y-714040D01*
X2514040Y-715360D01*
X2514120Y-716160D01*
X2514360Y-716900D01*
X2514740Y-717560D01*
X2515280Y-718160D01*
X2515940Y-718620D01*
X2516640Y-718960D01*
X2517400Y-719180D01*
X2518220Y-719240D01*
X2519780Y-719080D01*
X2520320Y-718860D01*
X2520700Y-718560D01*
X2523380Y-714720D01*
X2524180Y-713840D01*
X2525040Y-713100D01*
X2525980Y-712500D01*
X2527080Y-712039D01*
X2528400Y-711700D01*
X2529980Y-711500D01*
X2531780Y-711440D01*
X2533820Y-711540D01*
X2535500Y-711900D01*
X2536780Y-712480D01*
X2537680Y-713300D01*
X2538320Y-714360D01*
X2538800Y-715699D01*
X2539120Y-717300D01*
X2539300Y-719160D01*
X2533380Y-720740D01*
X2522960Y-722980D01*
X2519900Y-723780D01*
X2517980Y-724640D01*
X2516300Y-725740D01*
X2514860Y-727099D01*
X2513700Y-728640D01*
X2512880Y-730320D01*
X2512400Y-732159D01*
X2512299Y-733420D01*
X2522380Y-733420D01*
X2522460Y-732380D01*
X2522740Y-731440D01*
X2523200Y-730639D01*
X2523860Y-729960D01*
X2525380Y-728920D01*
X2526160Y-728560D01*
X2527940Y-728060D01*
X2534820Y-726520D01*
X2538060Y-725660D01*
X2539300Y-725240D01*
X2539200Y-729120D01*
X2538960Y-731200D01*
X2538520Y-732900D01*
X2537920Y-734240D01*
X2537240Y-735220D01*
X2536400Y-736120D01*
X2535380Y-736919D01*
X2534200Y-737620D01*
X2532900Y-738199D01*
X2531560Y-738600D01*
X2530140Y-738860D01*
X2528660Y-738940D01*
X2527320Y-738840D01*
X2526120Y-738540D01*
X2525060Y-738040D01*
X2524120Y-737320D01*
X2523360Y-736480D01*
X2522820Y-735540D01*
X2522480Y-734520D01*
X2522380Y-733420D01*
X2512299Y-733420D01*
X2512240Y-734160D01*
X2512340Y-735680D01*
X2512620Y-737120D01*
X2513120Y-738520D01*
X2513820Y-739860D01*
X2514700Y-741100D01*
X2515760Y-742220D01*
X2516980Y-743199D01*
X2518360Y-744020D01*
X2519880Y-744700D01*
X2521540Y-745180D01*
X2523300Y-745460D01*
X2525180Y-745560D01*
X2527260Y-745480D01*
X2529240Y-745200D01*
X2531100Y-744760D01*
X2532880Y-744140D01*
X2534600Y-743340D01*
X2536360Y-742360D01*
X2538140Y-741200D01*
X2539960Y-739860D01*
X2541620Y-742320D01*
X2543180Y-744100D01*
X2543940Y-744740D01*
X2544700Y-745200D01*
X2545480Y-745480D01*
X2546260Y-745560D01*
X2547160Y-745480D01*
X2548000Y-745240D01*
X2548820Y-744840D01*
X2549560Y-744280D01*
X2550200Y-743640D01*
X2550660Y-742940D01*
X2550940Y-742220D01*
X2551020Y-741460D01*
X2550800Y-740020D01*
X2550080Y-737480D01*
X2549380Y-734440D01*
X2549200Y-732980D01*
X2549220Y-719980D01*
X2549120Y-717300D01*
X2548820Y-714920D01*
X2548320Y-712800D01*
X2547640Y-710960D01*
X2546720Y-709360D01*
X2545500Y-708000D01*
X2544020Y-706880D01*
X2542260Y-705980D01*
X2540180Y-705280D01*
X2537720Y-704800D01*
X2534940Y-704500D01*
G37*
G36*
X2487060Y-704479D02*
G01*
X2484900Y-704900D01*
X2483360Y-706180D01*
X2482440Y-708300D01*
X2482140Y-711280D01*
X2482140Y-739419D01*
X2482220Y-740840D01*
X2482480Y-742080D01*
X2482920Y-743139D01*
X2483540Y-744000D01*
X2484300Y-744700D01*
X2485140Y-745180D01*
X2486100Y-745460D01*
X2487140Y-745560D01*
X2488200Y-745460D01*
X2489160Y-745180D01*
X2490020Y-744700D01*
X2490800Y-744020D01*
X2491440Y-743160D01*
X2491880Y-742099D01*
X2492160Y-740860D01*
X2492240Y-739419D01*
X2492260Y-728780D01*
X2492420Y-724920D01*
X2492720Y-721740D01*
X2493260Y-719000D01*
X2494040Y-716720D01*
X2494540Y-715780D01*
X2495140Y-715000D01*
X2495800Y-714340D01*
X2496560Y-713820D01*
X2497400Y-713460D01*
X2498360Y-713240D01*
X2500280Y-713220D01*
X2502160Y-713560D01*
X2505500Y-714500D01*
X2505860Y-714539D01*
X2506600Y-714460D01*
X2507300Y-714240D01*
X2507980Y-713860D01*
X2508620Y-713340D01*
X2509180Y-712700D01*
X2509580Y-711979D01*
X2509820Y-711160D01*
X2509900Y-710280D01*
X2509720Y-709040D01*
X2509160Y-707920D01*
X2508220Y-706919D01*
X2506900Y-706060D01*
X2505400Y-705360D01*
X2503860Y-704880D01*
X2502300Y-704580D01*
X2500720Y-704479D01*
X2499200Y-704580D01*
X2497860Y-704880D01*
X2496660Y-705360D01*
X2495640Y-706060D01*
X2494680Y-706960D01*
X2493740Y-708040D01*
X2492820Y-709300D01*
X2491920Y-710759D01*
X2491800Y-709300D01*
X2491560Y-708040D01*
X2491180Y-706960D01*
X2490680Y-706060D01*
X2490040Y-705360D01*
X2489220Y-704880D01*
X2488240Y-704580D01*
G37*
G36*
X2560940Y-704479D02*
G01*
X2559720Y-704640D01*
X2559100Y-704840D01*
X2557960Y-705500D01*
X2557060Y-706380D01*
X2556400Y-707480D01*
X2556060Y-708680D01*
X2556020Y-709320D01*
X2556300Y-710920D01*
X2557160Y-713240D01*
X2569600Y-744560D01*
X2568180Y-747980D01*
X2567260Y-749860D01*
X2566440Y-751180D01*
X2565539Y-752060D01*
X2565059Y-752380D01*
X2563880Y-752760D01*
X2562320Y-752900D01*
X2560640Y-752680D01*
X2559860Y-752500D01*
X2559060Y-752440D01*
X2558080Y-752500D01*
X2557240Y-752680D01*
X2556520Y-752980D01*
X2555920Y-753400D01*
X2555460Y-753920D01*
X2555140Y-754539D01*
X2554940Y-755260D01*
X2554880Y-756080D01*
X2555020Y-757260D01*
X2555440Y-758240D01*
X2556120Y-759020D01*
X2557100Y-759599D01*
X2558340Y-760020D01*
X2559880Y-760320D01*
X2561680Y-760500D01*
X2563759Y-760560D01*
X2565920Y-760480D01*
X2567840Y-760220D01*
X2569540Y-759780D01*
X2571000Y-759160D01*
X2572280Y-758400D01*
X2573420Y-757480D01*
X2574420Y-756420D01*
X2575299Y-755180D01*
X2576120Y-753780D01*
X2577799Y-750200D01*
X2591820Y-713540D01*
X2592799Y-710300D01*
X2593120Y-708920D01*
X2592980Y-707800D01*
X2592540Y-706720D01*
X2591840Y-705800D01*
X2590920Y-705080D01*
X2589840Y-704620D01*
X2588720Y-704479D01*
X2587960Y-704500D01*
X2586720Y-704780D01*
X2586240Y-705020D01*
X2585820Y-705360D01*
X2585000Y-706440D01*
X2584200Y-708040D01*
X2583340Y-710240D01*
X2574760Y-734720D01*
X2565760Y-708620D01*
X2564780Y-706620D01*
X2564240Y-705860D01*
X2563620Y-705260D01*
X2562860Y-704820D01*
X2561980Y-704560D01*
G37*
G36*
X2636940Y-704479D02*
G01*
X2634740Y-704560D01*
X2632620Y-704840D01*
X2630600Y-705300D01*
X2628680Y-705939D01*
X2626880Y-706740D01*
X2625220Y-707700D01*
X2623700Y-708820D01*
X2622320Y-710100D01*
X2621080Y-711520D01*
X2620000Y-713080D01*
X2619060Y-714780D01*
X2618279Y-716620D01*
X2617660Y-718580D01*
X2617220Y-720620D01*
X2616960Y-722780D01*
X2616880Y-725020D01*
X2627020Y-725020D01*
X2627100Y-723080D01*
X2627320Y-721280D01*
X2627700Y-719580D01*
X2628240Y-718020D01*
X2628920Y-716620D01*
X2629720Y-715380D01*
X2630659Y-714340D01*
X2631720Y-713480D01*
X2632900Y-712820D01*
X2634160Y-712340D01*
X2635500Y-712039D01*
X2636940Y-711960D01*
X2639120Y-712159D01*
X2641060Y-712820D01*
X2642780Y-713880D01*
X2644260Y-715400D01*
X2645440Y-717280D01*
X2646300Y-719520D01*
X2646800Y-722099D01*
X2646980Y-725020D01*
X2646800Y-727900D01*
X2646300Y-730460D01*
X2645440Y-732700D01*
X2644260Y-734580D01*
X2642780Y-736100D01*
X2641060Y-737180D01*
X2639120Y-737840D01*
X2636940Y-738040D01*
X2635480Y-737960D01*
X2634100Y-737660D01*
X2632840Y-737159D01*
X2631660Y-736480D01*
X2630600Y-735600D01*
X2629680Y-734560D01*
X2628880Y-733340D01*
X2628220Y-731940D01*
X2627700Y-730400D01*
X2627320Y-728720D01*
X2627100Y-726940D01*
X2627020Y-725020D01*
X2616880Y-725020D01*
X2616960Y-727240D01*
X2617220Y-729380D01*
X2617660Y-731400D01*
X2618260Y-733319D01*
X2619040Y-735140D01*
X2619980Y-736840D01*
X2621080Y-738400D01*
X2622340Y-739840D01*
X2623740Y-741140D01*
X2625260Y-742280D01*
X2626920Y-743259D01*
X2628680Y-744080D01*
X2630580Y-744740D01*
X2632580Y-745200D01*
X2634700Y-745480D01*
X2636940Y-745560D01*
X2639200Y-745480D01*
X2641340Y-745200D01*
X2643360Y-744740D01*
X2645280Y-744100D01*
X2647060Y-743300D01*
X2648720Y-742320D01*
X2650240Y-741200D01*
X2651640Y-739900D01*
X2652900Y-738460D01*
X2653980Y-736900D01*
X2654920Y-735180D01*
X2655700Y-733340D01*
X2656320Y-731400D01*
X2656760Y-729360D01*
X2657020Y-727240D01*
X2657120Y-725020D01*
X2657040Y-722800D01*
X2656760Y-720660D01*
X2656340Y-718620D01*
X2655720Y-716680D01*
X2654960Y-714860D01*
X2654020Y-713180D01*
X2652919Y-711600D01*
X2651680Y-710180D01*
X2650280Y-708880D01*
X2648740Y-707740D01*
X2647080Y-706780D01*
X2645280Y-705960D01*
X2643340Y-705300D01*
X2641320Y-704840D01*
X2639180Y-704560D01*
G37*
G36*
X2670140Y-704479D02*
G01*
X2669120Y-704560D01*
X2668200Y-704840D01*
X2667400Y-705300D01*
X2666680Y-705960D01*
X2666100Y-706780D01*
X2665700Y-707780D01*
X2665460Y-708940D01*
X2665360Y-710280D01*
X2665360Y-739200D01*
X2665460Y-740680D01*
X2665740Y-741960D01*
X2666200Y-743060D01*
X2666840Y-743960D01*
X2667620Y-744659D01*
X2668500Y-745160D01*
X2669500Y-745460D01*
X2670580Y-745560D01*
X2671700Y-745460D01*
X2672700Y-745160D01*
X2673580Y-744659D01*
X2674340Y-743960D01*
X2674960Y-743060D01*
X2675419Y-741960D01*
X2675680Y-740680D01*
X2675779Y-739200D01*
X2675779Y-725540D01*
X2675860Y-722540D01*
X2676160Y-719900D01*
X2676660Y-717660D01*
X2677340Y-715759D01*
X2678340Y-714280D01*
X2679760Y-713199D01*
X2681600Y-712560D01*
X2683880Y-712360D01*
X2685040Y-712440D01*
X2686019Y-712700D01*
X2686840Y-713120D01*
X2687500Y-713700D01*
X2688020Y-714440D01*
X2688440Y-715240D01*
X2688720Y-716160D01*
X2688920Y-717180D01*
X2689100Y-719700D01*
X2689180Y-723100D01*
X2689180Y-739200D01*
X2689260Y-740680D01*
X2689520Y-741979D01*
X2689980Y-743080D01*
X2690600Y-743980D01*
X2691360Y-744659D01*
X2692240Y-745160D01*
X2693220Y-745460D01*
X2694320Y-745560D01*
X2695440Y-745460D01*
X2696460Y-745160D01*
X2697360Y-744659D01*
X2698140Y-743980D01*
X2698759Y-743080D01*
X2699220Y-741979D01*
X2699480Y-740680D01*
X2699580Y-739200D01*
X2699640Y-722760D01*
X2699860Y-720260D01*
X2700200Y-718240D01*
X2700680Y-716720D01*
X2701240Y-715780D01*
X2701880Y-714940D01*
X2702640Y-714180D01*
X2703480Y-713540D01*
X2704400Y-713020D01*
X2705320Y-712660D01*
X2706280Y-712440D01*
X2707280Y-712360D01*
X2708440Y-712440D01*
X2709440Y-712700D01*
X2710280Y-713100D01*
X2710980Y-713700D01*
X2711520Y-714400D01*
X2711960Y-715180D01*
X2712280Y-716040D01*
X2712600Y-718040D01*
X2712740Y-720660D01*
X2712760Y-739200D01*
X2712840Y-740680D01*
X2713120Y-741960D01*
X2713580Y-743060D01*
X2714220Y-743960D01*
X2715000Y-744659D01*
X2715880Y-745160D01*
X2716880Y-745460D01*
X2717980Y-745560D01*
X2719100Y-745460D01*
X2720120Y-745160D01*
X2721000Y-744659D01*
X2721780Y-743980D01*
X2722420Y-743080D01*
X2722860Y-741979D01*
X2723140Y-740680D01*
X2723240Y-739200D01*
X2723240Y-719460D01*
X2723140Y-716720D01*
X2722900Y-714360D01*
X2722500Y-712400D01*
X2721940Y-710840D01*
X2721100Y-709400D01*
X2720080Y-708160D01*
X2718860Y-707080D01*
X2717460Y-706180D01*
X2715880Y-705460D01*
X2714180Y-704960D01*
X2712320Y-704640D01*
X2710320Y-704539D01*
X2708580Y-704640D01*
X2706920Y-704920D01*
X2705340Y-705380D01*
X2703840Y-706040D01*
X2702400Y-706900D01*
X2701000Y-707940D01*
X2699660Y-709200D01*
X2698360Y-710660D01*
X2697400Y-709220D01*
X2696340Y-707980D01*
X2695140Y-706919D01*
X2693840Y-706060D01*
X2692400Y-705400D01*
X2690820Y-704920D01*
X2689120Y-704640D01*
X2687280Y-704539D01*
X2685500Y-704640D01*
X2683780Y-704920D01*
X2682160Y-705380D01*
X2680620Y-706020D01*
X2679140Y-706880D01*
X2677720Y-707920D01*
X2676340Y-709180D01*
X2675000Y-710660D01*
X2674900Y-708540D01*
X2674640Y-707520D01*
X2674220Y-706620D01*
X2673600Y-705860D01*
X2672860Y-705260D01*
X2672040Y-704820D01*
X2671139Y-704560D01*
G37*
G36*
X2766240Y-704479D02*
G01*
X2765280Y-704560D01*
X2764400Y-704840D01*
X2763600Y-705280D01*
X2762919Y-705920D01*
X2762340Y-706720D01*
X2761940Y-707660D01*
X2761700Y-708740D01*
X2761620Y-711360D01*
X2760240Y-709720D01*
X2758800Y-708300D01*
X2757320Y-707140D01*
X2755760Y-706200D01*
X2754120Y-705480D01*
X2752340Y-704960D01*
X2750400Y-704640D01*
X2748320Y-704539D01*
X2746560Y-704620D01*
X2744880Y-704860D01*
X2743279Y-705260D01*
X2741740Y-705819D01*
X2740280Y-706540D01*
X2738920Y-707420D01*
X2737640Y-708439D01*
X2736440Y-709620D01*
X2735360Y-710939D01*
X2734420Y-712420D01*
X2733600Y-714040D01*
X2732900Y-715800D01*
X2732360Y-717680D01*
X2731980Y-719680D01*
X2731740Y-721800D01*
X2731691Y-724680D01*
X2741820Y-724680D01*
X2741980Y-721820D01*
X2742460Y-719300D01*
X2743279Y-717140D01*
X2744420Y-715320D01*
X2745840Y-713880D01*
X2747460Y-712840D01*
X2749300Y-712240D01*
X2751360Y-712020D01*
X2753480Y-712240D01*
X2755380Y-712880D01*
X2757060Y-713960D01*
X2758519Y-715460D01*
X2759720Y-717360D01*
X2760560Y-719599D01*
X2761080Y-722180D01*
X2761240Y-725100D01*
X2761160Y-726960D01*
X2760899Y-728680D01*
X2760460Y-730260D01*
X2759840Y-731700D01*
X2759080Y-732980D01*
X2758220Y-734080D01*
X2757260Y-735020D01*
X2756200Y-735780D01*
X2755059Y-736360D01*
X2753880Y-736780D01*
X2752679Y-737039D01*
X2751440Y-737120D01*
X2749400Y-736919D01*
X2747580Y-736340D01*
X2745940Y-735360D01*
X2744500Y-733980D01*
X2743320Y-732220D01*
X2742480Y-730080D01*
X2741980Y-727580D01*
X2741820Y-724680D01*
X2731691Y-724680D01*
X2731800Y-726979D01*
X2732180Y-729760D01*
X2732820Y-732360D01*
X2733700Y-734800D01*
X2734840Y-737000D01*
X2736180Y-738940D01*
X2737740Y-740620D01*
X2739540Y-742039D01*
X2741520Y-743180D01*
X2743639Y-744000D01*
X2745940Y-744479D01*
X2748399Y-744640D01*
X2750440Y-744539D01*
X2752320Y-744220D01*
X2754080Y-743680D01*
X2755680Y-742940D01*
X2757160Y-741979D01*
X2758540Y-740840D01*
X2759860Y-739500D01*
X2761060Y-737980D01*
X2760840Y-745180D01*
X2760520Y-747340D01*
X2760220Y-748379D01*
X2759820Y-749380D01*
X2759300Y-750300D01*
X2758620Y-751120D01*
X2757780Y-751840D01*
X2756780Y-752440D01*
X2755600Y-752900D01*
X2754180Y-753259D01*
X2752540Y-753460D01*
X2749760Y-753500D01*
X2748060Y-753319D01*
X2746580Y-752980D01*
X2745299Y-752440D01*
X2744240Y-751720D01*
X2743279Y-750840D01*
X2741139Y-748340D01*
X2740280Y-747480D01*
X2739340Y-746860D01*
X2738340Y-746500D01*
X2737260Y-746380D01*
X2736400Y-746460D01*
X2735620Y-746680D01*
X2734880Y-747039D01*
X2734220Y-747540D01*
X2733680Y-748180D01*
X2733279Y-748880D01*
X2733039Y-749680D01*
X2732960Y-750560D01*
X2733100Y-751780D01*
X2733519Y-752980D01*
X2734220Y-754160D01*
X2735179Y-755320D01*
X2736420Y-756420D01*
X2737880Y-757420D01*
X2739580Y-758319D01*
X2741520Y-759100D01*
X2743639Y-759740D01*
X2745899Y-760200D01*
X2748300Y-760460D01*
X2750840Y-760560D01*
X2753580Y-760480D01*
X2756080Y-760280D01*
X2758340Y-759920D01*
X2760380Y-759400D01*
X2762200Y-758760D01*
X2763840Y-757960D01*
X2765299Y-757000D01*
X2766580Y-755900D01*
X2767679Y-754640D01*
X2768620Y-753199D01*
X2769400Y-751640D01*
X2770020Y-749900D01*
X2770480Y-748000D01*
X2770820Y-745920D01*
X2771019Y-743660D01*
X2771100Y-741240D01*
X2771100Y-711880D01*
X2771040Y-710180D01*
X2770860Y-708700D01*
X2770560Y-707440D01*
X2770140Y-706380D01*
X2769520Y-705540D01*
X2768680Y-704940D01*
X2767580Y-704599D01*
G37*
G36*
X2843020Y-704479D02*
G01*
X2840800Y-704560D01*
X2838700Y-704840D01*
X2836680Y-705300D01*
X2834760Y-705939D01*
X2832960Y-706740D01*
X2831300Y-707700D01*
X2829780Y-708820D01*
X2828380Y-710100D01*
X2827160Y-711520D01*
X2826060Y-713080D01*
X2825140Y-714780D01*
X2824360Y-716620D01*
X2823740Y-718580D01*
X2823300Y-720620D01*
X2823039Y-722780D01*
X2822940Y-725020D01*
X2833100Y-725020D01*
X2833159Y-723080D01*
X2833399Y-721280D01*
X2833780Y-719580D01*
X2834320Y-718020D01*
X2834980Y-716620D01*
X2835800Y-715380D01*
X2836720Y-714340D01*
X2837799Y-713480D01*
X2838960Y-712820D01*
X2840220Y-712340D01*
X2841580Y-712039D01*
X2843020Y-711960D01*
X2845200Y-712159D01*
X2847140Y-712820D01*
X2848840Y-713880D01*
X2850320Y-715400D01*
X2851520Y-717280D01*
X2852360Y-719520D01*
X2852880Y-722099D01*
X2853039Y-725020D01*
X2852880Y-727900D01*
X2852360Y-730460D01*
X2851520Y-732700D01*
X2850320Y-734580D01*
X2848840Y-736100D01*
X2847140Y-737180D01*
X2845200Y-737840D01*
X2843020Y-738040D01*
X2841540Y-737960D01*
X2840179Y-737660D01*
X2838900Y-737159D01*
X2837740Y-736480D01*
X2836680Y-735600D01*
X2835760Y-734560D01*
X2834960Y-733340D01*
X2834300Y-731940D01*
X2833759Y-730400D01*
X2833399Y-728720D01*
X2833159Y-726940D01*
X2833100Y-725020D01*
X2822940Y-725020D01*
X2823039Y-727240D01*
X2823300Y-729380D01*
X2823720Y-731400D01*
X2824340Y-733319D01*
X2825120Y-735140D01*
X2826040Y-736840D01*
X2827140Y-738400D01*
X2828399Y-739840D01*
X2829820Y-741140D01*
X2831340Y-742280D01*
X2832980Y-743259D01*
X2834760Y-744080D01*
X2836640Y-744740D01*
X2838660Y-745200D01*
X2840779Y-745480D01*
X2843020Y-745560D01*
X2845260Y-745480D01*
X2847400Y-745200D01*
X2849440Y-744740D01*
X2851340Y-744100D01*
X2853120Y-743300D01*
X2854780Y-742320D01*
X2856320Y-741200D01*
X2857700Y-739900D01*
X2858960Y-738460D01*
X2860059Y-736900D01*
X2861000Y-735180D01*
X2861780Y-733340D01*
X2862400Y-731400D01*
X2862840Y-729360D01*
X2863100Y-727240D01*
X2863180Y-725020D01*
X2863100Y-722800D01*
X2862840Y-720660D01*
X2862400Y-718620D01*
X2861800Y-716680D01*
X2861019Y-714860D01*
X2860100Y-713180D01*
X2859000Y-711600D01*
X2857740Y-710180D01*
X2856340Y-708880D01*
X2854820Y-707740D01*
X2853140Y-706780D01*
X2851340Y-705960D01*
X2849420Y-705300D01*
X2847380Y-704840D01*
X2845260Y-704560D01*
G37*
G36*
X2601259Y-734419D02*
G01*
X2600140Y-734520D01*
X2599100Y-734820D01*
X2598180Y-735340D01*
X2597340Y-736060D01*
X2596640Y-736900D01*
X2596139Y-737840D01*
X2595840Y-738840D01*
X2595740Y-739940D01*
X2595840Y-741200D01*
X2596160Y-742300D01*
X2596680Y-743259D01*
X2597400Y-744080D01*
X2598279Y-744740D01*
X2599220Y-745200D01*
X2600260Y-745480D01*
X2601360Y-745560D01*
X2602440Y-745480D01*
X2603440Y-745200D01*
X2604380Y-744720D01*
X2605240Y-744060D01*
X2605960Y-743240D01*
X2606480Y-742280D01*
X2606780Y-741180D01*
X2606880Y-739940D01*
X2606780Y-738840D01*
X2606480Y-737820D01*
X2605960Y-736880D01*
X2605240Y-736040D01*
X2604380Y-735320D01*
X2603420Y-734820D01*
X2602380Y-734520D01*
G37*
G36*
X2785899Y-734419D02*
G01*
X2784780Y-734520D01*
X2783759Y-734820D01*
X2782820Y-735340D01*
X2781980Y-736060D01*
X2781280Y-736900D01*
X2780779Y-737840D01*
X2780480Y-738840D01*
X2780380Y-739940D01*
X2780480Y-741200D01*
X2780800Y-742300D01*
X2781320Y-743259D01*
X2782040Y-744080D01*
X2782919Y-744740D01*
X2783880Y-745200D01*
X2784900Y-745480D01*
X2786000Y-745560D01*
X2787080Y-745480D01*
X2788080Y-745200D01*
X2789020Y-744720D01*
X2789880Y-744060D01*
X2790600Y-743240D01*
X2791120Y-742280D01*
X2791420Y-741180D01*
X2791520Y-739940D01*
X2791420Y-738840D01*
X2791120Y-737820D01*
X2790600Y-736880D01*
X2789880Y-736040D01*
X2789020Y-735320D01*
X2788060Y-734820D01*
X2787020Y-734520D01*
G37*
G36*
X3778060Y-50119D02*
G01*
X3772200Y-50359D01*
X3766360Y-50920D01*
X3760560Y-51800D01*
X3754820Y-53000D01*
X3749160Y-54500D01*
X3743580Y-56320D01*
X3738100Y-58440D01*
X3732760Y-60839D01*
X3727540Y-63540D01*
X3722500Y-66520D01*
X3717620Y-69760D01*
X3712919Y-73280D01*
X3708420Y-77040D01*
X3704140Y-81039D01*
X3700059Y-85280D01*
X3696240Y-89720D01*
X3692660Y-94380D01*
X3689360Y-99220D01*
X3686300Y-104220D01*
X3683540Y-109400D01*
X3681060Y-114700D01*
X3678860Y-120140D01*
X3676980Y-125700D01*
X3675400Y-131340D01*
X3674120Y-137080D01*
X3673159Y-142860D01*
X3672520Y-148700D01*
X3672200Y-154540D01*
X3672200Y-160420D01*
X3672520Y-166260D01*
X3673159Y-172100D01*
X3674120Y-177880D01*
X3675400Y-183619D01*
X3676980Y-189259D01*
X3678860Y-194820D01*
X3681060Y-200260D01*
X3683540Y-205560D01*
X3686300Y-210740D01*
X3689360Y-215740D01*
X3692660Y-220580D01*
X3696240Y-225240D01*
X3700059Y-229680D01*
X3704140Y-233920D01*
X3708420Y-237920D01*
X3712919Y-241680D01*
X3717620Y-245200D01*
X3722500Y-248440D01*
X3727540Y-251420D01*
X3732760Y-254120D01*
X3738100Y-256520D01*
X3743580Y-258640D01*
X3749160Y-260460D01*
X3754820Y-261960D01*
X3760560Y-263160D01*
X3766360Y-264040D01*
X3772200Y-264600D01*
X3778060Y-264840D01*
X3783920Y-264760D01*
X3789780Y-264360D01*
X3795600Y-263640D01*
X3801380Y-262600D01*
X3807080Y-261240D01*
X3809900Y-260460D01*
X3815480Y-258640D01*
X3820960Y-256520D01*
X3826300Y-254120D01*
X3831500Y-251420D01*
X3836560Y-248440D01*
X3841440Y-245200D01*
X3846139Y-241680D01*
X3850640Y-237920D01*
X3854920Y-233920D01*
X3858980Y-229680D01*
X3862799Y-225240D01*
X3866380Y-220580D01*
X3869700Y-215740D01*
X3872740Y-210740D01*
X3875520Y-205560D01*
X3878000Y-200260D01*
X3880179Y-194820D01*
X3882080Y-189259D01*
X3883660Y-183619D01*
X3884940Y-177880D01*
X3885460Y-175000D01*
X3886240Y-169180D01*
X3886720Y-163340D01*
X3886880Y-157480D01*
X3886720Y-151620D01*
X3886240Y-145780D01*
X3885460Y-139960D01*
X3884340Y-134200D01*
X3882900Y-128520D01*
X3881180Y-122920D01*
X3879140Y-117420D01*
X3876800Y-112040D01*
X3874160Y-106780D01*
X3871259Y-101700D01*
X3868080Y-96780D01*
X3864620Y-92020D01*
X3860920Y-87480D01*
X3856980Y-83140D01*
X3852799Y-79020D01*
X3848420Y-75140D01*
X3843820Y-71500D01*
X3841440Y-69760D01*
X3836560Y-66520D01*
X3831500Y-63540D01*
X3826300Y-60839D01*
X3820960Y-58440D01*
X3815480Y-56320D01*
X3809900Y-54500D01*
X3804240Y-53000D01*
X3798500Y-51800D01*
X3792700Y-50920D01*
X3786860Y-50359D01*
X3781000Y-50119D01*
G37*
G36*
X3778060Y-2491080D02*
G01*
X3772200Y-2491320D01*
X3766360Y-2491880D01*
X3760560Y-2492760D01*
X3757679Y-2493300D01*
X3751980Y-2494660D01*
X3749160Y-2495440D01*
X3743580Y-2497260D01*
X3738100Y-2499380D01*
X3732760Y-2501780D01*
X3727540Y-2504480D01*
X3722500Y-2507460D01*
X3717620Y-2510720D01*
X3712919Y-2514220D01*
X3708420Y-2517980D01*
X3704140Y-2522000D01*
X3700059Y-2526220D01*
X3696240Y-2530680D01*
X3692660Y-2535320D01*
X3689360Y-2540160D01*
X3686300Y-2545160D01*
X3683540Y-2550340D01*
X3681060Y-2555660D01*
X3678860Y-2561100D01*
X3676980Y-2566640D01*
X3676139Y-2569460D01*
X3674720Y-2575140D01*
X3673600Y-2580899D01*
X3672799Y-2586720D01*
X3672320Y-2592559D01*
X3672160Y-2598420D01*
X3672320Y-2604280D01*
X3672799Y-2610140D01*
X3673600Y-2615940D01*
X3674720Y-2621700D01*
X3676139Y-2627400D01*
X3677880Y-2633000D01*
X3679920Y-2638500D01*
X3682260Y-2643880D01*
X3684880Y-2649120D01*
X3687799Y-2654200D01*
X3690980Y-2659140D01*
X3694420Y-2663880D01*
X3698120Y-2668420D01*
X3702080Y-2672780D01*
X3706240Y-2676880D01*
X3710640Y-2680779D01*
X3715240Y-2684420D01*
X3720040Y-2687799D01*
X3725000Y-2690920D01*
X3730140Y-2693759D01*
X3735419Y-2696300D01*
X3738100Y-2697480D01*
X3743580Y-2699580D01*
X3746360Y-2700539D01*
X3751980Y-2702200D01*
X3757679Y-2703540D01*
X3763460Y-2704580D01*
X3769280Y-2705299D01*
X3775120Y-2705700D01*
X3781000Y-2705779D01*
X3786860Y-2705539D01*
X3792700Y-2704980D01*
X3798500Y-2704100D01*
X3804240Y-2702900D01*
X3807080Y-2702200D01*
X3812700Y-2700539D01*
X3818240Y-2698560D01*
X3820960Y-2697480D01*
X3826300Y-2695059D01*
X3828920Y-2693759D01*
X3834060Y-2690920D01*
X3839020Y-2687799D01*
X3843820Y-2684420D01*
X3848420Y-2680779D01*
X3852799Y-2676880D01*
X3856980Y-2672780D01*
X3860920Y-2668420D01*
X3864620Y-2663880D01*
X3868080Y-2659140D01*
X3871259Y-2654200D01*
X3874160Y-2649120D01*
X3876800Y-2643880D01*
X3879140Y-2638500D01*
X3881180Y-2633000D01*
X3882900Y-2627400D01*
X3884340Y-2621700D01*
X3885460Y-2615940D01*
X3886240Y-2610140D01*
X3886720Y-2604280D01*
X3886880Y-2598420D01*
X3886720Y-2592559D01*
X3886240Y-2586720D01*
X3885460Y-2580899D01*
X3884340Y-2575140D01*
X3882900Y-2569460D01*
X3881180Y-2563860D01*
X3879140Y-2558360D01*
X3876800Y-2552980D01*
X3874160Y-2547740D01*
X3871259Y-2542640D01*
X3868080Y-2537720D01*
X3864620Y-2532980D01*
X3860920Y-2528420D01*
X3856980Y-2524080D01*
X3852799Y-2519960D01*
X3848420Y-2516080D01*
X3843820Y-2512440D01*
X3839020Y-2509060D01*
X3834060Y-2505940D01*
X3828920Y-2503100D01*
X3823639Y-2500540D01*
X3818240Y-2498280D01*
X3812700Y-2496320D01*
X3809900Y-2495440D01*
X3804240Y-2493940D01*
X3801380Y-2493300D01*
X3795600Y-2492280D01*
X3789780Y-2491560D01*
X3783920Y-2491160D01*
G37*
G36*
X156020Y-2491080D02*
G01*
X150160Y-2491320D01*
X144320Y-2491880D01*
X138520Y-2492760D01*
X135640Y-2493300D01*
X129920Y-2494660D01*
X127100Y-2495440D01*
X121519Y-2497260D01*
X116060Y-2499380D01*
X110700Y-2501780D01*
X105500Y-2504480D01*
X100440Y-2507460D01*
X95559Y-2510720D01*
X90860Y-2514220D01*
X86380Y-2517980D01*
X82080Y-2522000D01*
X78020Y-2526220D01*
X74200Y-2530680D01*
X70620Y-2535320D01*
X67300Y-2540160D01*
X64260Y-2545160D01*
X61480Y-2550340D01*
X59000Y-2555660D01*
X56820Y-2561100D01*
X54920Y-2566640D01*
X53339Y-2572300D01*
X52080Y-2578020D01*
X51120Y-2583800D01*
X50480Y-2589640D01*
X50160Y-2595500D01*
X50160Y-2601360D01*
X50480Y-2607220D01*
X51120Y-2613039D01*
X52080Y-2618840D01*
X53339Y-2624560D01*
X54920Y-2630200D01*
X56820Y-2635760D01*
X59000Y-2641200D01*
X61480Y-2646520D01*
X64260Y-2651680D01*
X67300Y-2656700D01*
X70620Y-2661540D01*
X74200Y-2666180D01*
X78020Y-2670620D01*
X82080Y-2674860D01*
X86380Y-2678860D01*
X90860Y-2682620D01*
X95559Y-2686139D01*
X100440Y-2689380D01*
X105500Y-2692360D01*
X108080Y-2693759D01*
X113360Y-2696300D01*
X118780Y-2698560D01*
X124300Y-2700539D01*
X129920Y-2702200D01*
X135640Y-2703540D01*
X141400Y-2704580D01*
X147240Y-2705299D01*
X153080Y-2705700D01*
X158940Y-2705779D01*
X164800Y-2705539D01*
X170640Y-2704980D01*
X176439Y-2704100D01*
X182180Y-2702900D01*
X185040Y-2702200D01*
X190660Y-2700539D01*
X196180Y-2698560D01*
X201600Y-2696300D01*
X206880Y-2693759D01*
X212000Y-2690920D01*
X216980Y-2687799D01*
X221759Y-2684420D01*
X226360Y-2680779D01*
X230760Y-2676880D01*
X234940Y-2672780D01*
X238880Y-2668420D01*
X242580Y-2663880D01*
X246020Y-2659140D01*
X249220Y-2654200D01*
X252120Y-2649120D01*
X253480Y-2646520D01*
X255960Y-2641200D01*
X258140Y-2635760D01*
X260040Y-2630200D01*
X261620Y-2624560D01*
X262880Y-2618840D01*
X263840Y-2613039D01*
X264480Y-2607220D01*
X264800Y-2601360D01*
X264800Y-2595500D01*
X264480Y-2589640D01*
X263840Y-2583800D01*
X262880Y-2578020D01*
X261620Y-2572300D01*
X260040Y-2566640D01*
X258140Y-2561100D01*
X255960Y-2555660D01*
X253480Y-2550340D01*
X250700Y-2545160D01*
X247659Y-2540160D01*
X244340Y-2535320D01*
X240760Y-2530680D01*
X236940Y-2526220D01*
X232880Y-2522000D01*
X228580Y-2517980D01*
X224100Y-2514220D01*
X219400Y-2510720D01*
X214520Y-2507460D01*
X209460Y-2504480D01*
X204259Y-2501780D01*
X198900Y-2499380D01*
X193440Y-2497260D01*
X187860Y-2495440D01*
X182180Y-2493940D01*
X179320Y-2493300D01*
X173560Y-2492280D01*
X167719Y-2491560D01*
X161880Y-2491160D01*
G37*
G36*
X156020Y-50119D02*
G01*
X150160Y-50380D01*
X144320Y-50940D01*
X141400Y-51320D01*
X135640Y-52360D01*
X129920Y-53720D01*
X127100Y-54500D01*
X121519Y-56320D01*
X116060Y-58440D01*
X110700Y-60839D01*
X105500Y-63540D01*
X100440Y-66520D01*
X95559Y-69780D01*
X90860Y-73280D01*
X86380Y-77040D01*
X82080Y-81039D01*
X78020Y-85280D01*
X74200Y-89720D01*
X70620Y-94380D01*
X67300Y-99220D01*
X64260Y-104220D01*
X61480Y-109400D01*
X59000Y-114700D01*
X56820Y-120160D01*
X54920Y-125700D01*
X53339Y-131360D01*
X52080Y-137080D01*
X51120Y-142860D01*
X50480Y-148700D01*
X50160Y-154540D01*
X50160Y-160420D01*
X50480Y-166280D01*
X51120Y-172100D01*
X52080Y-177880D01*
X53339Y-183619D01*
X54920Y-189259D01*
X56820Y-194820D01*
X59000Y-200260D01*
X61480Y-205560D01*
X64260Y-210740D01*
X67300Y-215760D01*
X70620Y-220580D01*
X74200Y-225240D01*
X78020Y-229680D01*
X82080Y-233920D01*
X86380Y-237920D01*
X90860Y-241680D01*
X95559Y-245200D01*
X100440Y-248440D01*
X105500Y-251420D01*
X110700Y-254120D01*
X116060Y-256540D01*
X121519Y-258640D01*
X127100Y-260460D01*
X132780Y-261960D01*
X138520Y-263160D01*
X144320Y-264040D01*
X150160Y-264600D01*
X156020Y-264840D01*
X161880Y-264760D01*
X167719Y-264360D01*
X173560Y-263640D01*
X179320Y-262600D01*
X185040Y-261240D01*
X187860Y-260460D01*
X193440Y-258640D01*
X198900Y-256540D01*
X204259Y-254120D01*
X209460Y-251420D01*
X214520Y-248440D01*
X219400Y-245200D01*
X224100Y-241680D01*
X228580Y-237920D01*
X232880Y-233920D01*
X236940Y-229680D01*
X240760Y-225240D01*
X244340Y-220580D01*
X247659Y-215760D01*
X250700Y-210740D01*
X253480Y-205560D01*
X255960Y-200260D01*
X258140Y-194820D01*
X260040Y-189259D01*
X261620Y-183619D01*
X262880Y-177880D01*
X263840Y-172100D01*
X264480Y-166280D01*
X264800Y-160420D01*
X264800Y-154540D01*
X264480Y-148700D01*
X263840Y-142860D01*
X262880Y-137080D01*
X261620Y-131360D01*
X260040Y-125700D01*
X258140Y-120160D01*
X255960Y-114700D01*
X253480Y-109400D01*
X250700Y-104220D01*
X247659Y-99220D01*
X244340Y-94380D01*
X240760Y-89720D01*
X236940Y-85280D01*
X232880Y-81039D01*
X228580Y-77040D01*
X224100Y-73280D01*
X219400Y-69780D01*
X214520Y-66520D01*
X209460Y-63540D01*
X204259Y-60839D01*
X198900Y-58440D01*
X193440Y-56320D01*
X187860Y-54500D01*
X182180Y-53000D01*
X176439Y-51800D01*
X173560Y-51320D01*
X167719Y-50620D01*
X161880Y-50220D01*
G37*
D11*
X2710000Y-275000D02*
G01*
X2710000Y-237500D01*
X2710000Y-237500D02*
G01*
X2710000Y-175000D01*
X2635000Y-200000D02*
G01*
X2735000Y-200000D01*
X2635000Y-250000D02*
G01*
X2735000Y-250000D01*
X2660000Y-175000D02*
G01*
X2660000Y-275000D01*
D44*
X468503Y-2660000D02*
G01*
X3468504Y-2660000D01*
D45*
X1829250Y-201689D02*
G01*
X1829250Y-174131D01*
X2110749Y-201689D02*
G01*
X2110749Y-174131D01*
X2110749Y-65869D02*
G01*
X2110749Y-38310D01*
X1829250Y-65869D02*
G01*
X1829250Y-38310D01*
D46*
X3357264Y-965000D02*
G01*
X3369075Y-965000D01*
X3455694Y-965000D02*
G01*
X3467506Y-965000D01*
X3554115Y-965000D02*
G01*
X3565925Y-965000D01*
D47*
X3670259Y-673661D02*
G01*
X3670259Y-705158D01*
X3252929Y-673661D02*
G01*
X3252929Y-705158D01*
D48*
X1878326Y-340000D02*
G01*
X1831673Y-340000D01*
X1878326Y-390000D02*
G01*
X1831673Y-390000D01*
X1878326Y-440000D02*
G01*
X1831673Y-440000D01*
X1878326Y-490000D02*
G01*
X1831673Y-490000D01*
X1878326Y-540000D02*
G01*
X1831673Y-540000D01*
X1878326Y-590000D02*
G01*
X1831673Y-590000D01*
X1878326Y-640000D02*
G01*
X1831673Y-640000D01*
X1878326Y-690000D02*
G01*
X1831673Y-690000D01*
X2104507Y-340000D02*
G01*
X2057852Y-340000D01*
X2104507Y-390000D02*
G01*
X2057852Y-390000D01*
X2104507Y-440000D02*
G01*
X2057852Y-440000D01*
X2104507Y-490000D02*
G01*
X2057852Y-490000D01*
X2104507Y-540000D02*
G01*
X2057852Y-540000D01*
X2104507Y-590000D02*
G01*
X2057852Y-590000D01*
X2104507Y-640000D02*
G01*
X2057852Y-640000D01*
X2104507Y-690000D02*
G01*
X2057852Y-690000D01*
G36*
X3794499Y-555500D02*
G01*
X3794499Y-484499D01*
X3865500Y-484499D01*
X3865500Y-555500D01*
G37*
G36*
X2011300Y-197800D02*
G01*
X2011300Y-138699D01*
X2031099Y-138699D01*
X2031099Y-197800D01*
G37*
G36*
X1985699Y-197800D02*
G01*
X1985699Y-138699D01*
X2005500Y-138699D01*
X2005500Y-197800D01*
G37*
G36*
X1960100Y-197800D02*
G01*
X1960100Y-138699D01*
X1979899Y-138699D01*
X1979899Y-197800D01*
G37*
G36*
X1934499Y-197800D02*
G01*
X1934499Y-138699D01*
X1954300Y-138699D01*
X1954300Y-197800D01*
G37*
G36*
X1908900Y-197800D02*
G01*
X1908900Y-138699D01*
X1928699Y-138699D01*
X1928699Y-197800D01*
G37*
D51*
G01*
X205000Y-865000D03*
G01*
X205000Y-765000D03*
G01*
X205000Y-665000D03*
G01*
X205000Y-565000D03*
G01*
X205000Y-465000D03*
G36*
X167600Y-402399D02*
G01*
X167600Y-327600D01*
X242399Y-327600D01*
X242399Y-402399D01*
G37*
G36*
X1336000Y-323200D02*
G01*
X1336000Y-287500D01*
X1373999Y-287500D01*
X1373999Y-323200D01*
G37*
G36*
X1336000Y-382500D02*
G01*
X1336000Y-346799D01*
X1373999Y-346799D01*
X1373999Y-382500D01*
G37*
G36*
X1266000Y-382500D02*
G01*
X1266000Y-346799D01*
X1303999Y-346799D01*
X1303999Y-382500D01*
G37*
G36*
X1266000Y-323200D02*
G01*
X1266000Y-287500D01*
X1303999Y-287500D01*
X1303999Y-323200D01*
G37*
G36*
X1561000Y-613200D02*
G01*
X1561000Y-577500D01*
X1598999Y-577500D01*
X1598999Y-613200D01*
G37*
G36*
X1561000Y-672500D02*
G01*
X1561000Y-636799D01*
X1598999Y-636799D01*
X1598999Y-672500D01*
G37*
G36*
X1491000Y-613200D02*
G01*
X1491000Y-577500D01*
X1528999Y-577500D01*
X1528999Y-613200D01*
G37*
G36*
X1491000Y-672500D02*
G01*
X1491000Y-636799D01*
X1528999Y-636799D01*
X1528999Y-672500D01*
G37*
G36*
X1421000Y-613200D02*
G01*
X1421000Y-577500D01*
X1458999Y-577500D01*
X1458999Y-613200D01*
G37*
G36*
X1421000Y-672500D02*
G01*
X1421000Y-636799D01*
X1458999Y-636799D01*
X1458999Y-672500D01*
G37*
G36*
X1761000Y-613499D02*
G01*
X1761000Y-577800D01*
X1798999Y-577800D01*
X1798999Y-613499D01*
G37*
G36*
X1761000Y-672800D02*
G01*
X1761000Y-637100D01*
X1798999Y-637100D01*
X1798999Y-672800D01*
G37*
G36*
X1631000Y-672500D02*
G01*
X1631000Y-636799D01*
X1668999Y-636799D01*
X1668999Y-672500D01*
G37*
G36*
X1631000Y-613200D02*
G01*
X1631000Y-577500D01*
X1668999Y-577500D01*
X1668999Y-613200D01*
G37*
G36*
X1462500Y-291599D02*
G01*
X1462500Y-218400D01*
X1517500Y-218400D01*
X1517500Y-291599D01*
G37*
G36*
X1462500Y-158800D02*
G01*
X1462500Y-85599D01*
X1517500Y-85599D01*
X1517500Y-158800D01*
G37*
G36*
X1566000Y-249099D02*
G01*
X1566000Y-223800D01*
X1601099Y-223800D01*
X1601099Y-249099D01*
G37*
G36*
X1608900Y-249099D02*
G01*
X1608900Y-223800D01*
X1643999Y-223800D01*
X1643999Y-249099D01*
G37*
G36*
X1702399Y-611100D02*
G01*
X1702399Y-575999D01*
X1727600Y-575999D01*
X1727600Y-611100D01*
G37*
G36*
X1702399Y-654000D02*
G01*
X1702399Y-618899D01*
X1727600Y-618899D01*
X1727600Y-654000D01*
G37*
G36*
X1841000Y-277600D02*
G01*
X1841000Y-252399D01*
X1876099Y-252399D01*
X1876099Y-277600D01*
G37*
G36*
X1883900Y-277600D02*
G01*
X1883900Y-252399D01*
X1918999Y-252399D01*
X1918999Y-277600D01*
G37*
G36*
X2037399Y-277600D02*
G01*
X2037399Y-252399D01*
X2072600Y-252399D01*
X2072600Y-277600D01*
G37*
G36*
X2080399Y-277600D02*
G01*
X2080399Y-252399D01*
X2115500Y-252399D01*
X2115500Y-277600D01*
G37*
D57*
G01*
X322440Y-1395870D03*
G01*
X572440Y-1295870D03*
G01*
X1070469Y-1395870D03*
G01*
X1320469Y-1295870D03*
G01*
X1818500Y-1395870D03*
G01*
X2068500Y-1295870D03*
G01*
X2566530Y-1395870D03*
G01*
X2816530Y-1295870D03*
G01*
X3314560Y-1395870D03*
G01*
X3564560Y-1295870D03*
G01*
X322440Y-2143899D03*
G01*
X572440Y-2043899D03*
G01*
X1070469Y-2143899D03*
G01*
X1320469Y-2043899D03*
G01*
X1818500Y-2143899D03*
G01*
X2068500Y-2043899D03*
G01*
X2566530Y-2143899D03*
G01*
X2816530Y-2043899D03*
G01*
X3314560Y-2143899D03*
G01*
X3564560Y-2043899D03*
G36*
X1128599Y-356500D02*
G01*
X1128599Y-313200D01*
X1211400Y-313200D01*
X1211400Y-356500D01*
G37*
G36*
X1128599Y-435300D02*
G01*
X1128599Y-391900D01*
X1211400Y-391900D01*
X1211400Y-435300D01*
G37*
G36*
X1128599Y-514000D02*
G01*
X1128599Y-470700D01*
X1211400Y-470700D01*
X1211400Y-514000D01*
G37*
G36*
X1128599Y-592800D02*
G01*
X1128599Y-549400D01*
X1211300Y-549400D01*
X1211300Y-592800D01*
G37*
G36*
X1128599Y-671500D02*
G01*
X1128599Y-628099D01*
X1211400Y-628099D01*
X1211400Y-671500D01*
G37*
G36*
X1128599Y-750199D02*
G01*
X1128599Y-706900D01*
X1211400Y-706900D01*
X1211400Y-750199D01*
G37*
G36*
X1128599Y-829000D02*
G01*
X1128599Y-785599D01*
X1211300Y-785599D01*
X1211300Y-829000D01*
G37*
G36*
X1128500Y-907699D02*
G01*
X1128500Y-864400D01*
X1211300Y-864400D01*
X1211300Y-907699D01*
G37*
G36*
X1030000Y-986500D02*
G01*
X1030000Y-903800D01*
X1073400Y-903800D01*
X1073400Y-986500D01*
G37*
G36*
X951300Y-986500D02*
G01*
X951300Y-903699D01*
X994700Y-903699D01*
X994700Y-986500D01*
G37*
G36*
X872600Y-986500D02*
G01*
X872600Y-903699D01*
X916000Y-903699D01*
X916000Y-986500D01*
G37*
G36*
X793800Y-986500D02*
G01*
X793800Y-903699D01*
X837200Y-903699D01*
X837200Y-986500D01*
G37*
G36*
X715100Y-986399D02*
G01*
X715100Y-903699D01*
X758499Y-903699D01*
X758499Y-986399D01*
G37*
G36*
X636500Y-986500D02*
G01*
X636500Y-903800D01*
X679800Y-903800D01*
X679800Y-986500D01*
G37*
G36*
X498600Y-907699D02*
G01*
X498600Y-864400D01*
X581399Y-864400D01*
X581399Y-907699D01*
G37*
G36*
X498600Y-829000D02*
G01*
X498600Y-785599D01*
X581399Y-785599D01*
X581399Y-829000D01*
G37*
G36*
X498600Y-750199D02*
G01*
X498600Y-706900D01*
X581399Y-706900D01*
X581399Y-750199D01*
G37*
G36*
X498600Y-671500D02*
G01*
X498600Y-628099D01*
X581399Y-628099D01*
X581399Y-671500D01*
G37*
G36*
X498600Y-592800D02*
G01*
X498600Y-549400D01*
X581399Y-549400D01*
X581399Y-592800D01*
G37*
G36*
X498600Y-514000D02*
G01*
X498600Y-470700D01*
X581399Y-470700D01*
X581399Y-514000D01*
G37*
G36*
X498600Y-435300D02*
G01*
X498600Y-391900D01*
X581399Y-391900D01*
X581399Y-435300D01*
G37*
G36*
X498600Y-356500D02*
G01*
X498600Y-313200D01*
X581399Y-313200D01*
X581399Y-356500D01*
G37*
G36*
X1698500Y-238200D02*
G01*
X1698500Y-181700D01*
X1761499Y-181700D01*
X1761499Y-238200D01*
G37*
G36*
X1698500Y-148299D02*
G01*
X1698500Y-91700D01*
X1761499Y-91700D01*
X1761499Y-148299D01*
G37*
G36*
X1669899Y-521799D02*
G01*
X1669899Y-479299D01*
X1766099Y-479299D01*
X1766099Y-521799D01*
G37*
G36*
X1669899Y-431300D02*
G01*
X1669899Y-388699D01*
X1766099Y-388699D01*
X1766099Y-431300D01*
G37*
G36*
X1669899Y-340700D02*
G01*
X1669899Y-298200D01*
X1766099Y-298200D01*
X1766099Y-340700D01*
G37*
G36*
X1443900Y-482899D02*
G01*
X1443900Y-337100D01*
X1540100Y-337100D01*
X1540100Y-482899D01*
G37*
D63*
G01*
X3602799Y-209209D03*
G01*
X3327209Y-209209D03*
D64*
G01*
X3376430Y-110790D03*
G01*
X3553590Y-110790D03*
D11*
G75*
G01*
X2710000Y-175000D02*
G02*
X2735000Y-150000I25000J0D01*
G75*
G01*
X2635000Y-300000D02*
G02*
X2610000Y-275000I0J25000D01*
G75*
G01*
X2610000Y-275000D02*
G02*
X2635000Y-250000I25000J0D01*
G75*
G01*
X2760000Y-275000D02*
G02*
X2735000Y-300000I-25000J0D01*
G75*
G01*
X2735000Y-300000D02*
G02*
X2710000Y-275000I0J25000D01*
G75*
G01*
X2660000Y-275000D02*
G02*
X2635000Y-300000I-25000J0D01*
G75*
G01*
X2635000Y-150000D02*
G03*
X2610000Y-175000I0J-25000D01*
G75*
G01*
X2660000Y-175000D02*
G03*
X2635000Y-150000I-25000J0D01*
G75*
G01*
X2610000Y-175000D02*
G03*
X2635000Y-200000I25000J0D01*
G75*
G01*
X2735000Y-250000D02*
G02*
X2760000Y-275000I0J-25000D01*
G75*
G01*
X2735000Y-150000D02*
G02*
X2760000Y-175000I0J-25000D01*
G75*
G01*
X2760000Y-175000D02*
G02*
X2735000Y-200000I-25000J0D01*
M02*
