G04 Layer: TopSilkscreenLayer*
G04 EasyEDA v6.5.1, 2022-03-30 12:51:21*
G04 1b3168c556004a9db489dd156287313a,d03eed67808b488db07f83a96349b93e,10*
G04 Gerber Generator version 0.2*
G04 Scale: 100 percent, Rotated: No, Reflected: No *
G04 Dimensions in inches *
G04 leading zeros omitted , absolute positions ,3 integer and 6 decimal *
%FSLAX36Y36*%
%MOIN*%

%ADD10C,0.0100*%
%ADD37C,0.0080*%
%ADD38C,0.0080*%
%ADD39C,0.0060*%
%ADD40C,0.0060*%
%ADD41C,0.0118*%

%LPD*%
G36*
X284140Y-330000D02*
G01*
X267210Y-363860D01*
X301200Y-363860D01*
X301300Y-360980D01*
X301600Y-358260D01*
X302100Y-355720D01*
X302780Y-353360D01*
X303660Y-351180D01*
X304760Y-349159D01*
X306040Y-347320D01*
X307500Y-345660D01*
X309200Y-344159D01*
X311060Y-342860D01*
X313080Y-341760D01*
X315280Y-340860D01*
X317660Y-340160D01*
X320200Y-339660D01*
X322920Y-339360D01*
X325800Y-339260D01*
X328560Y-339340D01*
X331140Y-339600D01*
X333103Y-339960D01*
X368900Y-339960D01*
X390200Y-377360D01*
X389760Y-372460D01*
X389600Y-367960D01*
X389600Y-339960D01*
X425400Y-339960D01*
X428380Y-340060D01*
X431160Y-340340D01*
X433780Y-340840D01*
X436200Y-341500D01*
X438480Y-342380D01*
X440560Y-343440D01*
X442480Y-344700D01*
X444200Y-346160D01*
X445780Y-347760D01*
X447140Y-349540D01*
X448300Y-351500D01*
X449240Y-353600D01*
X449960Y-355900D01*
X450480Y-358340D01*
X450800Y-360959D01*
X450900Y-363760D01*
X450720Y-367340D01*
X450180Y-370700D01*
X449280Y-373840D01*
X448000Y-376760D01*
X446400Y-379360D01*
X444480Y-381640D01*
X442260Y-383600D01*
X439700Y-385260D01*
X436960Y-386520D01*
X434000Y-387440D01*
X430860Y-387980D01*
X427500Y-388160D01*
X408000Y-388160D01*
X408000Y-339960D01*
X398600Y-339960D01*
X398600Y-388160D01*
X386800Y-388160D01*
X365800Y-351060D01*
X366260Y-355940D01*
X366400Y-359760D01*
X366400Y-388160D01*
X357400Y-388160D01*
X357400Y-339960D01*
X333103Y-339960D01*
X335760Y-340660D01*
X337819Y-341440D01*
X339700Y-342400D01*
X341420Y-343540D01*
X342960Y-344860D01*
X344340Y-346340D01*
X345540Y-348000D01*
X346560Y-349840D01*
X347400Y-351860D01*
X338100Y-354660D01*
X337260Y-352920D01*
X336180Y-351400D01*
X334900Y-350120D01*
X333400Y-349060D01*
X331740Y-348280D01*
X329900Y-347700D01*
X327939Y-347380D01*
X325800Y-347260D01*
X322480Y-347520D01*
X319560Y-348340D01*
X317080Y-349680D01*
X315000Y-351560D01*
X313380Y-353940D01*
X312240Y-356780D01*
X311540Y-360100D01*
X311300Y-363860D01*
X311540Y-367720D01*
X312260Y-371100D01*
X313440Y-374020D01*
X315100Y-376460D01*
X317200Y-378420D01*
X319680Y-379840D01*
X322560Y-380680D01*
X325800Y-380959D01*
X327780Y-380880D01*
X329739Y-380660D01*
X331640Y-380280D01*
X333500Y-379760D01*
X335260Y-379159D01*
X336780Y-378480D01*
X338100Y-377720D01*
X339200Y-376860D01*
X339200Y-370260D01*
X327400Y-370260D01*
X327400Y-362760D01*
X348400Y-362760D01*
X348400Y-380460D01*
X346360Y-382299D01*
X344000Y-383960D01*
X341360Y-385400D01*
X338400Y-386659D01*
X335319Y-387620D01*
X332160Y-388300D01*
X328920Y-388720D01*
X325600Y-388860D01*
X322740Y-388760D01*
X320060Y-388459D01*
X317540Y-387939D01*
X315180Y-387239D01*
X313000Y-386320D01*
X311000Y-385200D01*
X309160Y-383880D01*
X307500Y-382360D01*
X306040Y-380640D01*
X304760Y-378760D01*
X303660Y-376719D01*
X302780Y-374480D01*
X302100Y-372080D01*
X301600Y-369520D01*
X301300Y-366780D01*
X301200Y-363860D01*
X267210Y-363860D01*
X267100Y-364080D01*
X284140Y-398160D01*
X485000Y-398160D01*
X485000Y-330000D01*
G37*
G36*
X418100Y-347760D02*
G01*
X418100Y-380360D01*
X426599Y-380360D01*
X429680Y-380080D01*
X432440Y-379240D01*
X434840Y-377819D01*
X436900Y-375860D01*
X438620Y-373459D01*
X439840Y-370640D01*
X440560Y-367400D01*
X440800Y-363760D01*
X440560Y-360100D01*
X439780Y-356880D01*
X438500Y-354140D01*
X436700Y-351860D01*
X434480Y-350060D01*
X431840Y-348780D01*
X428740Y-348020D01*
X425200Y-347760D01*
G37*
G36*
X283460Y-830000D02*
G01*
X266420Y-864080D01*
X271910Y-875060D01*
X300500Y-875060D01*
X310300Y-874260D01*
X311140Y-877280D01*
X312720Y-879440D01*
X315080Y-880720D01*
X318200Y-881160D01*
X319800Y-881060D01*
X321220Y-880740D01*
X322460Y-880200D01*
X323500Y-879460D01*
X324380Y-878500D01*
X325000Y-877300D01*
X325379Y-875900D01*
X325500Y-874260D01*
X325340Y-872700D01*
X324900Y-871360D01*
X324140Y-870200D01*
X323100Y-869260D01*
X321800Y-868520D01*
X320220Y-867980D01*
X318360Y-867660D01*
X316200Y-867560D01*
X312900Y-867560D01*
X312900Y-859860D01*
X316000Y-859860D01*
X317960Y-859760D01*
X319640Y-859440D01*
X321060Y-858900D01*
X322200Y-858160D01*
X323120Y-857220D01*
X323780Y-856080D01*
X324159Y-854760D01*
X324300Y-853259D01*
X324200Y-851880D01*
X323900Y-850660D01*
X323400Y-849580D01*
X322700Y-848660D01*
X321760Y-847920D01*
X320620Y-847380D01*
X319300Y-847060D01*
X317800Y-846960D01*
X316420Y-847060D01*
X315140Y-847360D01*
X314020Y-847860D01*
X313000Y-848560D01*
X312200Y-849500D01*
X311580Y-850580D01*
X311140Y-851840D01*
X310900Y-853259D01*
X301300Y-852560D01*
X301920Y-849620D01*
X303000Y-847000D01*
X304520Y-844720D01*
X306500Y-842760D01*
X308860Y-841220D01*
X311580Y-840140D01*
X314620Y-839479D01*
X318000Y-839260D01*
X321580Y-839479D01*
X324026Y-839960D01*
X348800Y-839960D01*
X359240Y-872660D01*
X361300Y-880060D01*
X362000Y-877060D01*
X363700Y-870960D01*
X373600Y-839960D01*
X384000Y-839960D01*
X371110Y-875060D01*
X386100Y-875060D01*
X395900Y-874260D01*
X396740Y-877280D01*
X398320Y-879440D01*
X400680Y-880720D01*
X403800Y-881160D01*
X405420Y-881060D01*
X406840Y-880740D01*
X408120Y-880200D01*
X409200Y-879460D01*
X410040Y-878500D01*
X410620Y-877300D01*
X410980Y-875900D01*
X411100Y-874260D01*
X410959Y-872700D01*
X410520Y-871360D01*
X409799Y-870200D01*
X408800Y-869260D01*
X407460Y-868520D01*
X405840Y-867980D01*
X403960Y-867660D01*
X401800Y-867560D01*
X398500Y-867560D01*
X398500Y-859860D01*
X401599Y-859860D01*
X403560Y-859760D01*
X405280Y-859440D01*
X406719Y-858900D01*
X407900Y-858160D01*
X408780Y-857220D01*
X409400Y-856080D01*
X409780Y-854760D01*
X409900Y-853259D01*
X409799Y-851880D01*
X409500Y-850660D01*
X409000Y-849580D01*
X408300Y-848660D01*
X407360Y-847920D01*
X406240Y-847380D01*
X404960Y-847060D01*
X403500Y-846960D01*
X402080Y-847060D01*
X400800Y-847360D01*
X399680Y-847860D01*
X398700Y-848560D01*
X397860Y-849500D01*
X397220Y-850580D01*
X396800Y-851840D01*
X396599Y-853259D01*
X386900Y-852560D01*
X387520Y-849620D01*
X388600Y-847000D01*
X390120Y-844720D01*
X392100Y-842760D01*
X394460Y-841220D01*
X397180Y-840140D01*
X400220Y-839479D01*
X403600Y-839260D01*
X407180Y-839479D01*
X410340Y-840100D01*
X413080Y-841180D01*
X415400Y-842660D01*
X417280Y-844520D01*
X418620Y-846700D01*
X419440Y-849220D01*
X419700Y-852060D01*
X419540Y-854260D01*
X419020Y-856240D01*
X418180Y-858000D01*
X417000Y-859560D01*
X415540Y-860879D01*
X413800Y-861960D01*
X411740Y-862780D01*
X409400Y-863360D01*
X409400Y-863560D01*
X412000Y-864000D01*
X414280Y-864760D01*
X416240Y-865800D01*
X417900Y-867159D01*
X419219Y-868760D01*
X420140Y-870560D01*
X420720Y-872560D01*
X420900Y-874760D01*
X420620Y-877960D01*
X419799Y-880780D01*
X418420Y-883220D01*
X416500Y-885260D01*
X414020Y-886880D01*
X411079Y-888040D01*
X407660Y-888720D01*
X403800Y-888960D01*
X400140Y-888740D01*
X396880Y-888060D01*
X394000Y-886940D01*
X391500Y-885360D01*
X389440Y-883360D01*
X387840Y-880980D01*
X386740Y-878220D01*
X386100Y-875060D01*
X371110Y-875060D01*
X366300Y-888160D01*
X356100Y-888160D01*
X338300Y-839960D01*
X324026Y-839960D01*
X324739Y-840100D01*
X327480Y-841180D01*
X329799Y-842660D01*
X331680Y-844520D01*
X333020Y-846700D01*
X333840Y-849220D01*
X334099Y-852060D01*
X333940Y-854260D01*
X333420Y-856240D01*
X332580Y-858000D01*
X331400Y-859560D01*
X329940Y-860879D01*
X328200Y-861960D01*
X326140Y-862780D01*
X323800Y-863360D01*
X323800Y-863560D01*
X326400Y-864000D01*
X328680Y-864760D01*
X330640Y-865800D01*
X332299Y-867159D01*
X333620Y-868760D01*
X334540Y-870560D01*
X335120Y-872560D01*
X335300Y-874760D01*
X335020Y-877960D01*
X334200Y-880780D01*
X332819Y-883220D01*
X330900Y-885260D01*
X328420Y-886880D01*
X325480Y-888040D01*
X322060Y-888720D01*
X318200Y-888960D01*
X314540Y-888740D01*
X311280Y-888060D01*
X308400Y-886940D01*
X305900Y-885360D01*
X303840Y-883360D01*
X302240Y-880980D01*
X301140Y-878220D01*
X300500Y-875060D01*
X271910Y-875060D01*
X283460Y-898160D01*
X455000Y-898160D01*
X455000Y-830000D01*
G37*
G36*
X284320Y-725000D02*
G01*
X279340Y-734960D01*
X325379Y-734960D01*
X329460Y-735200D01*
X333040Y-735879D01*
X336120Y-737039D01*
X338680Y-738660D01*
X340720Y-740759D01*
X342200Y-743240D01*
X343080Y-746100D01*
X343380Y-749360D01*
X343200Y-751820D01*
X342680Y-754080D01*
X341800Y-756160D01*
X340580Y-758060D01*
X339000Y-759760D01*
X337180Y-761140D01*
X335100Y-762200D01*
X332780Y-762960D01*
X337735Y-770660D01*
X349280Y-770660D01*
X358980Y-768960D01*
X359600Y-770780D01*
X360439Y-772300D01*
X361540Y-773580D01*
X362879Y-774560D01*
X364420Y-775300D01*
X366240Y-775840D01*
X368360Y-776160D01*
X370780Y-776260D01*
X373260Y-776160D01*
X375400Y-775860D01*
X377239Y-775360D01*
X378720Y-774659D01*
X379880Y-773760D01*
X380700Y-772660D01*
X381200Y-771360D01*
X381380Y-769860D01*
X381300Y-768900D01*
X381079Y-768000D01*
X380700Y-767200D01*
X380180Y-766460D01*
X378720Y-765260D01*
X376780Y-764260D01*
X375420Y-763780D01*
X371160Y-762680D01*
X365780Y-761480D01*
X362020Y-760480D01*
X359739Y-759640D01*
X357840Y-758740D01*
X356120Y-757720D01*
X355340Y-757140D01*
X354660Y-756480D01*
X353500Y-754980D01*
X352560Y-753220D01*
X351860Y-751260D01*
X351640Y-750180D01*
X351480Y-747760D01*
X351780Y-744700D01*
X352700Y-742000D01*
X354219Y-739700D01*
X356380Y-737760D01*
X357660Y-736940D01*
X359099Y-736220D01*
X360680Y-735620D01*
X362400Y-735140D01*
X364260Y-734760D01*
X366260Y-734479D01*
X368400Y-734320D01*
X370680Y-734260D01*
X374880Y-734440D01*
X378519Y-734960D01*
X435880Y-734960D01*
X435880Y-742760D01*
X420379Y-742760D01*
X420379Y-783160D01*
X410280Y-783160D01*
X410280Y-742760D01*
X394680Y-742760D01*
X394680Y-734960D01*
X378519Y-734960D01*
X381580Y-735840D01*
X384080Y-737060D01*
X386120Y-738700D01*
X387780Y-740780D01*
X389020Y-743340D01*
X389880Y-746360D01*
X380180Y-747660D01*
X379680Y-746200D01*
X379000Y-744940D01*
X378120Y-743860D01*
X377080Y-742960D01*
X375800Y-742300D01*
X374280Y-741840D01*
X372500Y-741560D01*
X370480Y-741460D01*
X366440Y-741820D01*
X363579Y-742880D01*
X361840Y-744659D01*
X361280Y-747159D01*
X361340Y-748060D01*
X361520Y-748880D01*
X361840Y-749620D01*
X362280Y-750260D01*
X362819Y-750840D01*
X364280Y-751840D01*
X366380Y-752720D01*
X368080Y-753240D01*
X378900Y-755780D01*
X381120Y-756440D01*
X382879Y-757060D01*
X384300Y-757720D01*
X386640Y-759180D01*
X387580Y-759960D01*
X388420Y-760840D01*
X389140Y-761800D01*
X389760Y-762840D01*
X390280Y-763960D01*
X390660Y-765160D01*
X390940Y-766440D01*
X391120Y-767800D01*
X391180Y-769260D01*
X390840Y-772600D01*
X389880Y-775500D01*
X388240Y-778000D01*
X385980Y-780060D01*
X384580Y-780939D01*
X383020Y-781720D01*
X381320Y-782380D01*
X379480Y-782900D01*
X377480Y-783319D01*
X375319Y-783620D01*
X373020Y-783800D01*
X370580Y-783860D01*
X366180Y-783660D01*
X364159Y-783400D01*
X362280Y-783040D01*
X360500Y-782560D01*
X358880Y-782000D01*
X357360Y-781340D01*
X355980Y-780560D01*
X353600Y-778700D01*
X351700Y-776440D01*
X350260Y-773760D01*
X349280Y-770660D01*
X337735Y-770660D01*
X345780Y-783160D01*
X334480Y-783160D01*
X323280Y-764860D01*
X311480Y-764860D01*
X311480Y-783160D01*
X301380Y-783160D01*
X301380Y-734960D01*
X279340Y-734960D01*
X267280Y-759080D01*
X284320Y-793160D01*
X470000Y-793160D01*
X470000Y-725000D01*
G37*
G36*
X311480Y-742860D02*
G01*
X311480Y-757060D01*
X324680Y-757060D01*
X326640Y-756940D01*
X328380Y-756580D01*
X329840Y-756000D01*
X331079Y-755160D01*
X332040Y-754100D01*
X332720Y-752860D01*
X333140Y-751400D01*
X333280Y-749760D01*
X332720Y-746740D01*
X331040Y-744580D01*
X328260Y-743300D01*
X324380Y-742860D01*
G37*
G36*
X283600Y-630000D02*
G01*
X278620Y-639960D01*
X310760Y-639960D01*
X310760Y-663860D01*
X318260Y-663860D01*
X318360Y-661040D01*
X318660Y-658379D01*
X319160Y-655879D01*
X319860Y-653540D01*
X320760Y-651360D01*
X321860Y-649320D01*
X323160Y-647460D01*
X324660Y-645759D01*
X326360Y-644240D01*
X328220Y-642920D01*
X330220Y-641800D01*
X332380Y-640879D01*
X334700Y-640180D01*
X337180Y-639660D01*
X339799Y-639360D01*
X342560Y-639260D01*
X345360Y-639360D01*
X348000Y-639680D01*
X350480Y-640180D01*
X352780Y-640900D01*
X354940Y-641840D01*
X356940Y-642980D01*
X358780Y-644320D01*
X360460Y-645860D01*
X361980Y-647560D01*
X363300Y-649419D01*
X364420Y-651440D01*
X365340Y-653600D01*
X366040Y-655939D01*
X366560Y-658420D01*
X366860Y-661060D01*
X366950Y-664060D01*
X372660Y-664060D01*
X372780Y-659960D01*
X373120Y-656240D01*
X373680Y-652900D01*
X374460Y-649960D01*
X375480Y-647400D01*
X376719Y-645180D01*
X378180Y-643340D01*
X379860Y-641860D01*
X381820Y-640720D01*
X384060Y-639900D01*
X386620Y-639420D01*
X389460Y-639260D01*
X391520Y-639360D01*
X393440Y-639640D01*
X395200Y-640140D01*
X396840Y-640800D01*
X398340Y-641680D01*
X399680Y-642740D01*
X400900Y-644000D01*
X401960Y-645460D01*
X402900Y-647099D01*
X403720Y-648940D01*
X404400Y-650980D01*
X404960Y-653199D01*
X405400Y-655639D01*
X405720Y-658240D01*
X405900Y-661060D01*
X405959Y-664060D01*
X405900Y-667020D01*
X405700Y-669800D01*
X405379Y-672380D01*
X404920Y-674780D01*
X404320Y-677000D01*
X403600Y-679040D01*
X402740Y-680900D01*
X401760Y-682560D01*
X400640Y-684040D01*
X399400Y-685320D01*
X398020Y-686400D01*
X396520Y-687280D01*
X394880Y-687980D01*
X393100Y-688460D01*
X391200Y-688760D01*
X389159Y-688860D01*
X387160Y-688760D01*
X385300Y-688480D01*
X383560Y-687980D01*
X381940Y-687300D01*
X380460Y-686440D01*
X379099Y-685380D01*
X377879Y-684120D01*
X376780Y-682660D01*
X375820Y-681020D01*
X374980Y-679180D01*
X374280Y-677140D01*
X373700Y-674900D01*
X373240Y-672480D01*
X372920Y-669880D01*
X372720Y-667060D01*
X372660Y-664060D01*
X366950Y-664060D01*
X366780Y-667500D01*
X366220Y-670900D01*
X365280Y-674100D01*
X363960Y-677060D01*
X362299Y-679740D01*
X360340Y-682099D01*
X358060Y-684140D01*
X355460Y-685860D01*
X352560Y-687180D01*
X349440Y-688100D01*
X346100Y-688680D01*
X342560Y-688860D01*
X339799Y-688760D01*
X337180Y-688439D01*
X334720Y-687920D01*
X332420Y-687180D01*
X330260Y-686240D01*
X328280Y-685100D01*
X326440Y-683720D01*
X324760Y-682159D01*
X323240Y-680400D01*
X321920Y-678500D01*
X320800Y-676440D01*
X319880Y-674240D01*
X319180Y-671860D01*
X318680Y-669360D01*
X318360Y-666680D01*
X318260Y-663860D01*
X310760Y-663860D01*
X310760Y-688160D01*
X300660Y-688160D01*
X300660Y-639960D01*
X278620Y-639960D01*
X266560Y-664080D01*
X283600Y-698160D01*
X440000Y-698160D01*
X440000Y-630000D01*
G37*
G36*
X389360Y-646760D02*
G01*
X388000Y-646860D01*
X386820Y-647180D01*
X385800Y-647720D01*
X384960Y-648460D01*
X384280Y-649400D01*
X383680Y-650580D01*
X383220Y-652039D01*
X382860Y-653760D01*
X382600Y-655759D01*
X382299Y-660900D01*
X382299Y-667180D01*
X382600Y-672320D01*
X382860Y-674360D01*
X383260Y-676080D01*
X383760Y-677540D01*
X384360Y-678720D01*
X385060Y-679659D01*
X385860Y-680360D01*
X386820Y-680860D01*
X387960Y-681160D01*
X389260Y-681260D01*
X390540Y-681160D01*
X391659Y-680840D01*
X392640Y-680300D01*
X393459Y-679560D01*
X394159Y-678580D01*
X394760Y-677360D01*
X395260Y-675879D01*
X395660Y-674160D01*
X396120Y-669780D01*
X396260Y-664060D01*
X396120Y-658100D01*
X395660Y-653660D01*
X395280Y-651979D01*
X394780Y-650540D01*
X394219Y-649320D01*
X393560Y-648360D01*
X392740Y-647660D01*
X391760Y-647159D01*
X390640Y-646860D01*
G37*
G36*
X342560Y-647260D02*
G01*
X339400Y-647520D01*
X336620Y-648340D01*
X334200Y-649680D01*
X332160Y-651560D01*
X330540Y-653980D01*
X329380Y-656840D01*
X328700Y-660120D01*
X328459Y-663860D01*
X328700Y-667600D01*
X329380Y-670939D01*
X330540Y-673860D01*
X332160Y-676360D01*
X334240Y-678379D01*
X336659Y-679800D01*
X339440Y-680680D01*
X342560Y-680960D01*
X345720Y-680680D01*
X348519Y-679840D01*
X350920Y-678420D01*
X352960Y-676460D01*
X354580Y-674020D01*
X355740Y-671100D01*
X356440Y-667720D01*
X356659Y-663860D01*
X356440Y-660180D01*
X355740Y-656900D01*
X354580Y-654080D01*
X352960Y-651660D01*
X350920Y-649740D01*
X348519Y-648360D01*
X345720Y-647540D01*
G37*
G36*
X280840Y-425000D02*
G01*
X275860Y-434960D01*
X339080Y-434960D01*
X339080Y-442760D01*
X323480Y-442760D01*
X323480Y-483160D01*
X340480Y-483160D01*
X357180Y-457860D01*
X341880Y-434960D01*
X352480Y-434960D01*
X363180Y-452060D01*
X373880Y-434960D01*
X384480Y-434960D01*
X369880Y-457860D01*
X385880Y-483160D01*
X375280Y-483160D01*
X363180Y-463960D01*
X351079Y-483160D01*
X313380Y-483160D01*
X313380Y-442760D01*
X297880Y-442760D01*
X297880Y-434960D01*
X275860Y-434960D01*
X263800Y-459080D01*
X280840Y-493160D01*
X420000Y-493160D01*
X420000Y-425000D01*
G37*
G36*
X281940Y-530000D02*
G01*
X276960Y-539960D01*
X323000Y-539960D01*
X327080Y-540200D01*
X330660Y-540880D01*
X333740Y-542040D01*
X336300Y-543660D01*
X338360Y-545760D01*
X339820Y-548240D01*
X340700Y-551100D01*
X341000Y-554360D01*
X340820Y-556820D01*
X340300Y-559080D01*
X339420Y-561160D01*
X338200Y-563060D01*
X336620Y-564760D01*
X334799Y-566140D01*
X332720Y-567200D01*
X330400Y-567960D01*
X343400Y-588160D01*
X345500Y-588160D01*
X362100Y-562860D01*
X346900Y-539960D01*
X357500Y-539960D01*
X368200Y-557060D01*
X378900Y-539960D01*
X389500Y-539960D01*
X374900Y-562860D01*
X390900Y-588160D01*
X380300Y-588160D01*
X368200Y-568960D01*
X356100Y-588160D01*
X332100Y-588160D01*
X320900Y-569860D01*
X309100Y-569860D01*
X309100Y-588160D01*
X299000Y-588160D01*
X299000Y-539960D01*
X276960Y-539960D01*
X264900Y-564080D01*
X281940Y-598160D01*
X425000Y-598160D01*
X425000Y-530000D01*
G37*
G36*
X309100Y-547860D02*
G01*
X309100Y-562060D01*
X322299Y-562060D01*
X324260Y-561940D01*
X326000Y-561580D01*
X327460Y-561000D01*
X328700Y-560160D01*
X329660Y-559100D01*
X330340Y-557860D01*
X330760Y-556400D01*
X330900Y-554760D01*
X330340Y-551740D01*
X328660Y-549580D01*
X325880Y-548300D01*
X322000Y-547860D01*
G37*
G36*
X490860Y-1018340D02*
G01*
X488500Y-1018379D01*
X486160Y-1018540D01*
X483840Y-1018800D01*
X481580Y-1019160D01*
X479340Y-1019620D01*
X474960Y-1020819D01*
X472840Y-1021560D01*
X468720Y-1023300D01*
X464780Y-1025380D01*
X461060Y-1027780D01*
X457580Y-1030480D01*
X454320Y-1033460D01*
X451340Y-1036720D01*
X448640Y-1040200D01*
X446240Y-1043920D01*
X444159Y-1047860D01*
X442420Y-1051980D01*
X441680Y-1054100D01*
X440480Y-1058480D01*
X440020Y-1060720D01*
X439660Y-1062980D01*
X439400Y-1065300D01*
X439240Y-1067640D01*
X439240Y-1072360D01*
X439400Y-1074700D01*
X439660Y-1077020D01*
X440020Y-1079280D01*
X440480Y-1081520D01*
X441680Y-1085900D01*
X442420Y-1088020D01*
X443946Y-1091660D01*
X490840Y-1091660D01*
X490840Y-1044560D01*
X499440Y-1043060D01*
X499440Y-1059060D01*
X501940Y-1058360D01*
X503340Y-1058140D01*
X504540Y-1058060D01*
X506320Y-1058140D01*
X507920Y-1058340D01*
X509360Y-1058680D01*
X510640Y-1059160D01*
X511840Y-1059780D01*
X512879Y-1060480D01*
X513780Y-1061320D01*
X514540Y-1062260D01*
X515240Y-1063300D01*
X515820Y-1064440D01*
X516352Y-1065860D01*
X523940Y-1065860D01*
X523940Y-1058760D01*
X531440Y-1058760D01*
X531440Y-1050460D01*
X540040Y-1049060D01*
X540040Y-1058760D01*
X553840Y-1058760D01*
X553840Y-1065860D01*
X558940Y-1065860D01*
X558940Y-1058760D01*
X566440Y-1058760D01*
X566440Y-1050460D01*
X575040Y-1049060D01*
X575040Y-1058760D01*
X588840Y-1058760D01*
X588840Y-1065860D01*
X575040Y-1065860D01*
X575080Y-1080060D01*
X575280Y-1081560D01*
X575620Y-1082680D01*
X576120Y-1083540D01*
X577120Y-1084440D01*
X577940Y-1084760D01*
X578900Y-1084920D01*
X580540Y-1084960D01*
X584140Y-1084660D01*
X585080Y-1084420D01*
X587180Y-1083700D01*
X588340Y-1083160D01*
X589440Y-1090660D01*
X587020Y-1091460D01*
X584340Y-1092060D01*
X581600Y-1092360D01*
X578940Y-1092460D01*
X576120Y-1092340D01*
X573640Y-1091960D01*
X572540Y-1091660D01*
X571520Y-1091240D01*
X570600Y-1090700D01*
X569740Y-1090060D01*
X569000Y-1089300D01*
X568340Y-1088360D01*
X567800Y-1087280D01*
X567340Y-1086060D01*
X566960Y-1084700D01*
X566680Y-1083140D01*
X566500Y-1081360D01*
X566440Y-1079360D01*
X566440Y-1065860D01*
X540040Y-1065860D01*
X540080Y-1080060D01*
X540280Y-1081560D01*
X540620Y-1082680D01*
X541120Y-1083540D01*
X542120Y-1084440D01*
X542940Y-1084760D01*
X543900Y-1084920D01*
X545540Y-1084960D01*
X549140Y-1084660D01*
X550080Y-1084420D01*
X552180Y-1083700D01*
X553340Y-1083160D01*
X554440Y-1090660D01*
X552020Y-1091460D01*
X549340Y-1092060D01*
X546600Y-1092360D01*
X543940Y-1092460D01*
X541120Y-1092340D01*
X538640Y-1091960D01*
X537540Y-1091660D01*
X536520Y-1091240D01*
X535600Y-1090700D01*
X534740Y-1090060D01*
X534000Y-1089300D01*
X533320Y-1088360D01*
X532740Y-1087280D01*
X532240Y-1086060D01*
X531900Y-1084700D01*
X531640Y-1083140D01*
X531440Y-1079360D01*
X531440Y-1065860D01*
X516352Y-1065860D01*
X516960Y-1068400D01*
X517180Y-1069920D01*
X517340Y-1073160D01*
X517340Y-1091660D01*
X508740Y-1091660D01*
X508740Y-1074260D01*
X508680Y-1072080D01*
X508480Y-1070240D01*
X508140Y-1068740D01*
X507640Y-1067560D01*
X507020Y-1066700D01*
X506140Y-1066060D01*
X505020Y-1065700D01*
X503640Y-1065560D01*
X502480Y-1065640D01*
X499440Y-1066360D01*
X499440Y-1091660D01*
X443946Y-1091660D01*
X445160Y-1094140D01*
X447400Y-1097960D01*
X449960Y-1101580D01*
X451323Y-1103260D01*
X595840Y-1103260D01*
X595840Y-1059760D01*
X598520Y-1059120D01*
X601740Y-1058560D01*
X605140Y-1058200D01*
X608540Y-1058060D01*
X612140Y-1058360D01*
X615280Y-1059220D01*
X617980Y-1060660D01*
X620240Y-1062660D01*
X621846Y-1064960D01*
X637740Y-1064960D01*
X637880Y-1063540D01*
X638240Y-1062260D01*
X638840Y-1061240D01*
X639640Y-1060360D01*
X640600Y-1059660D01*
X641640Y-1059160D01*
X642800Y-1058860D01*
X644040Y-1058760D01*
X645220Y-1058860D01*
X646320Y-1059160D01*
X647360Y-1059660D01*
X648340Y-1060360D01*
X649180Y-1061260D01*
X649780Y-1062320D01*
X650140Y-1063560D01*
X650240Y-1064960D01*
X650140Y-1066380D01*
X649780Y-1067620D01*
X649180Y-1068680D01*
X648340Y-1069560D01*
X647360Y-1070300D01*
X646320Y-1070840D01*
X645220Y-1071160D01*
X643420Y-1071240D01*
X642220Y-1070980D01*
X641120Y-1070540D01*
X640120Y-1069940D01*
X639220Y-1069140D01*
X638520Y-1068200D01*
X638240Y-1067660D01*
X637880Y-1066400D01*
X637740Y-1064960D01*
X621846Y-1064960D01*
X622000Y-1065180D01*
X623240Y-1068100D01*
X624000Y-1071420D01*
X624240Y-1075160D01*
X624200Y-1077020D01*
X623800Y-1080520D01*
X623440Y-1082160D01*
X623000Y-1083700D01*
X622420Y-1085140D01*
X621894Y-1086160D01*
X637740Y-1086160D01*
X637880Y-1084740D01*
X638240Y-1083460D01*
X638840Y-1082440D01*
X639640Y-1081560D01*
X640600Y-1080920D01*
X641640Y-1080360D01*
X642800Y-1080060D01*
X644040Y-1079960D01*
X645220Y-1080060D01*
X646320Y-1080360D01*
X647360Y-1080860D01*
X648340Y-1081560D01*
X649180Y-1082460D01*
X649780Y-1083520D01*
X650140Y-1084760D01*
X650240Y-1086160D01*
X650140Y-1087620D01*
X649780Y-1088880D01*
X649180Y-1089980D01*
X648340Y-1090860D01*
X647360Y-1091560D01*
X646320Y-1092060D01*
X645220Y-1092360D01*
X643420Y-1092440D01*
X642220Y-1092240D01*
X641120Y-1091800D01*
X640120Y-1091140D01*
X639220Y-1090340D01*
X638520Y-1089400D01*
X638240Y-1088860D01*
X637880Y-1087600D01*
X637740Y-1086160D01*
X621894Y-1086160D01*
X620940Y-1087660D01*
X620100Y-1088700D01*
X619140Y-1089640D01*
X618100Y-1090460D01*
X616940Y-1091160D01*
X615660Y-1091740D01*
X614280Y-1092140D01*
X612800Y-1092380D01*
X611240Y-1092460D01*
X609580Y-1092360D01*
X607900Y-1092060D01*
X606180Y-1091560D01*
X604440Y-1090860D01*
X604440Y-1103260D01*
X664740Y-1103260D01*
X684340Y-1042760D01*
X693139Y-1042760D01*
X673740Y-1103260D01*
X699740Y-1103260D01*
X719340Y-1042760D01*
X728139Y-1042760D01*
X712459Y-1091660D01*
X733439Y-1091660D01*
X733439Y-1060060D01*
X736200Y-1059360D01*
X738840Y-1058860D01*
X741380Y-1058500D01*
X743540Y-1058360D01*
X745280Y-1058500D01*
X746840Y-1058860D01*
X748180Y-1059480D01*
X749340Y-1060360D01*
X750600Y-1059620D01*
X752140Y-1058960D01*
X753780Y-1058520D01*
X755440Y-1058360D01*
X756740Y-1058420D01*
X757920Y-1058580D01*
X759000Y-1058880D01*
X759940Y-1059260D01*
X760759Y-1059720D01*
X761500Y-1060280D01*
X762159Y-1060980D01*
X762740Y-1061760D01*
X763199Y-1062660D01*
X763580Y-1063660D01*
X763860Y-1064760D01*
X764220Y-1067320D01*
X764419Y-1070320D01*
X764440Y-1081560D01*
X769539Y-1081560D01*
X769620Y-1080220D01*
X769820Y-1078960D01*
X770160Y-1077820D01*
X770639Y-1076760D01*
X771240Y-1075820D01*
X771940Y-1074960D01*
X772740Y-1074220D01*
X773640Y-1073560D01*
X774640Y-1073000D01*
X775699Y-1072540D01*
X778040Y-1071860D01*
X780520Y-1071500D01*
X783139Y-1071360D01*
X786280Y-1071520D01*
X789040Y-1071960D01*
X788960Y-1069700D01*
X788680Y-1068640D01*
X788199Y-1067660D01*
X787540Y-1066760D01*
X786620Y-1066060D01*
X785400Y-1065560D01*
X783920Y-1065260D01*
X782140Y-1065160D01*
X779780Y-1065240D01*
X777440Y-1065460D01*
X773740Y-1066360D01*
X772640Y-1059360D01*
X774580Y-1058860D01*
X777140Y-1058360D01*
X780120Y-1058060D01*
X783240Y-1057960D01*
X785220Y-1058020D01*
X787000Y-1058180D01*
X788620Y-1058480D01*
X790040Y-1058860D01*
X791340Y-1059380D01*
X792480Y-1059980D01*
X793480Y-1060720D01*
X794340Y-1061560D01*
X795100Y-1062460D01*
X795720Y-1063460D01*
X796240Y-1064560D01*
X796960Y-1067000D01*
X797180Y-1068340D01*
X797340Y-1071260D01*
X797340Y-1075160D01*
X804539Y-1075160D01*
X804620Y-1073440D01*
X804820Y-1071740D01*
X805160Y-1070080D01*
X805639Y-1068460D01*
X806280Y-1066960D01*
X807039Y-1065540D01*
X807980Y-1064200D01*
X809040Y-1062960D01*
X810280Y-1061880D01*
X811680Y-1060880D01*
X813240Y-1060020D01*
X814940Y-1059260D01*
X816780Y-1058700D01*
X818800Y-1058280D01*
X820980Y-1058040D01*
X824760Y-1057980D01*
X827420Y-1058180D01*
X829860Y-1058600D01*
X832300Y-1059300D01*
X833540Y-1059760D01*
X831640Y-1066660D01*
X828540Y-1065760D01*
X826540Y-1065460D01*
X824140Y-1065360D01*
X821300Y-1065560D01*
X820060Y-1065820D01*
X818940Y-1066160D01*
X817120Y-1067020D01*
X815639Y-1068160D01*
X815080Y-1068840D01*
X814180Y-1070400D01*
X813840Y-1071260D01*
X813400Y-1073200D01*
X813240Y-1075160D01*
X813420Y-1077340D01*
X813900Y-1079260D01*
X814720Y-1080940D01*
X815840Y-1082360D01*
X817340Y-1083500D01*
X819280Y-1084320D01*
X821680Y-1084800D01*
X824539Y-1084960D01*
X826600Y-1084900D01*
X828740Y-1084660D01*
X830879Y-1084280D01*
X832840Y-1083760D01*
X834040Y-1090860D01*
X832039Y-1091500D01*
X831280Y-1091660D01*
X842640Y-1091660D01*
X842640Y-1060960D01*
X846180Y-1059780D01*
X849740Y-1058860D01*
X853640Y-1058340D01*
X855819Y-1058200D01*
X860140Y-1058160D01*
X865100Y-1058760D01*
X866580Y-1059020D01*
X868540Y-1059560D01*
X867039Y-1067460D01*
X863300Y-1066760D01*
X858860Y-1066380D01*
X855800Y-1066480D01*
X854040Y-1066680D01*
X851340Y-1067260D01*
X851340Y-1075160D01*
X873439Y-1075160D01*
X873520Y-1073260D01*
X873740Y-1071440D01*
X874120Y-1069700D01*
X874640Y-1068060D01*
X875260Y-1066560D01*
X876000Y-1065160D01*
X876860Y-1063860D01*
X877840Y-1062660D01*
X878940Y-1061580D01*
X880120Y-1060640D01*
X881400Y-1059840D01*
X882740Y-1059160D01*
X884240Y-1058640D01*
X885780Y-1058260D01*
X887380Y-1058040D01*
X889040Y-1057960D01*
X890720Y-1058040D01*
X892300Y-1058260D01*
X893820Y-1058640D01*
X895240Y-1059160D01*
X896640Y-1059840D01*
X897920Y-1060640D01*
X899100Y-1061580D01*
X900140Y-1062660D01*
X901140Y-1063860D01*
X902000Y-1065160D01*
X902740Y-1066560D01*
X903340Y-1068060D01*
X903840Y-1069700D01*
X904180Y-1071440D01*
X904380Y-1073260D01*
X904440Y-1075160D01*
X904380Y-1077080D01*
X904180Y-1078900D01*
X903840Y-1080620D01*
X903340Y-1082260D01*
X902740Y-1083800D01*
X902020Y-1085240D01*
X901200Y-1086560D01*
X900240Y-1087760D01*
X899160Y-1088840D01*
X897980Y-1089780D01*
X896700Y-1090600D01*
X895340Y-1091260D01*
X893900Y-1091840D01*
X892380Y-1092240D01*
X890759Y-1092480D01*
X889040Y-1092560D01*
X887340Y-1092480D01*
X885699Y-1092240D01*
X884140Y-1091840D01*
X882640Y-1091260D01*
X881300Y-1090600D01*
X880020Y-1089780D01*
X878840Y-1088840D01*
X877740Y-1087760D01*
X876800Y-1086560D01*
X875939Y-1085240D01*
X875200Y-1083800D01*
X874539Y-1082260D01*
X874060Y-1080620D01*
X873720Y-1078900D01*
X873520Y-1077080D01*
X873439Y-1075160D01*
X851340Y-1075160D01*
X851340Y-1091660D01*
X831280Y-1091660D01*
X826820Y-1092340D01*
X823540Y-1092460D01*
X821140Y-1092380D01*
X818900Y-1092120D01*
X816840Y-1091680D01*
X814940Y-1091060D01*
X813240Y-1090360D01*
X811680Y-1089520D01*
X810280Y-1088560D01*
X809040Y-1087460D01*
X807940Y-1086260D01*
X807000Y-1084940D01*
X806240Y-1083500D01*
X805639Y-1081960D01*
X805160Y-1080380D01*
X804820Y-1078720D01*
X804620Y-1076980D01*
X804539Y-1075160D01*
X797340Y-1075160D01*
X797340Y-1090860D01*
X791740Y-1091860D01*
X787800Y-1092320D01*
X783340Y-1092460D01*
X780380Y-1092320D01*
X777640Y-1091860D01*
X775320Y-1091120D01*
X773340Y-1090060D01*
X772460Y-1089360D01*
X771700Y-1088560D01*
X771060Y-1087660D01*
X770540Y-1086660D01*
X770120Y-1085560D01*
X769800Y-1084340D01*
X769620Y-1083000D01*
X769539Y-1081560D01*
X764440Y-1081560D01*
X764440Y-1091660D01*
X757440Y-1091660D01*
X757440Y-1070620D01*
X757280Y-1069080D01*
X757039Y-1067900D01*
X756740Y-1066940D01*
X756340Y-1066280D01*
X755900Y-1065880D01*
X755400Y-1065680D01*
X754840Y-1065580D01*
X752900Y-1065720D01*
X751940Y-1066060D01*
X752340Y-1068960D01*
X752420Y-1070660D01*
X752440Y-1079160D01*
X745440Y-1079160D01*
X745400Y-1070000D01*
X745280Y-1068700D01*
X745060Y-1067640D01*
X744740Y-1066860D01*
X744400Y-1066300D01*
X743920Y-1065880D01*
X743340Y-1065640D01*
X741940Y-1065620D01*
X740440Y-1065860D01*
X740440Y-1091660D01*
X712459Y-1091660D01*
X708740Y-1103260D01*
X910840Y-1103260D01*
X910840Y-1059760D01*
X913520Y-1059120D01*
X916740Y-1058560D01*
X920140Y-1058200D01*
X923540Y-1058060D01*
X927140Y-1058360D01*
X930280Y-1059220D01*
X932980Y-1060660D01*
X935240Y-1062660D01*
X937000Y-1065180D01*
X938240Y-1068100D01*
X939000Y-1071420D01*
X939240Y-1075160D01*
X939200Y-1077020D01*
X938800Y-1080520D01*
X938571Y-1081560D01*
X944539Y-1081560D01*
X944620Y-1080220D01*
X944820Y-1078960D01*
X945160Y-1077820D01*
X945639Y-1076760D01*
X946240Y-1075820D01*
X946940Y-1074960D01*
X947740Y-1074220D01*
X948640Y-1073560D01*
X949640Y-1073000D01*
X950699Y-1072540D01*
X953040Y-1071860D01*
X955520Y-1071500D01*
X958139Y-1071360D01*
X961280Y-1071520D01*
X964040Y-1071960D01*
X963960Y-1069700D01*
X963680Y-1068640D01*
X963199Y-1067660D01*
X962540Y-1066760D01*
X961620Y-1066060D01*
X960420Y-1065560D01*
X958960Y-1065260D01*
X957240Y-1065160D01*
X954800Y-1065240D01*
X952440Y-1065460D01*
X948740Y-1066360D01*
X947640Y-1059360D01*
X949580Y-1058860D01*
X952140Y-1058360D01*
X955180Y-1058060D01*
X958240Y-1057960D01*
X960220Y-1058020D01*
X962000Y-1058180D01*
X963620Y-1058480D01*
X965040Y-1058860D01*
X966340Y-1059380D01*
X967480Y-1059980D01*
X968480Y-1060720D01*
X969340Y-1061560D01*
X970100Y-1062460D01*
X970720Y-1063460D01*
X971240Y-1064560D01*
X971960Y-1067000D01*
X972180Y-1068340D01*
X972340Y-1071260D01*
X972340Y-1075460D01*
X978439Y-1075460D01*
X978660Y-1071640D01*
X979280Y-1068240D01*
X980300Y-1065280D01*
X981740Y-1062760D01*
X983600Y-1060700D01*
X985840Y-1059240D01*
X988500Y-1058360D01*
X991540Y-1058060D01*
X993300Y-1058160D01*
X994940Y-1058460D01*
X996540Y-1058940D01*
X997940Y-1059560D01*
X997940Y-1044560D01*
X1006540Y-1043060D01*
X1006540Y-1043460D01*
X1206640Y-1043460D01*
X1206640Y-1079160D01*
X1206740Y-1080720D01*
X1207000Y-1082020D01*
X1207440Y-1083020D01*
X1208040Y-1083760D01*
X1208740Y-1084300D01*
X1209520Y-1084660D01*
X1210400Y-1084900D01*
X1211340Y-1084960D01*
X1213740Y-1084800D01*
X1214800Y-1084580D01*
X1218040Y-1083360D01*
X1219140Y-1090260D01*
X1218140Y-1090760D01*
X1216240Y-1091460D01*
X1214920Y-1091840D01*
X1213340Y-1092160D01*
X1211520Y-1092400D01*
X1209440Y-1092460D01*
X1206700Y-1092240D01*
X1204340Y-1091560D01*
X1202400Y-1090440D01*
X1200840Y-1088860D01*
X1199620Y-1086900D01*
X1198740Y-1084540D01*
X1198220Y-1081760D01*
X1198040Y-1078560D01*
X1198040Y-1050660D01*
X1188940Y-1050660D01*
X1188940Y-1043460D01*
X1066640Y-1043460D01*
X1066640Y-1075160D01*
X1083440Y-1075160D01*
X1083520Y-1073260D01*
X1083740Y-1071440D01*
X1084120Y-1069700D01*
X1084640Y-1068060D01*
X1085260Y-1066560D01*
X1086000Y-1065160D01*
X1086860Y-1063860D01*
X1087840Y-1062660D01*
X1088940Y-1061580D01*
X1090120Y-1060640D01*
X1091400Y-1059840D01*
X1092740Y-1059160D01*
X1094240Y-1058640D01*
X1095780Y-1058260D01*
X1097380Y-1058040D01*
X1099040Y-1057960D01*
X1100720Y-1058040D01*
X1102300Y-1058260D01*
X1103820Y-1058640D01*
X1105240Y-1059160D01*
X1106640Y-1059840D01*
X1107920Y-1060640D01*
X1109100Y-1061580D01*
X1110140Y-1062660D01*
X1111140Y-1063860D01*
X1112000Y-1065160D01*
X1112740Y-1066560D01*
X1113340Y-1068060D01*
X1113840Y-1069700D01*
X1114180Y-1071440D01*
X1114380Y-1073260D01*
X1114440Y-1075160D01*
X1119540Y-1075160D01*
X1119620Y-1073440D01*
X1119820Y-1071740D01*
X1120160Y-1070080D01*
X1120640Y-1068460D01*
X1121280Y-1066960D01*
X1122040Y-1065540D01*
X1122980Y-1064200D01*
X1124040Y-1062960D01*
X1125280Y-1061880D01*
X1126680Y-1060880D01*
X1128240Y-1060020D01*
X1129940Y-1059260D01*
X1131780Y-1058700D01*
X1133800Y-1058280D01*
X1135980Y-1058040D01*
X1139760Y-1057980D01*
X1142420Y-1058180D01*
X1144860Y-1058600D01*
X1147300Y-1059300D01*
X1148540Y-1059760D01*
X1146640Y-1066660D01*
X1143540Y-1065760D01*
X1141540Y-1065460D01*
X1139140Y-1065360D01*
X1136300Y-1065560D01*
X1135060Y-1065820D01*
X1133940Y-1066160D01*
X1132120Y-1067020D01*
X1130640Y-1068160D01*
X1130080Y-1068840D01*
X1129180Y-1070400D01*
X1128840Y-1071260D01*
X1128400Y-1073200D01*
X1128240Y-1075160D01*
X1128420Y-1077340D01*
X1128900Y-1079260D01*
X1129720Y-1080940D01*
X1130209Y-1081560D01*
X1154540Y-1081560D01*
X1154620Y-1080220D01*
X1154820Y-1078960D01*
X1155160Y-1077820D01*
X1155640Y-1076760D01*
X1156240Y-1075820D01*
X1156940Y-1074960D01*
X1157740Y-1074220D01*
X1158640Y-1073560D01*
X1159640Y-1073000D01*
X1160700Y-1072540D01*
X1163040Y-1071860D01*
X1165520Y-1071500D01*
X1168140Y-1071360D01*
X1171280Y-1071520D01*
X1174040Y-1071960D01*
X1173960Y-1069700D01*
X1173680Y-1068640D01*
X1173200Y-1067660D01*
X1172540Y-1066760D01*
X1171620Y-1066060D01*
X1170420Y-1065560D01*
X1168960Y-1065260D01*
X1167240Y-1065160D01*
X1164800Y-1065240D01*
X1162440Y-1065460D01*
X1158740Y-1066360D01*
X1157640Y-1059360D01*
X1159580Y-1058860D01*
X1162140Y-1058360D01*
X1165120Y-1058060D01*
X1168240Y-1057960D01*
X1170220Y-1058020D01*
X1172000Y-1058180D01*
X1173620Y-1058480D01*
X1175040Y-1058860D01*
X1176340Y-1059380D01*
X1177480Y-1059980D01*
X1178480Y-1060720D01*
X1179340Y-1061560D01*
X1180100Y-1062460D01*
X1180720Y-1063460D01*
X1181240Y-1064560D01*
X1181960Y-1067000D01*
X1182180Y-1068340D01*
X1182340Y-1071260D01*
X1182340Y-1090860D01*
X1176740Y-1091860D01*
X1172800Y-1092320D01*
X1168340Y-1092460D01*
X1165380Y-1092320D01*
X1162640Y-1091860D01*
X1160320Y-1091120D01*
X1158340Y-1090060D01*
X1157460Y-1089360D01*
X1156700Y-1088560D01*
X1156060Y-1087660D01*
X1155540Y-1086660D01*
X1155120Y-1085560D01*
X1154800Y-1084340D01*
X1154620Y-1083000D01*
X1154540Y-1081560D01*
X1130209Y-1081560D01*
X1130840Y-1082360D01*
X1132340Y-1083500D01*
X1134280Y-1084320D01*
X1136680Y-1084800D01*
X1139540Y-1084960D01*
X1141600Y-1084900D01*
X1143740Y-1084660D01*
X1145880Y-1084280D01*
X1147840Y-1083760D01*
X1149040Y-1090860D01*
X1147040Y-1091500D01*
X1144640Y-1091960D01*
X1141820Y-1092340D01*
X1138540Y-1092460D01*
X1136140Y-1092380D01*
X1133900Y-1092120D01*
X1131840Y-1091680D01*
X1129940Y-1091060D01*
X1128240Y-1090360D01*
X1126680Y-1089520D01*
X1125280Y-1088560D01*
X1124040Y-1087460D01*
X1122940Y-1086260D01*
X1122000Y-1084940D01*
X1121240Y-1083500D01*
X1120640Y-1081960D01*
X1120160Y-1080380D01*
X1119820Y-1078720D01*
X1119620Y-1076980D01*
X1119540Y-1075160D01*
X1114440Y-1075160D01*
X1114380Y-1077080D01*
X1114180Y-1078900D01*
X1113840Y-1080620D01*
X1113340Y-1082260D01*
X1112740Y-1083800D01*
X1112020Y-1085240D01*
X1111200Y-1086560D01*
X1110240Y-1087760D01*
X1109160Y-1088840D01*
X1107980Y-1089780D01*
X1106700Y-1090600D01*
X1105340Y-1091260D01*
X1103900Y-1091840D01*
X1102380Y-1092240D01*
X1100760Y-1092480D01*
X1099040Y-1092560D01*
X1097340Y-1092480D01*
X1095700Y-1092240D01*
X1094140Y-1091840D01*
X1092640Y-1091260D01*
X1091300Y-1090600D01*
X1090020Y-1089780D01*
X1088840Y-1088840D01*
X1087740Y-1087760D01*
X1086800Y-1086560D01*
X1085940Y-1085240D01*
X1085200Y-1083800D01*
X1084540Y-1082260D01*
X1084060Y-1080620D01*
X1083720Y-1078900D01*
X1083520Y-1077080D01*
X1083440Y-1075160D01*
X1066640Y-1075160D01*
X1066640Y-1079160D01*
X1066740Y-1080720D01*
X1067000Y-1082020D01*
X1067440Y-1083020D01*
X1068040Y-1083760D01*
X1068740Y-1084300D01*
X1069520Y-1084660D01*
X1070400Y-1084900D01*
X1071340Y-1084960D01*
X1073740Y-1084800D01*
X1074800Y-1084580D01*
X1078040Y-1083360D01*
X1079140Y-1090260D01*
X1078140Y-1090760D01*
X1076240Y-1091460D01*
X1074920Y-1091840D01*
X1073340Y-1092160D01*
X1071520Y-1092400D01*
X1069440Y-1092460D01*
X1066700Y-1092240D01*
X1064340Y-1091560D01*
X1062400Y-1090440D01*
X1060840Y-1088860D01*
X1059620Y-1086900D01*
X1058740Y-1084540D01*
X1058220Y-1081760D01*
X1058040Y-1078560D01*
X1058040Y-1050660D01*
X1048940Y-1050660D01*
X1048940Y-1043460D01*
X1006540Y-1043460D01*
X1006540Y-1086160D01*
X1022740Y-1086160D01*
X1022880Y-1084740D01*
X1023240Y-1083460D01*
X1023840Y-1082440D01*
X1024640Y-1081560D01*
X1025600Y-1080920D01*
X1026640Y-1080360D01*
X1027800Y-1080060D01*
X1029040Y-1079960D01*
X1030220Y-1080060D01*
X1031320Y-1080360D01*
X1032360Y-1080860D01*
X1033340Y-1081560D01*
X1034180Y-1082460D01*
X1034780Y-1083520D01*
X1035140Y-1084760D01*
X1035240Y-1086160D01*
X1035140Y-1087620D01*
X1034780Y-1088880D01*
X1034180Y-1089980D01*
X1033340Y-1090860D01*
X1032360Y-1091560D01*
X1031320Y-1092060D01*
X1030220Y-1092360D01*
X1028420Y-1092440D01*
X1027220Y-1092240D01*
X1026120Y-1091800D01*
X1025120Y-1091140D01*
X1024220Y-1090340D01*
X1023520Y-1089400D01*
X1023240Y-1088860D01*
X1022880Y-1087600D01*
X1022740Y-1086160D01*
X1006540Y-1086160D01*
X1006540Y-1090660D01*
X1003900Y-1091400D01*
X1000740Y-1091960D01*
X997380Y-1092340D01*
X994040Y-1092460D01*
X990440Y-1092180D01*
X987280Y-1091320D01*
X984580Y-1089880D01*
X982340Y-1087860D01*
X980639Y-1085400D01*
X979419Y-1082520D01*
X978700Y-1079200D01*
X978439Y-1075460D01*
X972340Y-1075460D01*
X972340Y-1090860D01*
X966740Y-1091860D01*
X962800Y-1092320D01*
X958340Y-1092460D01*
X955380Y-1092320D01*
X952640Y-1091860D01*
X950320Y-1091120D01*
X948340Y-1090060D01*
X947460Y-1089360D01*
X946700Y-1088560D01*
X946060Y-1087660D01*
X945540Y-1086660D01*
X945120Y-1085560D01*
X944800Y-1084340D01*
X944620Y-1083000D01*
X944539Y-1081560D01*
X938571Y-1081560D01*
X938000Y-1083700D01*
X937420Y-1085140D01*
X936740Y-1086460D01*
X935939Y-1087660D01*
X935100Y-1088700D01*
X934140Y-1089640D01*
X933100Y-1090460D01*
X931940Y-1091160D01*
X930660Y-1091740D01*
X929280Y-1092140D01*
X927800Y-1092380D01*
X926240Y-1092460D01*
X924580Y-1092360D01*
X922900Y-1092060D01*
X921180Y-1091560D01*
X919440Y-1090860D01*
X919440Y-1103260D01*
X451323Y-1103260D01*
X454320Y-1106540D01*
X457580Y-1109520D01*
X461060Y-1112220D01*
X464780Y-1114620D01*
X468720Y-1116700D01*
X472840Y-1118440D01*
X474960Y-1119180D01*
X479340Y-1120380D01*
X481580Y-1120840D01*
X483840Y-1121200D01*
X486160Y-1121460D01*
X488500Y-1121620D01*
X1221500Y-1121620D01*
X1223840Y-1121460D01*
X1226140Y-1121200D01*
X1228420Y-1120840D01*
X1230660Y-1120380D01*
X1235040Y-1119180D01*
X1237160Y-1118440D01*
X1241280Y-1116700D01*
X1245220Y-1114620D01*
X1248940Y-1112220D01*
X1252420Y-1109520D01*
X1255680Y-1106540D01*
X1258660Y-1103280D01*
X1261360Y-1099800D01*
X1263760Y-1096080D01*
X1264840Y-1094140D01*
X1266740Y-1090120D01*
X1267580Y-1088020D01*
X1268320Y-1085900D01*
X1269520Y-1081520D01*
X1269980Y-1079280D01*
X1270340Y-1077020D01*
X1270600Y-1074700D01*
X1270760Y-1072360D01*
X1270760Y-1067640D01*
X1270600Y-1065300D01*
X1270340Y-1062980D01*
X1269980Y-1060720D01*
X1269520Y-1058480D01*
X1268320Y-1054100D01*
X1267580Y-1051980D01*
X1266740Y-1049880D01*
X1264840Y-1045860D01*
X1263760Y-1043920D01*
X1261360Y-1040200D01*
X1258660Y-1036720D01*
X1255680Y-1033460D01*
X1252420Y-1030480D01*
X1248940Y-1027780D01*
X1245220Y-1025380D01*
X1241280Y-1023300D01*
X1237160Y-1021560D01*
X1235040Y-1020819D01*
X1230660Y-1019620D01*
X1228420Y-1019160D01*
X1226140Y-1018800D01*
X1223840Y-1018540D01*
X1221500Y-1018379D01*
G37*
G36*
X608440Y-1065360D02*
G01*
X604440Y-1065660D01*
X604440Y-1083760D01*
X605480Y-1084300D01*
X606740Y-1084660D01*
X608140Y-1084900D01*
X609540Y-1084960D01*
X610960Y-1084820D01*
X612180Y-1084360D01*
X613200Y-1083620D01*
X614040Y-1082560D01*
X614700Y-1081180D01*
X615180Y-1079540D01*
X615460Y-1077640D01*
X615540Y-1075460D01*
X615440Y-1073360D01*
X615100Y-1071460D01*
X614540Y-1069760D01*
X613740Y-1068260D01*
X612780Y-1067000D01*
X611580Y-1066100D01*
X610140Y-1065540D01*
G37*
G36*
X889040Y-1065360D02*
G01*
X887460Y-1065540D01*
X886080Y-1066040D01*
X884900Y-1066880D01*
X883940Y-1068060D01*
X883199Y-1069520D01*
X882680Y-1071200D01*
X882360Y-1073080D01*
X882240Y-1075160D01*
X882340Y-1077300D01*
X882640Y-1079220D01*
X883139Y-1080900D01*
X883840Y-1082360D01*
X884720Y-1083540D01*
X885840Y-1084380D01*
X887220Y-1084900D01*
X888840Y-1085060D01*
X890440Y-1084900D01*
X891820Y-1084380D01*
X893000Y-1083540D01*
X893940Y-1082360D01*
X894700Y-1080900D01*
X895220Y-1079220D01*
X895540Y-1077300D01*
X895639Y-1075160D01*
X895540Y-1073080D01*
X895240Y-1071200D01*
X894740Y-1069520D01*
X894040Y-1068060D01*
X893180Y-1066880D01*
X892039Y-1066040D01*
X890680Y-1065540D01*
G37*
G36*
X923439Y-1065360D02*
G01*
X919440Y-1065660D01*
X919440Y-1083760D01*
X920480Y-1084300D01*
X921740Y-1084660D01*
X923139Y-1084900D01*
X924539Y-1084960D01*
X925960Y-1084820D01*
X927180Y-1084360D01*
X928199Y-1083620D01*
X929040Y-1082560D01*
X929700Y-1081180D01*
X930180Y-1079540D01*
X930460Y-1077640D01*
X930540Y-1075460D01*
X930440Y-1073360D01*
X930100Y-1071460D01*
X929539Y-1069760D01*
X928740Y-1068260D01*
X927780Y-1067000D01*
X926580Y-1066100D01*
X925140Y-1065540D01*
G37*
G36*
X1099040Y-1065360D02*
G01*
X1097460Y-1065540D01*
X1096080Y-1066040D01*
X1094900Y-1066880D01*
X1093940Y-1068060D01*
X1093200Y-1069520D01*
X1092680Y-1071200D01*
X1092360Y-1073080D01*
X1092240Y-1075160D01*
X1092340Y-1077300D01*
X1092640Y-1079220D01*
X1093140Y-1080900D01*
X1093840Y-1082360D01*
X1094720Y-1083540D01*
X1095840Y-1084380D01*
X1097220Y-1084900D01*
X1098840Y-1085060D01*
X1100440Y-1084900D01*
X1101820Y-1084380D01*
X1103000Y-1083540D01*
X1103940Y-1082360D01*
X1104700Y-1080900D01*
X1105220Y-1079220D01*
X1105540Y-1077300D01*
X1105640Y-1075160D01*
X1105540Y-1073080D01*
X1105240Y-1071200D01*
X1104740Y-1069520D01*
X1104040Y-1068060D01*
X1103180Y-1066880D01*
X1102040Y-1066040D01*
X1100680Y-1065540D01*
G37*
G36*
X993040Y-1065460D02*
G01*
X991600Y-1065620D01*
X990380Y-1066080D01*
X989360Y-1066880D01*
X988540Y-1067960D01*
X987940Y-1069300D01*
X987500Y-1070920D01*
X987240Y-1072800D01*
X987140Y-1074960D01*
X987260Y-1077060D01*
X987580Y-1078960D01*
X988100Y-1080660D01*
X988840Y-1082160D01*
X989780Y-1083400D01*
X990939Y-1084260D01*
X992380Y-1084800D01*
X994040Y-1084960D01*
X996500Y-1084920D01*
X997940Y-1084760D01*
X997940Y-1066860D01*
X996880Y-1066320D01*
X995639Y-1065860D01*
X994400Y-1065560D01*
G37*
G36*
X784840Y-1077360D02*
G01*
X782240Y-1077560D01*
X780040Y-1078160D01*
X779220Y-1078660D01*
X778540Y-1079360D01*
X778180Y-1080220D01*
X778040Y-1081360D01*
X778139Y-1082400D01*
X778439Y-1083260D01*
X778940Y-1083980D01*
X779640Y-1084560D01*
X780560Y-1084960D01*
X781600Y-1085240D01*
X782760Y-1085400D01*
X787380Y-1085460D01*
X789040Y-1085260D01*
X789040Y-1077760D01*
X787039Y-1077460D01*
G37*
G36*
X959840Y-1077360D02*
G01*
X957240Y-1077560D01*
X955040Y-1078160D01*
X954220Y-1078660D01*
X953540Y-1079360D01*
X953180Y-1080220D01*
X953040Y-1081360D01*
X953139Y-1082400D01*
X953439Y-1083260D01*
X953940Y-1083980D01*
X954640Y-1084560D01*
X955560Y-1084960D01*
X956600Y-1085240D01*
X957760Y-1085400D01*
X962380Y-1085460D01*
X964040Y-1085260D01*
X964040Y-1077760D01*
X962039Y-1077460D01*
G37*
G36*
X1169840Y-1077360D02*
G01*
X1167240Y-1077560D01*
X1165040Y-1078160D01*
X1164220Y-1078660D01*
X1163540Y-1079360D01*
X1163180Y-1080220D01*
X1163040Y-1081360D01*
X1163140Y-1082400D01*
X1163440Y-1083260D01*
X1163940Y-1083980D01*
X1164640Y-1084560D01*
X1165560Y-1084960D01*
X1166600Y-1085240D01*
X1167760Y-1085400D01*
X1172380Y-1085460D01*
X1174040Y-1085260D01*
X1174040Y-1077760D01*
X1172040Y-1077460D01*
G37*
G36*
X3170460Y-388140D02*
G01*
X3125539Y-400760D01*
X3125539Y-401180D01*
X3128460Y-404739D01*
X3129740Y-406560D01*
X3130920Y-408420D01*
X3131980Y-410319D01*
X3132940Y-412280D01*
X3133780Y-414300D01*
X3134540Y-416400D01*
X3135200Y-418600D01*
X3136220Y-423300D01*
X3136880Y-428480D01*
X3137200Y-434219D01*
X3137220Y-448680D01*
X3133159Y-447540D01*
X3130960Y-447060D01*
X3126240Y-446360D01*
X3123720Y-446120D01*
X3121080Y-445980D01*
X3115640Y-445980D01*
X3113000Y-446140D01*
X3110400Y-446400D01*
X3105400Y-447200D01*
X3103000Y-447740D01*
X3098399Y-449099D01*
X3096200Y-449920D01*
X3092000Y-451800D01*
X3090000Y-452860D01*
X3086200Y-455240D01*
X3084400Y-456520D01*
X3081000Y-459340D01*
X3077860Y-462420D01*
X3075020Y-465760D01*
X3072440Y-469340D01*
X3070140Y-473140D01*
X3068120Y-477160D01*
X3066380Y-481360D01*
X3064940Y-485720D01*
X3063780Y-490260D01*
X3062900Y-494920D01*
X3062505Y-497840D01*
X3096620Y-497840D01*
X3096800Y-490900D01*
X3097280Y-484460D01*
X3097640Y-481420D01*
X3098600Y-475780D01*
X3099200Y-473160D01*
X3100620Y-468360D01*
X3101460Y-466180D01*
X3102380Y-464140D01*
X3103360Y-462260D01*
X3104420Y-460520D01*
X3105560Y-458940D01*
X3106780Y-457520D01*
X3108060Y-456240D01*
X3109440Y-455140D01*
X3110880Y-454200D01*
X3112400Y-453420D01*
X3113980Y-452819D01*
X3115640Y-452380D01*
X3117380Y-452120D01*
X3119180Y-452040D01*
X3121000Y-452120D01*
X3122720Y-452400D01*
X3124360Y-452860D01*
X3125920Y-453500D01*
X3127400Y-454340D01*
X3128780Y-455360D01*
X3130080Y-456560D01*
X3131280Y-457960D01*
X3132380Y-459560D01*
X3133399Y-461340D01*
X3134300Y-463320D01*
X3135100Y-465500D01*
X3135800Y-467879D01*
X3136380Y-470460D01*
X3136860Y-473220D01*
X3137220Y-476200D01*
X3137220Y-530400D01*
X3135560Y-532360D01*
X3133620Y-534120D01*
X3131460Y-535680D01*
X3129140Y-536980D01*
X3126640Y-538020D01*
X3124020Y-538800D01*
X3121320Y-539280D01*
X3118580Y-539440D01*
X3116840Y-539380D01*
X3115160Y-539160D01*
X3113560Y-538820D01*
X3112040Y-538320D01*
X3110560Y-537680D01*
X3109180Y-536900D01*
X3107840Y-535980D01*
X3106600Y-534920D01*
X3105400Y-533700D01*
X3104300Y-532340D01*
X3103260Y-530840D01*
X3102300Y-529200D01*
X3101400Y-527400D01*
X3100580Y-525460D01*
X3099840Y-523380D01*
X3098580Y-518760D01*
X3098060Y-516220D01*
X3097280Y-510700D01*
X3096800Y-504580D01*
X3096620Y-497840D01*
X3062505Y-497840D01*
X3062120Y-502140D01*
X3061980Y-507080D01*
X3062020Y-509880D01*
X3062380Y-515280D01*
X3063100Y-520460D01*
X3063580Y-522960D01*
X3064800Y-527740D01*
X3066360Y-532240D01*
X3067240Y-534380D01*
X3069260Y-538440D01*
X3071600Y-542160D01*
X3074220Y-545520D01*
X3075640Y-547080D01*
X3077120Y-548540D01*
X3078680Y-549920D01*
X3082000Y-552360D01*
X3083759Y-553420D01*
X3085600Y-554400D01*
X3087480Y-555260D01*
X3089420Y-556000D01*
X3091440Y-556660D01*
X3093519Y-557180D01*
X3095640Y-557600D01*
X3097820Y-557900D01*
X3100080Y-558080D01*
X3102380Y-558140D01*
X3104860Y-558060D01*
X3107260Y-557840D01*
X3109600Y-557480D01*
X3111860Y-556980D01*
X3114040Y-556360D01*
X3116160Y-555620D01*
X3118180Y-554760D01*
X3120140Y-553800D01*
X3122000Y-552760D01*
X3125520Y-550380D01*
X3128700Y-547700D01*
X3131560Y-544760D01*
X3134080Y-541640D01*
X3136259Y-538380D01*
X3137220Y-536720D01*
X3137640Y-536720D01*
X3137640Y-557940D01*
X3182140Y-548260D01*
X3182140Y-547840D01*
X3179460Y-544820D01*
X3178240Y-543280D01*
X3176060Y-540040D01*
X3175100Y-538280D01*
X3174240Y-536380D01*
X3173440Y-534300D01*
X3172760Y-532020D01*
X3172140Y-529540D01*
X3171640Y-526780D01*
X3171200Y-523740D01*
X3170880Y-520379D01*
X3170640Y-516680D01*
X3170500Y-512620D01*
G37*
G36*
X2182140Y-401180D02*
G01*
X2182140Y-401599D01*
X2185440Y-405420D01*
X2188320Y-409000D01*
X2190800Y-412460D01*
X2192900Y-415900D01*
X2194620Y-419440D01*
X2195360Y-421260D01*
X2196560Y-425120D01*
X2197060Y-427180D01*
X2197780Y-431620D01*
X2198200Y-436580D01*
X2198340Y-442160D01*
X2198300Y-510720D01*
X2198040Y-516599D01*
X2197500Y-521900D01*
X2196660Y-526680D01*
X2195520Y-531120D01*
X2194060Y-535320D01*
X2192260Y-539400D01*
X2190120Y-543500D01*
X2187620Y-547720D01*
X2183180Y-554580D01*
X2183580Y-555000D01*
X2225000Y-555000D01*
X2225000Y-554580D01*
X2221340Y-549920D01*
X2218120Y-545540D01*
X2215300Y-541380D01*
X2212900Y-537260D01*
X2210900Y-533120D01*
X2210040Y-530980D01*
X2208600Y-526560D01*
X2208020Y-524240D01*
X2207520Y-521800D01*
X2206800Y-516599D01*
X2206560Y-513800D01*
X2206340Y-507720D01*
X2205720Y-429120D01*
X2257800Y-550360D01*
X2265600Y-550360D01*
X2316460Y-430600D01*
X2316420Y-511880D01*
X2316260Y-517620D01*
X2315940Y-522780D01*
X2315420Y-527460D01*
X2314740Y-531800D01*
X2313860Y-535900D01*
X2312800Y-539900D01*
X2311520Y-543880D01*
X2307440Y-554580D01*
X2307440Y-555000D01*
X2361980Y-555000D01*
X2361980Y-554580D01*
X2358700Y-545860D01*
X2357360Y-541800D01*
X2356220Y-537800D01*
X2355260Y-533740D01*
X2354500Y-529540D01*
X2353900Y-525060D01*
X2353480Y-520220D01*
X2353240Y-514880D01*
X2353160Y-508980D01*
X2353200Y-439280D01*
X2353480Y-434020D01*
X2354040Y-429340D01*
X2354920Y-425120D01*
X2356120Y-421260D01*
X2357660Y-417640D01*
X2359560Y-414180D01*
X2361800Y-410740D01*
X2364440Y-407220D01*
X2369140Y-401599D01*
X2369140Y-401180D01*
X2320340Y-401180D01*
X2276880Y-504140D01*
X2232980Y-401180D01*
G37*
G36*
X2819940Y-401180D02*
G01*
X2819940Y-401599D01*
X2821780Y-406079D01*
X2823399Y-410280D01*
X2824780Y-414300D01*
X2825940Y-418260D01*
X2826900Y-422299D01*
X2827679Y-426500D01*
X2828260Y-431000D01*
X2828660Y-435900D01*
X2828880Y-441340D01*
X2828960Y-447420D01*
X2828960Y-486700D01*
X2865880Y-486700D01*
X2865880Y-408540D01*
X2869080Y-408360D01*
X2871820Y-408320D01*
X2874520Y-408400D01*
X2877100Y-408600D01*
X2879560Y-408940D01*
X2881900Y-409420D01*
X2884100Y-410040D01*
X2886200Y-410780D01*
X2888159Y-411640D01*
X2890020Y-412640D01*
X2891740Y-413760D01*
X2893340Y-415000D01*
X2894840Y-416360D01*
X2896220Y-417840D01*
X2897480Y-419420D01*
X2898639Y-421140D01*
X2899660Y-422960D01*
X2900580Y-424880D01*
X2901400Y-426920D01*
X2902100Y-429060D01*
X2902679Y-431320D01*
X2903159Y-433660D01*
X2903540Y-436120D01*
X2903800Y-438660D01*
X2903960Y-441320D01*
X2903980Y-446240D01*
X2903720Y-450640D01*
X2903200Y-455020D01*
X2902380Y-459320D01*
X2901259Y-463480D01*
X2899800Y-467480D01*
X2898940Y-469400D01*
X2898000Y-471240D01*
X2896960Y-473020D01*
X2895840Y-474720D01*
X2894620Y-476340D01*
X2893279Y-477860D01*
X2891860Y-479280D01*
X2890340Y-480600D01*
X2888700Y-481800D01*
X2886980Y-482900D01*
X2885120Y-483880D01*
X2883159Y-484700D01*
X2881100Y-485400D01*
X2878900Y-485959D01*
X2876600Y-486360D01*
X2874160Y-486620D01*
X2871620Y-486700D01*
X2828960Y-486700D01*
X2828940Y-511880D01*
X2828780Y-517620D01*
X2828480Y-522780D01*
X2827980Y-527460D01*
X2827320Y-531800D01*
X2826460Y-535900D01*
X2825400Y-539900D01*
X2824120Y-543880D01*
X2822620Y-547960D01*
X2819940Y-554580D01*
X2819940Y-555000D01*
X2874880Y-555000D01*
X2874880Y-554580D01*
X2872940Y-550140D01*
X2871280Y-545940D01*
X2869860Y-541900D01*
X2868700Y-537900D01*
X2867760Y-533820D01*
X2867040Y-529600D01*
X2866500Y-525100D01*
X2866139Y-520240D01*
X2865880Y-512020D01*
X2865880Y-493840D01*
X2880200Y-493800D01*
X2886820Y-493480D01*
X2893020Y-492840D01*
X2898800Y-491880D01*
X2904160Y-490660D01*
X2906700Y-489940D01*
X2911480Y-488280D01*
X2913740Y-487360D01*
X2917940Y-485340D01*
X2921780Y-483080D01*
X2925240Y-480600D01*
X2928360Y-477900D01*
X2931120Y-474980D01*
X2933560Y-471900D01*
X2935659Y-468640D01*
X2937420Y-465220D01*
X2938880Y-461640D01*
X2940020Y-457920D01*
X2940880Y-454099D01*
X2941440Y-450140D01*
X2941700Y-446100D01*
X2941700Y-442020D01*
X2941440Y-438040D01*
X2940860Y-434200D01*
X2939980Y-430500D01*
X2938780Y-426980D01*
X2937220Y-423620D01*
X2935299Y-420439D01*
X2934200Y-418920D01*
X2931680Y-416040D01*
X2928780Y-413380D01*
X2927160Y-412140D01*
X2923580Y-409820D01*
X2921640Y-408760D01*
X2917380Y-406820D01*
X2912640Y-405140D01*
X2907400Y-403760D01*
X2904580Y-403160D01*
X2901640Y-402640D01*
X2895340Y-401840D01*
X2891980Y-401540D01*
X2884840Y-401220D01*
G37*
G36*
X2639420Y-444900D02*
G01*
X2595539Y-457280D01*
X2595539Y-457700D01*
X2598460Y-461340D01*
X2599740Y-463160D01*
X2600920Y-465040D01*
X2601980Y-466940D01*
X2602940Y-468880D01*
X2604540Y-472980D01*
X2605740Y-477420D01*
X2606220Y-479799D01*
X2606880Y-484900D01*
X2607200Y-490560D01*
X2607220Y-515280D01*
X2607140Y-522060D01*
X2606860Y-528020D01*
X2606380Y-533280D01*
X2605740Y-538000D01*
X2604920Y-542340D01*
X2603940Y-546460D01*
X2602780Y-550480D01*
X2601480Y-554580D01*
X2601480Y-555000D01*
X2645779Y-555000D01*
X2645779Y-554580D01*
X2644500Y-550460D01*
X2643380Y-546380D01*
X2642460Y-542200D01*
X2641720Y-537800D01*
X2641160Y-533040D01*
X2640760Y-527840D01*
X2640520Y-522020D01*
X2640440Y-515500D01*
X2640440Y-479140D01*
X2642820Y-476680D01*
X2645280Y-474739D01*
X2647799Y-473480D01*
X2650299Y-473040D01*
X2651740Y-473140D01*
X2653380Y-473420D01*
X2655200Y-473860D01*
X2657160Y-474480D01*
X2659200Y-475240D01*
X2661300Y-476140D01*
X2663440Y-477180D01*
X2665560Y-478340D01*
X2667640Y-479600D01*
X2669640Y-480980D01*
X2671520Y-482440D01*
X2673240Y-483980D01*
X2674700Y-483760D01*
X2679400Y-445940D01*
X2676500Y-445620D01*
X2673720Y-445580D01*
X2671060Y-445780D01*
X2668519Y-446220D01*
X2666100Y-446860D01*
X2663780Y-447700D01*
X2661580Y-448740D01*
X2659460Y-449920D01*
X2657440Y-451260D01*
X2655500Y-452740D01*
X2653639Y-454320D01*
X2651840Y-456019D01*
X2648460Y-459660D01*
X2645299Y-463519D01*
X2639420Y-471360D01*
G37*
G36*
X2430200Y-445940D02*
G01*
X2427400Y-446000D01*
X2424660Y-446180D01*
X2422000Y-446480D01*
X2419380Y-446880D01*
X2414340Y-448000D01*
X2409520Y-449500D01*
X2404980Y-451360D01*
X2400660Y-453500D01*
X2396620Y-455920D01*
X2392820Y-458540D01*
X2389300Y-461360D01*
X2386040Y-464320D01*
X2383060Y-467380D01*
X2380360Y-470520D01*
X2382000Y-473040D01*
X2384360Y-472040D01*
X2389100Y-470319D01*
X2393820Y-468960D01*
X2398480Y-467960D01*
X2403060Y-467320D01*
X2407520Y-467000D01*
X2412380Y-467020D01*
X2414860Y-467239D01*
X2417120Y-467580D01*
X2419180Y-468080D01*
X2421040Y-468700D01*
X2422700Y-469500D01*
X2424160Y-470420D01*
X2425460Y-471500D01*
X2426560Y-472720D01*
X2427520Y-474099D01*
X2428300Y-475640D01*
X2428920Y-477320D01*
X2429400Y-479159D01*
X2429740Y-481180D01*
X2429920Y-483340D01*
X2429980Y-495100D01*
X2425360Y-496160D01*
X2420660Y-497360D01*
X2415940Y-498720D01*
X2411260Y-500260D01*
X2406660Y-501980D01*
X2402200Y-503880D01*
X2397920Y-505980D01*
X2395860Y-507100D01*
X2391960Y-509540D01*
X2390120Y-510820D01*
X2386680Y-513600D01*
X2383660Y-516599D01*
X2382300Y-518200D01*
X2381060Y-519880D01*
X2379940Y-521599D01*
X2378940Y-523400D01*
X2378244Y-524940D01*
X2405160Y-524940D01*
X2405280Y-523040D01*
X2405580Y-521180D01*
X2406100Y-519360D01*
X2406820Y-517600D01*
X2407740Y-515900D01*
X2408860Y-514240D01*
X2410160Y-512660D01*
X2411660Y-511120D01*
X2413340Y-509660D01*
X2415200Y-508260D01*
X2417240Y-506940D01*
X2419460Y-505680D01*
X2421840Y-504500D01*
X2424400Y-503380D01*
X2427100Y-502360D01*
X2429980Y-501420D01*
X2429980Y-535460D01*
X2427900Y-536660D01*
X2425340Y-537660D01*
X2422460Y-538340D01*
X2419320Y-538600D01*
X2416120Y-538340D01*
X2413300Y-537600D01*
X2410880Y-536380D01*
X2408860Y-534780D01*
X2407260Y-532780D01*
X2406120Y-530460D01*
X2405400Y-527820D01*
X2405160Y-524940D01*
X2378244Y-524940D01*
X2377380Y-527200D01*
X2376800Y-529200D01*
X2376400Y-531280D01*
X2376140Y-533440D01*
X2376060Y-535660D01*
X2376180Y-538380D01*
X2376540Y-540920D01*
X2377140Y-543280D01*
X2377940Y-545480D01*
X2378940Y-547480D01*
X2380140Y-549340D01*
X2381520Y-551000D01*
X2383080Y-552500D01*
X2384800Y-553820D01*
X2386660Y-554960D01*
X2388640Y-555940D01*
X2390760Y-556740D01*
X2393000Y-557340D01*
X2395320Y-557800D01*
X2397740Y-558060D01*
X2400240Y-558140D01*
X2402800Y-558060D01*
X2405260Y-557780D01*
X2407660Y-557320D01*
X2409980Y-556720D01*
X2412220Y-555960D01*
X2414380Y-555080D01*
X2416460Y-554060D01*
X2418460Y-552920D01*
X2420340Y-551680D01*
X2422140Y-550340D01*
X2423860Y-548920D01*
X2425460Y-547420D01*
X2426960Y-545860D01*
X2428360Y-544260D01*
X2430820Y-540920D01*
X2431440Y-543320D01*
X2432320Y-545600D01*
X2433420Y-547740D01*
X2434760Y-549720D01*
X2436340Y-551520D01*
X2438160Y-553140D01*
X2440220Y-554540D01*
X2442500Y-555720D01*
X2445020Y-556660D01*
X2447780Y-557360D01*
X2450760Y-557800D01*
X2453980Y-557940D01*
X2457320Y-557780D01*
X2460400Y-557340D01*
X2463260Y-556620D01*
X2465880Y-555660D01*
X2468280Y-554500D01*
X2470480Y-553160D01*
X2472500Y-551660D01*
X2474300Y-550060D01*
X2475940Y-548360D01*
X2477400Y-546600D01*
X2478700Y-544820D01*
X2479840Y-543040D01*
X2481720Y-539600D01*
X2483100Y-536500D01*
X2481660Y-535040D01*
X2479360Y-536660D01*
X2477040Y-537760D01*
X2474740Y-538400D01*
X2472440Y-538600D01*
X2470100Y-538400D01*
X2468160Y-537780D01*
X2466600Y-536840D01*
X2465380Y-535560D01*
X2464480Y-534000D01*
X2463860Y-532220D01*
X2463520Y-530240D01*
X2463420Y-528100D01*
X2463420Y-475780D01*
X2463360Y-473579D01*
X2463200Y-471440D01*
X2462920Y-469360D01*
X2462040Y-465439D01*
X2461420Y-463579D01*
X2460700Y-461800D01*
X2459860Y-460100D01*
X2458900Y-458480D01*
X2457820Y-456960D01*
X2456640Y-455520D01*
X2455340Y-454159D01*
X2453920Y-452900D01*
X2452360Y-451740D01*
X2450700Y-450660D01*
X2448920Y-449700D01*
X2447020Y-448840D01*
X2444980Y-448080D01*
X2442840Y-447440D01*
X2440560Y-446900D01*
X2438160Y-446480D01*
X2435620Y-446180D01*
X2432980Y-446000D01*
G37*
G36*
X2549060Y-445940D02*
G01*
X2546500Y-445980D01*
X2541520Y-446340D01*
X2536700Y-447040D01*
X2532060Y-448100D01*
X2529800Y-448740D01*
X2525440Y-450280D01*
X2521280Y-452120D01*
X2517340Y-454280D01*
X2513620Y-456700D01*
X2510140Y-459420D01*
X2506900Y-462400D01*
X2503900Y-465640D01*
X2501200Y-469120D01*
X2498760Y-472860D01*
X2496600Y-476800D01*
X2495640Y-478840D01*
X2493960Y-483100D01*
X2493220Y-485319D01*
X2492000Y-489860D01*
X2491120Y-494600D01*
X2490600Y-499500D01*
X2490460Y-502020D01*
X2490460Y-507239D01*
X2490820Y-512460D01*
X2491540Y-517440D01*
X2492600Y-522180D01*
X2494000Y-526680D01*
X2495720Y-530920D01*
X2496700Y-532940D01*
X2498880Y-536760D01*
X2501360Y-540320D01*
X2504120Y-543560D01*
X2505600Y-545080D01*
X2508760Y-547880D01*
X2512180Y-550380D01*
X2515840Y-552540D01*
X2519740Y-554360D01*
X2521760Y-555140D01*
X2523860Y-555840D01*
X2528180Y-556960D01*
X2532700Y-557720D01*
X2535040Y-557960D01*
X2537400Y-558100D01*
X2542720Y-558080D01*
X2545520Y-557880D01*
X2548220Y-557540D01*
X2550860Y-557100D01*
X2553400Y-556500D01*
X2555880Y-555800D01*
X2558240Y-554980D01*
X2560539Y-554040D01*
X2562740Y-553000D01*
X2564840Y-551840D01*
X2566860Y-550560D01*
X2568800Y-549200D01*
X2570640Y-547720D01*
X2572380Y-546140D01*
X2574020Y-544480D01*
X2575580Y-542700D01*
X2577040Y-540860D01*
X2578420Y-538920D01*
X2579680Y-536880D01*
X2580840Y-534780D01*
X2581920Y-532580D01*
X2582900Y-530320D01*
X2584540Y-525580D01*
X2582700Y-524320D01*
X2581320Y-525700D01*
X2579780Y-526980D01*
X2578080Y-528160D01*
X2576240Y-529240D01*
X2574280Y-530200D01*
X2572180Y-531060D01*
X2569980Y-531800D01*
X2567660Y-532420D01*
X2565280Y-532920D01*
X2562799Y-533280D01*
X2560260Y-533480D01*
X2557660Y-533560D01*
X2555720Y-533520D01*
X2553800Y-533380D01*
X2551920Y-533140D01*
X2550060Y-532800D01*
X2548240Y-532360D01*
X2546460Y-531820D01*
X2544720Y-531180D01*
X2543020Y-530420D01*
X2541380Y-529560D01*
X2539780Y-528600D01*
X2538240Y-527520D01*
X2536780Y-526340D01*
X2535360Y-525020D01*
X2534020Y-523600D01*
X2532740Y-522060D01*
X2531520Y-520400D01*
X2530400Y-518620D01*
X2529360Y-516719D01*
X2528400Y-514700D01*
X2527520Y-512540D01*
X2526720Y-510240D01*
X2526040Y-507819D01*
X2525440Y-505280D01*
X2524940Y-502600D01*
X2524560Y-499780D01*
X2524280Y-496820D01*
X2524100Y-493720D01*
X2524040Y-490480D01*
X2524120Y-486880D01*
X2524320Y-483440D01*
X2524680Y-480160D01*
X2525160Y-477060D01*
X2525760Y-474140D01*
X2526480Y-471380D01*
X2527320Y-468800D01*
X2528260Y-466400D01*
X2529300Y-464180D01*
X2530440Y-462140D01*
X2531680Y-460280D01*
X2532980Y-458620D01*
X2534380Y-457140D01*
X2535840Y-455860D01*
X2537360Y-454760D01*
X2538940Y-453860D01*
X2540600Y-453140D01*
X2542280Y-452640D01*
X2544020Y-452340D01*
X2545780Y-452239D01*
X2547240Y-452320D01*
X2548700Y-452600D01*
X2550200Y-453020D01*
X2551700Y-453620D01*
X2553240Y-454400D01*
X2554780Y-455319D01*
X2556360Y-456400D01*
X2559560Y-459000D01*
X2562820Y-462160D01*
X2566180Y-465860D01*
X2569620Y-470060D01*
X2573140Y-474720D01*
X2578600Y-482500D01*
X2581040Y-481880D01*
X2577960Y-450980D01*
X2574700Y-449880D01*
X2570840Y-448740D01*
X2566360Y-447660D01*
X2561240Y-446780D01*
X2558440Y-446420D01*
X2555480Y-446160D01*
X2552360Y-446000D01*
G37*
G36*
X2746180Y-445940D02*
G01*
X2743940Y-445980D01*
X2739500Y-446340D01*
X2735120Y-447020D01*
X2730840Y-448060D01*
X2728720Y-448680D01*
X2724580Y-450180D01*
X2720580Y-451980D01*
X2716720Y-454060D01*
X2713039Y-456420D01*
X2709540Y-459060D01*
X2706259Y-461940D01*
X2704680Y-463459D01*
X2701740Y-466700D01*
X2699040Y-470160D01*
X2696620Y-473840D01*
X2694480Y-477700D01*
X2692660Y-481760D01*
X2691860Y-483860D01*
X2690539Y-488180D01*
X2690000Y-490400D01*
X2689560Y-492660D01*
X2689220Y-494960D01*
X2688820Y-499640D01*
X2688780Y-502040D01*
X2723840Y-502040D01*
X2723960Y-495880D01*
X2724280Y-490020D01*
X2724840Y-484480D01*
X2725620Y-479300D01*
X2726620Y-474500D01*
X2727860Y-470080D01*
X2729320Y-466100D01*
X2730140Y-464280D01*
X2731019Y-462580D01*
X2731960Y-460980D01*
X2732960Y-459520D01*
X2734000Y-458180D01*
X2735120Y-456960D01*
X2736300Y-455880D01*
X2737520Y-454940D01*
X2738820Y-454120D01*
X2740179Y-453459D01*
X2741580Y-452920D01*
X2743060Y-452540D01*
X2744600Y-452320D01*
X2746180Y-452239D01*
X2747799Y-452320D01*
X2749360Y-452540D01*
X2750860Y-452920D01*
X2752280Y-453459D01*
X2753639Y-454120D01*
X2754960Y-454940D01*
X2756200Y-455880D01*
X2757380Y-456960D01*
X2758519Y-458180D01*
X2759580Y-459520D01*
X2760580Y-460980D01*
X2761520Y-462580D01*
X2763240Y-466100D01*
X2764700Y-470080D01*
X2765360Y-472239D01*
X2766480Y-476840D01*
X2767380Y-481840D01*
X2768039Y-487200D01*
X2768500Y-492900D01*
X2768720Y-498920D01*
X2768720Y-505200D01*
X2768500Y-511280D01*
X2768039Y-517040D01*
X2767380Y-522440D01*
X2766480Y-527480D01*
X2765960Y-529840D01*
X2764720Y-534260D01*
X2763260Y-538240D01*
X2762440Y-540060D01*
X2761560Y-541760D01*
X2760620Y-543360D01*
X2759620Y-544820D01*
X2758580Y-546160D01*
X2757460Y-547360D01*
X2756280Y-548440D01*
X2755059Y-549380D01*
X2753759Y-550180D01*
X2752400Y-550860D01*
X2751000Y-551380D01*
X2749520Y-551760D01*
X2747980Y-551980D01*
X2746400Y-552060D01*
X2744800Y-551980D01*
X2743260Y-551760D01*
X2741780Y-551380D01*
X2740360Y-550860D01*
X2739000Y-550180D01*
X2737700Y-549380D01*
X2736460Y-548440D01*
X2735280Y-547360D01*
X2734160Y-546160D01*
X2733100Y-544820D01*
X2732100Y-543360D01*
X2731139Y-541760D01*
X2729420Y-538240D01*
X2727940Y-534260D01*
X2726680Y-529840D01*
X2725659Y-525000D01*
X2724860Y-519780D01*
X2724300Y-514200D01*
X2723960Y-508280D01*
X2723840Y-502040D01*
X2688780Y-502040D01*
X2688820Y-504460D01*
X2689220Y-509159D01*
X2689560Y-511480D01*
X2690520Y-515980D01*
X2691840Y-520300D01*
X2693500Y-524460D01*
X2695480Y-528440D01*
X2697740Y-532200D01*
X2698980Y-534020D01*
X2701680Y-537480D01*
X2704620Y-540700D01*
X2707780Y-543700D01*
X2711180Y-546440D01*
X2714780Y-548920D01*
X2718540Y-551140D01*
X2722480Y-553080D01*
X2726560Y-554720D01*
X2730760Y-556040D01*
X2732900Y-556600D01*
X2737260Y-557440D01*
X2739460Y-557760D01*
X2743940Y-558100D01*
X2748460Y-558100D01*
X2750720Y-557980D01*
X2755179Y-557460D01*
X2757380Y-557080D01*
X2761720Y-556060D01*
X2765940Y-554740D01*
X2770020Y-553100D01*
X2773980Y-551180D01*
X2777760Y-548980D01*
X2781360Y-546500D01*
X2784760Y-543780D01*
X2787940Y-540780D01*
X2790899Y-537560D01*
X2793580Y-534100D01*
X2796000Y-530440D01*
X2798120Y-526560D01*
X2799940Y-522500D01*
X2800740Y-520379D01*
X2802060Y-516040D01*
X2803020Y-511520D01*
X2803360Y-509219D01*
X2803759Y-504460D01*
X2803820Y-502040D01*
X2803759Y-499640D01*
X2803360Y-494960D01*
X2803020Y-492660D01*
X2802060Y-488180D01*
X2800740Y-483860D01*
X2799080Y-479720D01*
X2797100Y-475740D01*
X2794820Y-471980D01*
X2792260Y-468400D01*
X2790899Y-466700D01*
X2787940Y-463459D01*
X2784760Y-460460D01*
X2781360Y-457700D01*
X2777760Y-455220D01*
X2773980Y-452980D01*
X2770020Y-451040D01*
X2765940Y-449400D01*
X2763840Y-448680D01*
X2759560Y-447500D01*
X2757380Y-447020D01*
X2752960Y-446340D01*
X2748460Y-445980D01*
G37*
G36*
X3000940Y-445940D02*
G01*
X2998140Y-446000D01*
X2995419Y-446180D01*
X2992740Y-446480D01*
X2990120Y-446880D01*
X2985080Y-448000D01*
X2980280Y-449500D01*
X2975720Y-451360D01*
X2971400Y-453500D01*
X2967360Y-455920D01*
X2963580Y-458540D01*
X2960040Y-461360D01*
X2956800Y-464320D01*
X2953820Y-467380D01*
X2951100Y-470520D01*
X2952740Y-473040D01*
X2957480Y-471140D01*
X2962200Y-469600D01*
X2966900Y-468420D01*
X2971520Y-467600D01*
X2976040Y-467120D01*
X2980419Y-466960D01*
X2983120Y-467020D01*
X2985600Y-467239D01*
X2987860Y-467580D01*
X2989920Y-468080D01*
X2991780Y-468700D01*
X2993440Y-469500D01*
X2994900Y-470420D01*
X2996200Y-471500D01*
X2997300Y-472720D01*
X2998260Y-474099D01*
X2999040Y-475640D01*
X2999660Y-477320D01*
X3000140Y-479159D01*
X3000480Y-481180D01*
X3000659Y-483340D01*
X3000740Y-485660D01*
X3000740Y-495100D01*
X2996100Y-496160D01*
X2991400Y-497360D01*
X2986700Y-498720D01*
X2982000Y-500260D01*
X2977400Y-501980D01*
X2972940Y-503880D01*
X2968660Y-505980D01*
X2966600Y-507100D01*
X2962700Y-509540D01*
X2960860Y-510820D01*
X2959100Y-512180D01*
X2955860Y-515080D01*
X2954400Y-516599D01*
X2953039Y-518200D01*
X2951800Y-519880D01*
X2950680Y-521599D01*
X2949680Y-523400D01*
X2948984Y-524940D01*
X2975920Y-524940D01*
X2976019Y-523040D01*
X2976340Y-521180D01*
X2976860Y-519360D01*
X2977580Y-517600D01*
X2978500Y-515900D01*
X2979600Y-514240D01*
X2980920Y-512660D01*
X2982400Y-511120D01*
X2984080Y-509660D01*
X2985940Y-508260D01*
X2987980Y-506940D01*
X2990200Y-505680D01*
X2992580Y-504500D01*
X2995140Y-503380D01*
X2997840Y-502360D01*
X3000740Y-501420D01*
X3000740Y-535460D01*
X2998639Y-536660D01*
X2996100Y-537660D01*
X2993200Y-538340D01*
X2990059Y-538600D01*
X2986880Y-538340D01*
X2984060Y-537600D01*
X2981620Y-536380D01*
X2979620Y-534780D01*
X2978020Y-532780D01*
X2976860Y-530460D01*
X2976160Y-527820D01*
X2975920Y-524940D01*
X2948984Y-524940D01*
X2948120Y-527200D01*
X2947559Y-529200D01*
X2947140Y-531280D01*
X2946880Y-533440D01*
X2946800Y-535660D01*
X2946920Y-538380D01*
X2947280Y-540920D01*
X2947880Y-543280D01*
X2948680Y-545480D01*
X2949680Y-547480D01*
X2950880Y-549340D01*
X2952260Y-551000D01*
X2953820Y-552500D01*
X2955539Y-553820D01*
X2957400Y-554960D01*
X2959380Y-555940D01*
X2961500Y-556740D01*
X2963740Y-557340D01*
X2966080Y-557800D01*
X2968500Y-558060D01*
X2971000Y-558140D01*
X2973540Y-558060D01*
X2976019Y-557780D01*
X2978420Y-557320D01*
X2980740Y-556720D01*
X2982980Y-555960D01*
X2985140Y-555080D01*
X2987220Y-554060D01*
X2989200Y-552920D01*
X2991100Y-551680D01*
X2992900Y-550340D01*
X2994600Y-548920D01*
X2996200Y-547420D01*
X2997700Y-545860D01*
X2999100Y-544260D01*
X3000380Y-542600D01*
X3001540Y-540920D01*
X3002180Y-543320D01*
X3003060Y-545600D01*
X3004160Y-547740D01*
X3005500Y-549720D01*
X3007080Y-551520D01*
X3008900Y-553140D01*
X3010960Y-554540D01*
X3013240Y-555720D01*
X3015760Y-556660D01*
X3018519Y-557360D01*
X3021500Y-557800D01*
X3024720Y-557940D01*
X3028060Y-557780D01*
X3031139Y-557340D01*
X3034000Y-556620D01*
X3036620Y-555660D01*
X3039040Y-554500D01*
X3041240Y-553160D01*
X3043240Y-551660D01*
X3045059Y-550060D01*
X3046680Y-548360D01*
X3048140Y-546600D01*
X3049440Y-544820D01*
X3050600Y-543040D01*
X3052460Y-539600D01*
X3053840Y-536500D01*
X3052420Y-535040D01*
X3050100Y-536660D01*
X3047799Y-537760D01*
X3045480Y-538400D01*
X3043180Y-538600D01*
X3040840Y-538400D01*
X3038920Y-537780D01*
X3037360Y-536840D01*
X3036139Y-535560D01*
X3035220Y-534000D01*
X3034620Y-532220D01*
X3034260Y-530240D01*
X3034160Y-528100D01*
X3034160Y-475780D01*
X3034100Y-473579D01*
X3033940Y-471440D01*
X3033660Y-469360D01*
X3033279Y-467360D01*
X3032780Y-465439D01*
X3032160Y-463579D01*
X3031440Y-461800D01*
X3030600Y-460100D01*
X3029660Y-458480D01*
X3028580Y-456960D01*
X3027400Y-455520D01*
X3026080Y-454159D01*
X3024660Y-452900D01*
X3023120Y-451740D01*
X3021460Y-450660D01*
X3019660Y-449700D01*
X3017760Y-448840D01*
X3015740Y-448080D01*
X3013580Y-447440D01*
X3011300Y-446900D01*
X3008900Y-446480D01*
X3006380Y-446180D01*
X3003720Y-446000D01*
G37*
G36*
X1710780Y-798139D02*
G01*
X1710480Y-798280D01*
X1710220Y-798680D01*
X1710060Y-799280D01*
X1710000Y-800000D01*
X1710220Y-801220D01*
X1710840Y-803180D01*
X1711740Y-805600D01*
X1716638Y-817080D01*
X1721639Y-817080D01*
X1739520Y-832880D01*
X1754019Y-846340D01*
X1772160Y-863720D01*
X1777840Y-869320D01*
X1782620Y-874180D01*
X1786560Y-878340D01*
X1789680Y-881840D01*
X1792020Y-884760D01*
X1793640Y-887120D01*
X1794199Y-888120D01*
X1794580Y-889000D01*
X1794800Y-889780D01*
X1794880Y-890440D01*
X1794720Y-891540D01*
X1794259Y-892980D01*
X1793540Y-894640D01*
X1791440Y-898500D01*
X1790120Y-900580D01*
X1788660Y-902680D01*
X1785520Y-906760D01*
X1782580Y-910939D01*
X1780180Y-914780D01*
X1778600Y-917880D01*
X1777680Y-920740D01*
X1777040Y-922180D01*
X1776399Y-923139D01*
X1775820Y-923500D01*
X1775460Y-923060D01*
X1773460Y-919680D01*
X1765600Y-905020D01*
X1754460Y-883560D01*
X1740920Y-856919D01*
X1730560Y-836040D01*
X1726740Y-828060D01*
X1721639Y-817080D01*
X1716638Y-817080D01*
X1733540Y-857380D01*
X1742680Y-878480D01*
X1747040Y-888199D01*
X1750960Y-896700D01*
X1754220Y-903420D01*
X1758120Y-911120D01*
X1760260Y-915879D01*
X1761940Y-920300D01*
X1763160Y-924500D01*
X1763600Y-926540D01*
X1764120Y-930600D01*
X1764199Y-932640D01*
X1764180Y-934700D01*
X1763779Y-938960D01*
X1762920Y-943460D01*
X1761600Y-948319D01*
X1759840Y-953620D01*
X1757620Y-959500D01*
X1755520Y-964700D01*
X1752120Y-973780D01*
X1748720Y-983640D01*
X1745720Y-993120D01*
X1743640Y-1000540D01*
X1741960Y-1007480D01*
X1741120Y-1012039D01*
X1740480Y-1017200D01*
X1740020Y-1023540D01*
X1739700Y-1031620D01*
X1739520Y-1042000D01*
X1739420Y-1055240D01*
X1739480Y-1180020D01*
X1751759Y-1180020D01*
X1749620Y-1164820D01*
X1749259Y-1159600D01*
X1749180Y-1153880D01*
X1749319Y-1147900D01*
X1749680Y-1141900D01*
X1750220Y-1136160D01*
X1750940Y-1130920D01*
X1751800Y-1126440D01*
X1752260Y-1124560D01*
X1752760Y-1122960D01*
X1753280Y-1121700D01*
X1753820Y-1120760D01*
X1755360Y-1119100D01*
X1755860Y-1117280D01*
X1755880Y-1114680D01*
X1755060Y-1108260D01*
X1754480Y-1100980D01*
X1753839Y-1090780D01*
X1752580Y-1064900D01*
X1752080Y-1051220D01*
X1751819Y-1039220D01*
X1751800Y-1031200D01*
X1752060Y-1021560D01*
X1752660Y-1012820D01*
X1753120Y-1008680D01*
X1753680Y-1004620D01*
X1754340Y-1000639D01*
X1755540Y-994640D01*
X1756500Y-990600D01*
X1758820Y-982180D01*
X1760160Y-977700D01*
X1763320Y-968060D01*
X1767900Y-955000D01*
X1770020Y-949460D01*
X1772020Y-944760D01*
X1774040Y-940600D01*
X1776220Y-936720D01*
X1778680Y-932840D01*
X1784100Y-925180D01*
X1788460Y-918720D01*
X1793800Y-910400D01*
X1800920Y-898880D01*
X1806240Y-889980D01*
X1810540Y-882440D01*
X1812120Y-879479D01*
X1813240Y-877099D01*
X1813420Y-875840D01*
X1812580Y-875420D01*
X1810600Y-875620D01*
X1810020Y-875600D01*
X1809240Y-875420D01*
X1807120Y-874479D01*
X1804220Y-872820D01*
X1800540Y-870440D01*
X1796100Y-867340D01*
X1790880Y-863520D01*
X1778140Y-853720D01*
X1752900Y-833720D01*
X1745580Y-827700D01*
X1741480Y-824060D01*
X1740560Y-823040D01*
X1740380Y-822720D01*
X1740360Y-822500D01*
X1740520Y-822420D01*
X1741320Y-822600D01*
X1742760Y-823180D01*
X1747460Y-825520D01*
X1754700Y-829380D01*
X1766000Y-835240D01*
X1773200Y-838800D01*
X1790100Y-846480D01*
X1797820Y-850320D01*
X1806200Y-854900D01*
X1826680Y-866580D01*
X1925700Y-868060D01*
X1957300Y-868720D01*
X1970120Y-869100D01*
X1981200Y-869539D01*
X1990740Y-870040D01*
X1998940Y-870620D01*
X2005960Y-871300D01*
X2012020Y-872080D01*
X2017280Y-872980D01*
X2021960Y-874000D01*
X2027680Y-875580D01*
X2028800Y-875660D01*
X2030380Y-875620D01*
X2034940Y-875080D01*
X2041560Y-873900D01*
X2050420Y-872080D01*
X2061740Y-869539D01*
X2075660Y-866280D01*
X2110060Y-857860D01*
X2121440Y-854900D01*
X2131520Y-852039D01*
X2140600Y-849160D01*
X2144840Y-847700D01*
X2152960Y-844580D01*
X2160780Y-841180D01*
X2168620Y-837360D01*
X2176780Y-833000D01*
X2189560Y-825600D01*
X2192140Y-824200D01*
X2193600Y-823560D01*
X2193900Y-823560D01*
X2193900Y-823740D01*
X2193080Y-824700D01*
X2191140Y-826440D01*
X2188080Y-828960D01*
X2178580Y-836340D01*
X2166440Y-845440D01*
X2158480Y-851260D01*
X2151000Y-856500D01*
X2143660Y-861360D01*
X2134240Y-867200D01*
X2126080Y-871900D01*
X2117040Y-876860D01*
X2106820Y-882240D01*
X2082760Y-894520D01*
X2077580Y-897360D01*
X2073180Y-899940D01*
X2069780Y-902140D01*
X2067580Y-903820D01*
X2067000Y-904419D01*
X2066800Y-904840D01*
X2067000Y-905500D01*
X2067580Y-906500D01*
X2069720Y-909400D01*
X2073000Y-913259D01*
X2077120Y-917860D01*
X2081840Y-922900D01*
X2086879Y-928120D01*
X2092020Y-933280D01*
X2096980Y-938080D01*
X2101480Y-942280D01*
X2105280Y-945600D01*
X2108140Y-947780D01*
X2109120Y-948379D01*
X2109760Y-948580D01*
X2110920Y-948520D01*
X2111800Y-948319D01*
X2112400Y-947960D01*
X2112720Y-947380D01*
X2112740Y-946600D01*
X2112440Y-945540D01*
X2111820Y-944200D01*
X2109560Y-940560D01*
X2105860Y-935380D01*
X2101200Y-929160D01*
X2097040Y-923300D01*
X2093460Y-917920D01*
X2090680Y-913340D01*
X2088860Y-909860D01*
X2088360Y-908640D01*
X2088200Y-907800D01*
X2088360Y-907400D01*
X2096120Y-903520D01*
X2106020Y-898160D01*
X2116160Y-892280D01*
X2124400Y-887220D01*
X2132780Y-881820D01*
X2141260Y-876120D01*
X2147680Y-871640D01*
X2160700Y-862159D01*
X2169480Y-855480D01*
X2192740Y-837000D01*
X2201600Y-830240D01*
X2204900Y-827980D01*
X2205200Y-827880D01*
X2205320Y-828240D01*
X2205080Y-829840D01*
X2204280Y-832560D01*
X2202960Y-836280D01*
X2199000Y-846220D01*
X2193580Y-858660D01*
X2187120Y-872640D01*
X2182540Y-881919D01*
X2177840Y-890740D01*
X2172380Y-900500D01*
X2164960Y-913199D01*
X2158920Y-923100D01*
X2153160Y-932180D01*
X2138360Y-954680D01*
X2133560Y-962360D01*
X2131700Y-965580D01*
X2130200Y-968500D01*
X2129020Y-971180D01*
X2128140Y-973700D01*
X2127520Y-976160D01*
X2127140Y-978620D01*
X2127000Y-981160D01*
X2127060Y-983860D01*
X2127300Y-986800D01*
X2128200Y-993720D01*
X2129540Y-1002540D01*
X2131460Y-1016400D01*
X2132420Y-1024360D01*
X2133200Y-1031680D01*
X2133800Y-1038300D01*
X2134220Y-1044160D01*
X2134440Y-1049200D01*
X2134460Y-1053380D01*
X2134300Y-1056640D01*
X2134140Y-1057900D01*
X2133920Y-1058900D01*
X2133660Y-1059640D01*
X2133340Y-1060120D01*
X2132780Y-1060260D01*
X2131860Y-1060000D01*
X2130720Y-1059400D01*
X2128260Y-1057600D01*
X2127160Y-1056980D01*
X2126280Y-1056680D01*
X2125760Y-1056780D01*
X2125740Y-1057280D01*
X2126480Y-1060020D01*
X2128080Y-1064660D01*
X2130360Y-1070620D01*
X2138340Y-1090340D01*
X2132580Y-1134300D01*
X2131680Y-1141820D01*
X2131040Y-1148080D01*
X2130680Y-1153220D01*
X2130600Y-1157400D01*
X2130660Y-1159180D01*
X2131040Y-1162260D01*
X2131340Y-1163580D01*
X2131720Y-1164800D01*
X2132720Y-1166960D01*
X2134060Y-1168920D01*
X2135740Y-1170840D01*
X2140040Y-1175040D01*
X2142000Y-1176720D01*
X2143800Y-1177980D01*
X2145580Y-1178860D01*
X2147500Y-1179460D01*
X2149700Y-1179800D01*
X2152320Y-1179980D01*
X2165960Y-1180020D01*
X2151000Y-1164700D01*
X2147780Y-1089520D01*
X2146040Y-1045140D01*
X2145340Y-1031340D01*
X2144480Y-1019260D01*
X2143420Y-1008900D01*
X2142820Y-1004340D01*
X2142180Y-1000220D01*
X2141480Y-996500D01*
X2137460Y-978319D01*
X2163920Y-933259D01*
X2170900Y-920920D01*
X2177440Y-908940D01*
X2183540Y-897360D01*
X2189160Y-886220D01*
X2194280Y-875580D01*
X2198900Y-865480D01*
X2202980Y-855939D01*
X2206520Y-847039D01*
X2209500Y-838820D01*
X2211880Y-831300D01*
X2213660Y-824539D01*
X2214800Y-818580D01*
X2215120Y-815920D01*
X2215300Y-813480D01*
X2215240Y-809240D01*
X2215000Y-806540D01*
X2214660Y-804520D01*
X2214260Y-803500D01*
X2213660Y-803500D01*
X2212400Y-803920D01*
X2208160Y-805819D01*
X2202140Y-808920D01*
X2189740Y-815860D01*
X2182860Y-819580D01*
X2177760Y-822200D01*
X2172640Y-824700D01*
X2163940Y-828620D01*
X2156680Y-831620D01*
X2149040Y-834500D01*
X2140900Y-837340D01*
X2132120Y-840140D01*
X2122600Y-842960D01*
X2112220Y-845840D01*
X2100860Y-848840D01*
X2088400Y-851960D01*
X2059680Y-858780D01*
X2045040Y-862060D01*
X2039480Y-863100D01*
X2034860Y-863760D01*
X2031080Y-864060D01*
X2028020Y-863980D01*
X2025580Y-863580D01*
X2021500Y-862640D01*
X2016440Y-861800D01*
X2010420Y-861040D01*
X2003400Y-860360D01*
X1995320Y-859780D01*
X1986160Y-859280D01*
X1975900Y-858860D01*
X1964500Y-858520D01*
X1938100Y-858080D01*
X1923060Y-857960D01*
X1833860Y-857920D01*
X1748899Y-816420D01*
X1726960Y-805780D01*
X1713520Y-799360D01*
G37*
G36*
X1793839Y-966600D02*
G01*
X1792300Y-966740D01*
X1790900Y-967060D01*
X1789660Y-967560D01*
X1788560Y-968220D01*
X1787520Y-969060D01*
X1786840Y-969880D01*
X1786560Y-970819D01*
X1786680Y-972020D01*
X1787240Y-973560D01*
X1788300Y-975600D01*
X1789655Y-977900D01*
X1799240Y-977900D01*
X1800340Y-977560D01*
X1803180Y-977500D01*
X1805380Y-977700D01*
X1807020Y-978259D01*
X1808020Y-979160D01*
X1808360Y-980400D01*
X1808000Y-982420D01*
X1806860Y-983080D01*
X1804800Y-982380D01*
X1801720Y-980340D01*
X1799740Y-978740D01*
X1799240Y-977900D01*
X1789655Y-977900D01*
X1791980Y-981700D01*
X1793460Y-983940D01*
X1795020Y-986040D01*
X1796620Y-988020D01*
X1798300Y-989840D01*
X1800040Y-991540D01*
X1801819Y-993100D01*
X1803680Y-994520D01*
X1805580Y-995780D01*
X1807540Y-996919D01*
X1809540Y-997900D01*
X1811600Y-998720D01*
X1813700Y-999419D01*
X1815840Y-999960D01*
X1818000Y-1000340D01*
X1820220Y-1000580D01*
X1829580Y-1000639D01*
X1829580Y-989460D01*
X1829460Y-985480D01*
X1829139Y-982120D01*
X1828600Y-979360D01*
X1827840Y-977240D01*
X1826860Y-975740D01*
X1825680Y-974860D01*
X1824259Y-974599D01*
X1822640Y-974960D01*
X1820960Y-975020D01*
X1818340Y-974479D01*
X1815160Y-973420D01*
X1806320Y-969539D01*
X1803860Y-968600D01*
X1801540Y-967840D01*
X1799400Y-967260D01*
X1797380Y-966860D01*
X1795540Y-966640D01*
G37*
G36*
X1957240Y-977780D02*
G01*
X1952040Y-978000D01*
X1946720Y-978600D01*
X1941300Y-979580D01*
X1935600Y-980960D01*
X1932980Y-981680D01*
X1930640Y-982440D01*
X1928520Y-983240D01*
X1926579Y-984120D01*
X1924740Y-985120D01*
X1922940Y-986260D01*
X1919662Y-988840D01*
X1944180Y-988840D01*
X1944240Y-988060D01*
X1944940Y-987060D01*
X1946339Y-985879D01*
X1949319Y-984080D01*
X1951879Y-983500D01*
X1954460Y-984140D01*
X1957420Y-986020D01*
X1959060Y-987460D01*
X1959139Y-988360D01*
X1957400Y-988980D01*
X1953560Y-989560D01*
X1950460Y-989860D01*
X1947940Y-989940D01*
X1946060Y-989780D01*
X1944800Y-989419D01*
X1944180Y-988840D01*
X1919662Y-988840D01*
X1917340Y-990939D01*
X1912840Y-995440D01*
X1904480Y-1004020D01*
X1910700Y-1006200D01*
X1912320Y-1006620D01*
X1914480Y-1007039D01*
X1920160Y-1007720D01*
X1926960Y-1008199D01*
X1934120Y-1008360D01*
X1940500Y-1008280D01*
X1945840Y-1007960D01*
X1950420Y-1007300D01*
X1952520Y-1006800D01*
X1954540Y-1006200D01*
X1956519Y-1005460D01*
X1958480Y-1004580D01*
X1962520Y-1002320D01*
X1966960Y-999340D01*
X1972100Y-995540D01*
X1975740Y-993020D01*
X1979420Y-990980D01*
X1982680Y-989580D01*
X1985120Y-989080D01*
X1987540Y-988920D01*
X1989000Y-988480D01*
X1989520Y-987780D01*
X1989139Y-986860D01*
X1987860Y-985740D01*
X1985740Y-984440D01*
X1982760Y-983020D01*
X1978980Y-981500D01*
X1976720Y-980699D01*
X1972060Y-979419D01*
X1969680Y-978900D01*
X1967260Y-978480D01*
X1962320Y-977940D01*
G37*
G36*
X1833720Y-1016080D02*
G01*
X1832760Y-1016460D01*
X1831300Y-1017500D01*
X1829520Y-1019020D01*
X1827640Y-1020900D01*
X1825100Y-1023940D01*
X1824560Y-1025460D01*
X1826040Y-1025440D01*
X1829480Y-1023840D01*
X1832060Y-1021800D01*
X1833959Y-1019220D01*
X1834680Y-1017020D01*
G37*
G36*
X1820840Y-1028900D02*
G01*
X1819580Y-1029320D01*
X1817760Y-1031000D01*
X1815300Y-1034000D01*
X1809920Y-1041040D01*
X1815100Y-1047620D01*
X1820580Y-1054080D01*
X1826660Y-1060900D01*
X1828120Y-1062760D01*
X1829460Y-1064660D01*
X1830660Y-1066600D01*
X1831740Y-1068580D01*
X1832680Y-1070560D01*
X1833500Y-1072580D01*
X1834160Y-1074600D01*
X1834680Y-1076640D01*
X1835060Y-1078660D01*
X1835280Y-1080680D01*
X1835360Y-1082680D01*
X1835220Y-1083760D01*
X1834740Y-1084820D01*
X1833899Y-1085920D01*
X1832660Y-1087060D01*
X1831020Y-1088280D01*
X1828920Y-1089580D01*
X1826339Y-1091020D01*
X1811120Y-1098560D01*
X1805780Y-1093960D01*
X1803220Y-1092060D01*
X1800640Y-1090660D01*
X1798160Y-1089760D01*
X1795880Y-1089380D01*
X1793920Y-1089520D01*
X1792380Y-1090200D01*
X1791360Y-1091400D01*
X1791000Y-1093160D01*
X1791320Y-1094800D01*
X1792180Y-1096460D01*
X1793440Y-1097960D01*
X1794980Y-1099080D01*
X1796819Y-1100580D01*
X1798880Y-1103080D01*
X1800880Y-1106240D01*
X1802620Y-1109700D01*
X1806260Y-1118200D01*
X1814300Y-1115360D01*
X1816080Y-1114800D01*
X1818140Y-1114320D01*
X1822980Y-1113520D01*
X1828520Y-1112980D01*
X1834520Y-1112700D01*
X1840740Y-1112680D01*
X1846900Y-1112940D01*
X1852740Y-1113460D01*
X1855480Y-1113820D01*
X1858040Y-1114260D01*
X1859840Y-1114680D01*
X1861800Y-1115280D01*
X1865980Y-1116880D01*
X1870080Y-1118840D01*
X1871920Y-1119880D01*
X1876620Y-1122920D01*
X1878060Y-1123680D01*
X1879500Y-1124300D01*
X1881020Y-1124820D01*
X1882680Y-1125200D01*
X1884560Y-1125500D01*
X1889240Y-1125880D01*
X1895560Y-1126000D01*
X1902680Y-1126000D01*
X1908700Y-1125840D01*
X1914319Y-1125520D01*
X1919560Y-1125040D01*
X1924520Y-1124380D01*
X1929199Y-1123520D01*
X1933660Y-1122480D01*
X1937980Y-1121220D01*
X1942180Y-1119740D01*
X1946320Y-1118040D01*
X1950520Y-1116180D01*
X1952820Y-1115320D01*
X1955240Y-1114540D01*
X1957680Y-1113860D01*
X1960060Y-1113300D01*
X1962340Y-1112880D01*
X1964400Y-1112600D01*
X1969460Y-1112380D01*
X1971819Y-1111980D01*
X1973320Y-1111340D01*
X1973920Y-1110500D01*
X1973640Y-1109480D01*
X1972480Y-1108300D01*
X1970420Y-1107020D01*
X1967460Y-1105620D01*
X1963760Y-1104260D01*
X1960940Y-1103780D01*
X1958380Y-1104180D01*
X1954180Y-1106020D01*
X1951240Y-1107180D01*
X1947700Y-1108380D01*
X1943600Y-1109580D01*
X1939060Y-1110780D01*
X1934139Y-1111920D01*
X1928920Y-1113020D01*
X1923500Y-1114040D01*
X1918220Y-1114840D01*
X1915740Y-1115060D01*
X1913280Y-1115160D01*
X1910840Y-1115100D01*
X1908420Y-1114940D01*
X1906020Y-1114620D01*
X1903640Y-1114180D01*
X1901279Y-1113620D01*
X1898940Y-1112920D01*
X1896620Y-1112080D01*
X1894319Y-1111120D01*
X1892040Y-1110020D01*
X1889760Y-1108800D01*
X1887520Y-1107440D01*
X1885280Y-1105940D01*
X1881000Y-1102820D01*
X1878640Y-1101260D01*
X1876060Y-1099680D01*
X1870580Y-1096680D01*
X1865240Y-1094160D01*
X1856420Y-1090740D01*
X1853899Y-1089620D01*
X1851740Y-1088520D01*
X1849940Y-1087440D01*
X1848440Y-1086300D01*
X1847200Y-1085080D01*
X1846160Y-1083740D01*
X1845280Y-1082240D01*
X1844540Y-1080540D01*
X1843860Y-1078600D01*
X1843220Y-1076420D01*
X1842180Y-1071940D01*
X1842140Y-1068900D01*
X1843240Y-1066380D01*
X1845680Y-1063480D01*
X1847800Y-1061540D01*
X1850220Y-1059960D01*
X1852620Y-1058900D01*
X1856960Y-1058120D01*
X1859640Y-1057080D01*
X1862520Y-1055540D01*
X1865360Y-1053660D01*
X1867940Y-1051580D01*
X1870060Y-1049500D01*
X1871480Y-1047540D01*
X1872000Y-1045879D01*
X1872080Y-1044419D01*
X1872020Y-1043920D01*
X1871780Y-1043600D01*
X1871279Y-1043460D01*
X1870440Y-1043540D01*
X1867340Y-1044340D01*
X1852980Y-1048980D01*
X1845800Y-1051220D01*
X1839580Y-1052900D01*
X1835000Y-1053900D01*
X1833540Y-1054080D01*
X1832720Y-1054020D01*
X1831600Y-1053180D01*
X1830120Y-1051560D01*
X1828480Y-1049380D01*
X1826900Y-1046860D01*
X1823240Y-1040580D01*
X1839259Y-1042920D01*
X1848080Y-1044080D01*
X1857540Y-1045200D01*
X1852140Y-1040280D01*
X1850560Y-1038940D01*
X1849019Y-1037860D01*
X1847460Y-1037000D01*
X1845800Y-1036340D01*
X1843959Y-1035879D01*
X1841879Y-1035560D01*
X1839480Y-1035400D01*
X1833060Y-1035260D01*
X1830060Y-1035060D01*
X1827620Y-1034720D01*
X1825680Y-1034180D01*
X1824180Y-1033439D01*
X1823020Y-1032460D01*
X1822180Y-1031220D01*
X1821560Y-1029720D01*
G37*
G36*
X1809280Y-1135100D02*
G01*
X1808500Y-1135600D01*
X1807680Y-1136780D01*
X1806780Y-1138560D01*
X1806160Y-1140100D01*
X1805800Y-1141540D01*
X1805720Y-1143020D01*
X1805940Y-1144640D01*
X1806480Y-1146540D01*
X1807360Y-1148800D01*
X1808600Y-1151540D01*
X1811600Y-1157400D01*
X1812960Y-1159780D01*
X1814379Y-1161980D01*
X1815800Y-1164000D01*
X1817220Y-1165840D01*
X1818640Y-1167480D01*
X1820040Y-1168900D01*
X1821420Y-1170080D01*
X1822740Y-1171040D01*
X1824019Y-1171740D01*
X1825220Y-1172160D01*
X1826360Y-1172300D01*
X1827100Y-1171880D01*
X1827360Y-1170700D01*
X1827160Y-1168920D01*
X1826560Y-1166680D01*
X1825600Y-1164140D01*
X1824340Y-1161440D01*
X1822840Y-1158720D01*
X1819199Y-1153260D01*
X1817240Y-1149900D01*
X1815480Y-1146460D01*
X1814139Y-1143380D01*
X1812900Y-1140180D01*
X1811819Y-1137780D01*
X1810900Y-1136160D01*
X1810060Y-1135260D01*
G37*
G36*
X1962140Y-1143800D02*
G01*
X1960900Y-1144080D01*
X1959460Y-1144640D01*
X1957720Y-1145520D01*
X1955640Y-1146740D01*
X1950120Y-1150380D01*
X1942400Y-1155780D01*
X1932880Y-1162800D01*
X1928480Y-1166220D01*
X1924620Y-1169340D01*
X1921500Y-1172020D01*
X1919379Y-1174040D01*
X1913720Y-1180020D01*
X1920620Y-1180000D01*
X1922860Y-1179760D01*
X1923959Y-1179500D01*
X1926380Y-1178580D01*
X1929300Y-1176960D01*
X1933000Y-1174500D01*
X1937760Y-1170980D01*
X1951699Y-1160120D01*
X1955920Y-1156740D01*
X1959379Y-1153840D01*
X1962140Y-1151400D01*
X1964220Y-1149380D01*
X1965620Y-1147780D01*
X1966399Y-1146540D01*
X1966579Y-1145640D01*
X1966180Y-1145040D01*
X1964199Y-1144020D01*
X1963200Y-1143800D01*
G37*
D37*
X2511400Y-929499D02*
G01*
X2511400Y-977300D01*
X2511400Y-929499D02*
G01*
X2531899Y-929499D01*
X2538699Y-931799D01*
X2541000Y-934099D01*
X2543199Y-938600D01*
X2543199Y-943200D01*
X2541000Y-947699D01*
X2538699Y-950000D01*
X2531899Y-952300D01*
X2511400Y-952300D01*
X2527299Y-952300D02*
G01*
X2543199Y-977300D01*
X2558199Y-959099D02*
G01*
X2585500Y-959099D01*
X2585500Y-954499D01*
X2583199Y-950000D01*
X2581000Y-947699D01*
X2576400Y-945500D01*
X2569600Y-945500D01*
X2565100Y-947699D01*
X2560500Y-952300D01*
X2558199Y-959099D01*
X2558199Y-963600D01*
X2560500Y-970500D01*
X2565100Y-975000D01*
X2569600Y-977300D01*
X2576400Y-977300D01*
X2581000Y-975000D01*
X2585500Y-970500D01*
X2600500Y-945500D02*
G01*
X2614200Y-977300D01*
X2627799Y-945500D02*
G01*
X2614200Y-977300D01*
X2642799Y-929499D02*
G01*
X2645100Y-931799D01*
X2647299Y-929499D01*
X2645100Y-927300D01*
X2642799Y-929499D01*
X2645100Y-945500D02*
G01*
X2645100Y-977300D01*
X2687299Y-952300D02*
G01*
X2685100Y-947699D01*
X2678199Y-945500D01*
X2671400Y-945500D01*
X2664600Y-947699D01*
X2662299Y-952300D01*
X2664600Y-956799D01*
X2669200Y-959099D01*
X2680500Y-961399D01*
X2685100Y-963600D01*
X2687299Y-968200D01*
X2687299Y-970500D01*
X2685100Y-975000D01*
X2678199Y-977300D01*
X2671400Y-977300D01*
X2664600Y-975000D01*
X2662299Y-970500D01*
X2702299Y-929499D02*
G01*
X2704600Y-931799D01*
X2706899Y-929499D01*
X2704600Y-927300D01*
X2702299Y-929499D01*
X2704600Y-945500D02*
G01*
X2704600Y-977300D01*
X2733199Y-945500D02*
G01*
X2728699Y-947699D01*
X2724200Y-952300D01*
X2721899Y-959099D01*
X2721899Y-963600D01*
X2724200Y-970500D01*
X2728699Y-975000D01*
X2733199Y-977300D01*
X2740100Y-977300D01*
X2744600Y-975000D01*
X2749200Y-970500D01*
X2751400Y-963600D01*
X2751400Y-959099D01*
X2749200Y-952300D01*
X2744600Y-947699D01*
X2740100Y-945500D01*
X2733199Y-945500D01*
X2766400Y-945500D02*
G01*
X2766400Y-977300D01*
X2766400Y-954499D02*
G01*
X2773199Y-947699D01*
X2777799Y-945500D01*
X2784600Y-945500D01*
X2789200Y-947699D01*
X2791400Y-954499D01*
X2791400Y-977300D01*
X2843699Y-940900D02*
G01*
X2843699Y-938600D01*
X2846000Y-934099D01*
X2848199Y-931799D01*
X2852799Y-929499D01*
X2861899Y-929499D01*
X2866400Y-931799D01*
X2868699Y-934099D01*
X2871000Y-938600D01*
X2871000Y-943200D01*
X2868699Y-947699D01*
X2864200Y-954499D01*
X2841400Y-977300D01*
X2873199Y-977300D01*
D39*
X3396099Y-1030500D02*
G01*
X3379799Y-1073400D01*
X3396099Y-1030500D02*
G01*
X3412500Y-1073400D01*
X3385900Y-1059099D02*
G01*
X3406400Y-1059099D01*
X3426000Y-1030500D02*
G01*
X3426000Y-1073400D01*
X3426000Y-1030500D02*
G01*
X3440299Y-1030500D01*
X3446400Y-1032500D01*
X3450500Y-1036599D01*
X3452600Y-1040700D01*
X3454600Y-1046799D01*
X3454600Y-1057100D01*
X3452600Y-1063200D01*
X3450500Y-1067300D01*
X3446400Y-1071399D01*
X3440299Y-1073400D01*
X3426000Y-1073400D01*
X3498800Y-1040700D02*
G01*
X3496800Y-1036599D01*
X3492700Y-1032500D01*
X3488599Y-1030500D01*
X3480399Y-1030500D01*
X3476300Y-1032500D01*
X3472200Y-1036599D01*
X3470200Y-1040700D01*
X3468100Y-1046799D01*
X3468100Y-1057100D01*
X3470200Y-1063200D01*
X3472200Y-1067300D01*
X3476300Y-1071399D01*
X3480399Y-1073400D01*
X3488599Y-1073400D01*
X3492700Y-1071399D01*
X3496800Y-1067300D01*
X3498800Y-1063200D01*
X3524600Y-1030500D02*
G01*
X3518400Y-1032500D01*
X3514399Y-1038600D01*
X3512299Y-1048899D01*
X3512299Y-1055000D01*
X3514399Y-1065199D01*
X3518400Y-1071399D01*
X3524600Y-1073400D01*
X3528699Y-1073400D01*
X3534799Y-1071399D01*
X3538900Y-1065199D01*
X3540900Y-1055000D01*
X3540900Y-1048899D01*
X3538900Y-1038600D01*
X3534799Y-1032500D01*
X3528699Y-1030500D01*
X3524600Y-1030500D01*
X3428639Y-200686D02*
G01*
X3424539Y-196586D01*
X3418440Y-194587D01*
X3410240Y-194587D01*
X3404139Y-196586D01*
X3400039Y-200686D01*
X3400039Y-204787D01*
X3402039Y-208886D01*
X3404139Y-210987D01*
X3408140Y-212986D01*
X3420439Y-217087D01*
X3424539Y-219086D01*
X3426639Y-221186D01*
X3428639Y-225286D01*
X3428639Y-231386D01*
X3424539Y-235486D01*
X3418440Y-237586D01*
X3410240Y-237586D01*
X3404139Y-235486D01*
X3400039Y-231386D01*
X3442139Y-194587D02*
G01*
X3452340Y-237586D01*
X3462640Y-194587D02*
G01*
X3452340Y-237586D01*
X3462640Y-194587D02*
G01*
X3472839Y-237586D01*
X3483040Y-194587D02*
G01*
X3472839Y-237586D01*
X3508840Y-194587D02*
G01*
X3502640Y-196586D01*
X3498639Y-202786D01*
X3496540Y-212986D01*
X3496540Y-219086D01*
X3498639Y-229387D01*
X3502640Y-235486D01*
X3508840Y-237586D01*
X3512939Y-237586D01*
X3519040Y-235486D01*
X3523140Y-229387D01*
X3525140Y-219086D01*
X3525140Y-212986D01*
X3523140Y-202786D01*
X3519040Y-196586D01*
X3512939Y-194587D01*
X3508840Y-194587D01*
X3409300Y-296399D02*
G01*
X3405200Y-300500D01*
X3401099Y-306599D01*
X3396999Y-314800D01*
X3395000Y-325000D01*
X3395000Y-333200D01*
X3396999Y-343499D01*
X3401099Y-351599D01*
X3405200Y-357800D01*
X3409300Y-361900D01*
X3422799Y-304600D02*
G01*
X3422799Y-347500D01*
X3448599Y-304600D02*
G01*
X3444499Y-306599D01*
X3440399Y-310700D01*
X3438400Y-314800D01*
X3436300Y-320999D01*
X3436300Y-331199D01*
X3438400Y-337300D01*
X3440399Y-341399D01*
X3444499Y-345500D01*
X3448599Y-347500D01*
X3456800Y-347500D01*
X3460900Y-345500D01*
X3465000Y-341399D01*
X3466999Y-337300D01*
X3468999Y-331199D01*
X3468999Y-320999D01*
X3466999Y-314800D01*
X3465000Y-310700D01*
X3460900Y-306599D01*
X3456800Y-304600D01*
X3448599Y-304600D01*
X3509099Y-318899D02*
G01*
X3507100Y-325000D01*
X3503000Y-329099D01*
X3496899Y-331199D01*
X3494799Y-331199D01*
X3488699Y-329099D01*
X3484600Y-325000D01*
X3482500Y-318899D01*
X3482500Y-316900D01*
X3484600Y-310700D01*
X3488699Y-306599D01*
X3494799Y-304600D01*
X3496899Y-304600D01*
X3503000Y-306599D01*
X3507100Y-310700D01*
X3509099Y-318899D01*
X3509099Y-329099D01*
X3507100Y-339400D01*
X3503000Y-345500D01*
X3496899Y-347500D01*
X3492799Y-347500D01*
X3486599Y-345500D01*
X3484600Y-341399D01*
X3522600Y-296399D02*
G01*
X3526700Y-300500D01*
X3530799Y-306599D01*
X3534899Y-314800D01*
X3536999Y-325000D01*
X3536999Y-333200D01*
X3534899Y-343499D01*
X3530799Y-351599D01*
X3526700Y-357800D01*
X3522600Y-361900D01*
X3815699Y-921399D02*
G01*
X3811599Y-925500D01*
X3809600Y-931599D01*
X3809600Y-939800D01*
X3811599Y-945900D01*
X3815699Y-950000D01*
X3819799Y-950000D01*
X3823900Y-948000D01*
X3826000Y-945900D01*
X3828000Y-941799D01*
X3832100Y-929499D01*
X3834099Y-925500D01*
X3836199Y-923400D01*
X3840299Y-921399D01*
X3846400Y-921399D01*
X3850500Y-925500D01*
X3852500Y-931599D01*
X3852500Y-939800D01*
X3850500Y-945900D01*
X3846400Y-950000D01*
X3809600Y-907899D02*
G01*
X3852500Y-897600D01*
X3809600Y-887399D02*
G01*
X3852500Y-897600D01*
X3809600Y-887399D02*
G01*
X3852500Y-877199D01*
X3809600Y-866999D02*
G01*
X3852500Y-877199D01*
X3817799Y-853499D02*
G01*
X3815699Y-849400D01*
X3809600Y-843200D01*
X3852500Y-843200D01*
X3809600Y-817500D02*
G01*
X3811599Y-823600D01*
X3817799Y-827699D01*
X3828000Y-829699D01*
X3834099Y-829699D01*
X3844399Y-827699D01*
X3850500Y-823600D01*
X3852500Y-817500D01*
X3852500Y-813400D01*
X3850500Y-807199D01*
X3844399Y-803099D01*
X3834099Y-801100D01*
X3828000Y-801100D01*
X3817799Y-803099D01*
X3811599Y-807199D01*
X3809600Y-813400D01*
X3809600Y-817500D01*
X3801400Y-741799D02*
G01*
X3805500Y-745900D01*
X3811599Y-750000D01*
X3819799Y-754000D01*
X3830000Y-756100D01*
X3838199Y-756100D01*
X3848500Y-754000D01*
X3856599Y-750000D01*
X3862799Y-745900D01*
X3866899Y-741799D01*
X3809600Y-728299D02*
G01*
X3852500Y-728299D01*
X3809600Y-702500D02*
G01*
X3811599Y-706599D01*
X3815699Y-710700D01*
X3819799Y-712699D01*
X3826000Y-714800D01*
X3836199Y-714800D01*
X3842299Y-712699D01*
X3846400Y-710700D01*
X3850500Y-706599D01*
X3852500Y-702500D01*
X3852500Y-694299D01*
X3850500Y-690199D01*
X3846400Y-686100D01*
X3842299Y-684099D01*
X3836199Y-681999D01*
X3826000Y-681999D01*
X3819799Y-684099D01*
X3815699Y-686100D01*
X3811599Y-690199D01*
X3809600Y-694299D01*
X3809600Y-702500D01*
X3809600Y-648099D02*
G01*
X3838199Y-668499D01*
X3838199Y-637899D01*
X3809600Y-648099D02*
G01*
X3852500Y-648099D01*
X3801400Y-624400D02*
G01*
X3805500Y-620300D01*
X3811599Y-616199D01*
X3819799Y-612100D01*
X3830000Y-610000D01*
X3838199Y-610000D01*
X3848500Y-612100D01*
X3856599Y-616199D01*
X3862799Y-620300D01*
X3866899Y-624400D01*
X1905000Y-29600D02*
G01*
X1905000Y-60300D01*
X1906999Y-66399D01*
X1911099Y-70500D01*
X1917299Y-72500D01*
X1921400Y-72500D01*
X1927500Y-70500D01*
X1931599Y-66399D01*
X1933599Y-60300D01*
X1933599Y-29600D01*
X1975799Y-35700D02*
G01*
X1971700Y-31599D01*
X1965500Y-29600D01*
X1957399Y-29600D01*
X1951199Y-31599D01*
X1947100Y-35700D01*
X1947100Y-39800D01*
X1949200Y-43899D01*
X1951199Y-45999D01*
X1955299Y-48000D01*
X1967600Y-52100D01*
X1971700Y-54099D01*
X1973699Y-56199D01*
X1975799Y-60300D01*
X1975799Y-66399D01*
X1971700Y-70500D01*
X1965500Y-72500D01*
X1957399Y-72500D01*
X1951199Y-70500D01*
X1947100Y-66399D01*
X1989300Y-29600D02*
G01*
X1989300Y-72500D01*
X1989300Y-29600D02*
G01*
X2007700Y-29600D01*
X2013800Y-31599D01*
X2015900Y-33699D01*
X2017899Y-37800D01*
X2017899Y-41900D01*
X2015900Y-45999D01*
X2013800Y-48000D01*
X2007700Y-50000D01*
X1989300Y-50000D02*
G01*
X2007700Y-50000D01*
X2013800Y-52100D01*
X2015900Y-54099D01*
X2017899Y-58200D01*
X2017899Y-64400D01*
X2015900Y-68499D01*
X2013800Y-70500D01*
X2007700Y-72500D01*
X1989300Y-72500D01*
X2031400Y-37800D02*
G01*
X2035500Y-35700D01*
X2041599Y-29600D01*
X2041599Y-72500D01*
X3430000Y-824600D02*
G01*
X3430000Y-867500D01*
X3430000Y-824600D02*
G01*
X3448400Y-824600D01*
X3454499Y-826599D01*
X3456599Y-828699D01*
X3458599Y-832800D01*
X3458599Y-836900D01*
X3456599Y-840999D01*
X3454499Y-843000D01*
X3448400Y-845000D01*
X3430000Y-845000D01*
X3444300Y-845000D02*
G01*
X3458599Y-867500D01*
X3496700Y-830700D02*
G01*
X3494600Y-826599D01*
X3488500Y-824600D01*
X3484399Y-824600D01*
X3478299Y-826599D01*
X3474200Y-832800D01*
X3472100Y-843000D01*
X3472100Y-853200D01*
X3474200Y-861399D01*
X3478299Y-865500D01*
X3484399Y-867500D01*
X3486499Y-867500D01*
X3492600Y-865500D01*
X3496700Y-861399D01*
X3498699Y-855300D01*
X3498699Y-853200D01*
X3496700Y-847100D01*
X3492600Y-843000D01*
X3486499Y-840999D01*
X3484399Y-840999D01*
X3478299Y-843000D01*
X3474200Y-847100D01*
X3472100Y-853200D01*
X1334598Y-479996D02*
G01*
X1377498Y-479996D01*
X1334598Y-479996D02*
G01*
X1334598Y-461597D01*
X1336598Y-455497D01*
X1338698Y-453396D01*
X1342799Y-451397D01*
X1346899Y-451397D01*
X1350999Y-453396D01*
X1352998Y-455497D01*
X1354998Y-461597D01*
X1354998Y-479996D01*
X1354998Y-465697D02*
G01*
X1377498Y-451397D01*
X1334598Y-409196D02*
G01*
X1377498Y-429697D01*
X1334598Y-437896D02*
G01*
X1334598Y-409196D01*
X1264598Y-479996D02*
G01*
X1307498Y-479996D01*
X1264598Y-479996D02*
G01*
X1264598Y-461597D01*
X1266598Y-455497D01*
X1268698Y-453396D01*
X1272799Y-451397D01*
X1276899Y-451397D01*
X1280999Y-453396D01*
X1282998Y-455497D01*
X1284998Y-461597D01*
X1284998Y-479996D01*
X1284998Y-465697D02*
G01*
X1307498Y-451397D01*
X1264598Y-427597D02*
G01*
X1266598Y-433796D01*
X1270699Y-435796D01*
X1274799Y-435796D01*
X1278899Y-433796D01*
X1280999Y-429697D01*
X1282998Y-421496D01*
X1284998Y-415396D01*
X1289098Y-411296D01*
X1293199Y-409196D01*
X1299399Y-409196D01*
X1303499Y-411296D01*
X1305498Y-413296D01*
X1307498Y-419497D01*
X1307498Y-427597D01*
X1305498Y-433796D01*
X1303499Y-435796D01*
X1299399Y-437896D01*
X1293199Y-437896D01*
X1289098Y-435796D01*
X1284998Y-431696D01*
X1282998Y-425596D01*
X1280999Y-417397D01*
X1278899Y-413296D01*
X1274799Y-411296D01*
X1270699Y-411296D01*
X1266598Y-413296D01*
X1264598Y-419497D01*
X1264598Y-427597D01*
X1559560Y-770340D02*
G01*
X1602560Y-770340D01*
X1559560Y-770340D02*
G01*
X1559560Y-751939D01*
X1561660Y-745839D01*
X1563659Y-743739D01*
X1567759Y-741739D01*
X1571859Y-741739D01*
X1575959Y-743739D01*
X1577960Y-745839D01*
X1580060Y-751939D01*
X1580060Y-770340D01*
X1580060Y-756039D02*
G01*
X1602560Y-741739D01*
X1567759Y-728240D02*
G01*
X1565760Y-724140D01*
X1559560Y-717939D01*
X1602560Y-717939D01*
X1489560Y-770340D02*
G01*
X1532560Y-770340D01*
X1489560Y-770340D02*
G01*
X1489560Y-751939D01*
X1491660Y-745839D01*
X1493659Y-743739D01*
X1497759Y-741739D01*
X1501859Y-741739D01*
X1505959Y-743739D01*
X1507960Y-745839D01*
X1510060Y-751939D01*
X1510060Y-770340D01*
X1510060Y-756039D02*
G01*
X1532560Y-741739D01*
X1499859Y-726140D02*
G01*
X1497759Y-726140D01*
X1493659Y-724140D01*
X1491660Y-722040D01*
X1489560Y-717939D01*
X1489560Y-709839D01*
X1491660Y-705740D01*
X1493659Y-703640D01*
X1497759Y-701640D01*
X1501859Y-701640D01*
X1505959Y-703640D01*
X1512060Y-707739D01*
X1532560Y-728240D01*
X1532560Y-699540D01*
X1419560Y-770340D02*
G01*
X1462560Y-770340D01*
X1419560Y-770340D02*
G01*
X1419560Y-751939D01*
X1421660Y-745839D01*
X1423659Y-743739D01*
X1427759Y-741739D01*
X1431859Y-741739D01*
X1435959Y-743739D01*
X1437960Y-745839D01*
X1440060Y-751939D01*
X1440060Y-770340D01*
X1440060Y-756039D02*
G01*
X1462560Y-741739D01*
X1419560Y-724140D02*
G01*
X1419560Y-701640D01*
X1435959Y-713840D01*
X1435959Y-707739D01*
X1437960Y-703640D01*
X1440060Y-701640D01*
X1446159Y-699540D01*
X1450259Y-699540D01*
X1456360Y-701640D01*
X1460460Y-705740D01*
X1462560Y-711840D01*
X1462560Y-717939D01*
X1460460Y-724140D01*
X1458459Y-726140D01*
X1454359Y-728240D01*
X1761819Y-771480D02*
G01*
X1804719Y-771480D01*
X1761819Y-771480D02*
G01*
X1761819Y-753079D01*
X1763819Y-746979D01*
X1765919Y-744879D01*
X1770020Y-742880D01*
X1774020Y-742880D01*
X1778119Y-744879D01*
X1780219Y-746979D01*
X1782219Y-753079D01*
X1782219Y-771480D01*
X1782219Y-757179D02*
G01*
X1804719Y-742880D01*
X1761819Y-708879D02*
G01*
X1790420Y-729380D01*
X1790420Y-698679D01*
X1761819Y-708879D02*
G01*
X1804719Y-708879D01*
X1629560Y-770340D02*
G01*
X1672560Y-770340D01*
X1629560Y-770340D02*
G01*
X1629560Y-751939D01*
X1631660Y-745839D01*
X1633659Y-743739D01*
X1637759Y-741739D01*
X1641859Y-741739D01*
X1645959Y-743739D01*
X1647960Y-745839D01*
X1650060Y-751939D01*
X1650060Y-770340D01*
X1650060Y-756039D02*
G01*
X1672560Y-741739D01*
X1629560Y-703640D02*
G01*
X1629560Y-724140D01*
X1647960Y-726140D01*
X1645959Y-724140D01*
X1643860Y-717939D01*
X1643860Y-711840D01*
X1645959Y-705740D01*
X1650060Y-701640D01*
X1656159Y-699540D01*
X1660259Y-699540D01*
X1666360Y-701640D01*
X1670460Y-705740D01*
X1672560Y-711840D01*
X1672560Y-717939D01*
X1670460Y-724140D01*
X1668459Y-726140D01*
X1664359Y-728240D01*
X1490699Y-29800D02*
G01*
X1488599Y-25700D01*
X1484499Y-21599D01*
X1480500Y-19600D01*
X1472299Y-19600D01*
X1468199Y-21599D01*
X1464099Y-25700D01*
X1461999Y-29800D01*
X1460000Y-35999D01*
X1460000Y-46199D01*
X1461999Y-52300D01*
X1464099Y-56399D01*
X1468199Y-60500D01*
X1472299Y-62500D01*
X1480500Y-62500D01*
X1484499Y-60500D01*
X1488599Y-56399D01*
X1490699Y-52300D01*
X1504200Y-27800D02*
G01*
X1508299Y-25700D01*
X1514399Y-19600D01*
X1514399Y-62500D01*
X1600699Y-159800D02*
G01*
X1598599Y-155700D01*
X1594499Y-151599D01*
X1590500Y-149600D01*
X1582299Y-149600D01*
X1578199Y-151599D01*
X1574099Y-155700D01*
X1571999Y-159800D01*
X1570000Y-165999D01*
X1570000Y-176199D01*
X1571999Y-182300D01*
X1574099Y-186399D01*
X1578199Y-190500D01*
X1582299Y-192500D01*
X1590500Y-192500D01*
X1594499Y-190500D01*
X1598599Y-186399D01*
X1600699Y-182300D01*
X1616199Y-159800D02*
G01*
X1616199Y-157800D01*
X1618299Y-153699D01*
X1620299Y-151599D01*
X1624399Y-149600D01*
X1632600Y-149600D01*
X1636700Y-151599D01*
X1638699Y-153699D01*
X1640799Y-157800D01*
X1640799Y-161900D01*
X1638699Y-165999D01*
X1634600Y-172100D01*
X1614200Y-192500D01*
X1642799Y-192500D01*
X1704799Y-720760D02*
G01*
X1700699Y-722860D01*
X1696599Y-726959D01*
X1694600Y-730960D01*
X1694600Y-739160D01*
X1696599Y-743260D01*
X1700699Y-747359D01*
X1704799Y-749459D01*
X1711000Y-751460D01*
X1721199Y-751460D01*
X1727299Y-749459D01*
X1731400Y-747359D01*
X1735500Y-743260D01*
X1737500Y-739160D01*
X1737500Y-730960D01*
X1735500Y-726959D01*
X1731400Y-722860D01*
X1727299Y-720760D01*
X1694600Y-703159D02*
G01*
X1694600Y-680659D01*
X1711000Y-692959D01*
X1711000Y-686860D01*
X1713000Y-682759D01*
X1715000Y-680659D01*
X1721199Y-678659D01*
X1725299Y-678659D01*
X1731400Y-680659D01*
X1735500Y-684760D01*
X1737500Y-690960D01*
X1737500Y-697060D01*
X1735500Y-703159D01*
X1733500Y-705259D01*
X1729399Y-707260D01*
X1970699Y-254800D02*
G01*
X1968599Y-250700D01*
X1964499Y-246599D01*
X1960500Y-244600D01*
X1952299Y-244600D01*
X1948199Y-246599D01*
X1944099Y-250700D01*
X1941999Y-254800D01*
X1940000Y-260999D01*
X1940000Y-271199D01*
X1941999Y-277300D01*
X1944099Y-281399D01*
X1948199Y-285500D01*
X1952299Y-287500D01*
X1960500Y-287500D01*
X1964499Y-285500D01*
X1968599Y-281399D01*
X1970699Y-277300D01*
X2004600Y-244600D02*
G01*
X1984200Y-273200D01*
X2014899Y-273200D01*
X2004600Y-244600D02*
G01*
X2004600Y-287500D01*
X2165699Y-254800D02*
G01*
X2163599Y-250700D01*
X2159499Y-246599D01*
X2155500Y-244600D01*
X2147299Y-244600D01*
X2143199Y-246599D01*
X2139099Y-250700D01*
X2136999Y-254800D01*
X2135000Y-260999D01*
X2135000Y-271199D01*
X2136999Y-277300D01*
X2139099Y-281399D01*
X2143199Y-285500D01*
X2147299Y-287500D01*
X2155500Y-287500D01*
X2159499Y-285500D01*
X2163599Y-281399D01*
X2165699Y-277300D01*
X2203699Y-244600D02*
G01*
X2183299Y-244600D01*
X2181199Y-263000D01*
X2183299Y-260999D01*
X2189399Y-258899D01*
X2195500Y-258899D01*
X2201700Y-260999D01*
X2205799Y-265000D01*
X2207799Y-271199D01*
X2207799Y-275300D01*
X2205799Y-281399D01*
X2201700Y-285500D01*
X2195500Y-287500D01*
X2189399Y-287500D01*
X2183299Y-285500D01*
X2181199Y-283499D01*
X2179200Y-279400D01*
X436037Y-1746568D02*
G01*
X431936Y-1742469D01*
X425837Y-1740468D01*
X417636Y-1740468D01*
X411536Y-1742469D01*
X407436Y-1746568D01*
X407436Y-1750668D01*
X409436Y-1754769D01*
X411536Y-1756869D01*
X415637Y-1758868D01*
X427937Y-1762968D01*
X431936Y-1764969D01*
X434036Y-1767069D01*
X436037Y-1771168D01*
X436037Y-1777269D01*
X431936Y-1781368D01*
X425837Y-1783368D01*
X417636Y-1783368D01*
X411536Y-1781368D01*
X407436Y-1777269D01*
X449537Y-1740468D02*
G01*
X459837Y-1783368D01*
X470037Y-1740468D02*
G01*
X459837Y-1783368D01*
X470037Y-1740468D02*
G01*
X480237Y-1783368D01*
X490437Y-1740468D02*
G01*
X480237Y-1783368D01*
X503937Y-1748668D02*
G01*
X508036Y-1746568D01*
X514236Y-1740468D01*
X514236Y-1783368D01*
X1184068Y-1746568D02*
G01*
X1179969Y-1742469D01*
X1173869Y-1740468D01*
X1165668Y-1740468D01*
X1159569Y-1742469D01*
X1155469Y-1746568D01*
X1155469Y-1750668D01*
X1157469Y-1754769D01*
X1159569Y-1756869D01*
X1163668Y-1758868D01*
X1175968Y-1762968D01*
X1179969Y-1764969D01*
X1182069Y-1767069D01*
X1184068Y-1771168D01*
X1184068Y-1777269D01*
X1179969Y-1781368D01*
X1173869Y-1783368D01*
X1165668Y-1783368D01*
X1159569Y-1781368D01*
X1155469Y-1777269D01*
X1197569Y-1740468D02*
G01*
X1207869Y-1783368D01*
X1218068Y-1740468D02*
G01*
X1207869Y-1783368D01*
X1218068Y-1740468D02*
G01*
X1228269Y-1783368D01*
X1238468Y-1740468D02*
G01*
X1228269Y-1783368D01*
X1254068Y-1750668D02*
G01*
X1254068Y-1748668D01*
X1256068Y-1744569D01*
X1258168Y-1742469D01*
X1262268Y-1740468D01*
X1270469Y-1740468D01*
X1274468Y-1742469D01*
X1276568Y-1744569D01*
X1278568Y-1748668D01*
X1278568Y-1752768D01*
X1276568Y-1756869D01*
X1272469Y-1762968D01*
X1251968Y-1783368D01*
X1280668Y-1783368D01*
X1932100Y-1746568D02*
G01*
X1928000Y-1742469D01*
X1921899Y-1740468D01*
X1913699Y-1740468D01*
X1907600Y-1742469D01*
X1903500Y-1746568D01*
X1903500Y-1750668D01*
X1905500Y-1754769D01*
X1907600Y-1756869D01*
X1911700Y-1758868D01*
X1923999Y-1762968D01*
X1928000Y-1764969D01*
X1930100Y-1767069D01*
X1932100Y-1771168D01*
X1932100Y-1777269D01*
X1928000Y-1781368D01*
X1921899Y-1783368D01*
X1913699Y-1783368D01*
X1907600Y-1781368D01*
X1903500Y-1777269D01*
X1945600Y-1740468D02*
G01*
X1955900Y-1783368D01*
X1966099Y-1740468D02*
G01*
X1955900Y-1783368D01*
X1966099Y-1740468D02*
G01*
X1976300Y-1783368D01*
X1986499Y-1740468D02*
G01*
X1976300Y-1783368D01*
X2004099Y-1740468D02*
G01*
X2026599Y-1740468D01*
X2014399Y-1756869D01*
X2020500Y-1756869D01*
X2024600Y-1758868D01*
X2026599Y-1760868D01*
X2028699Y-1767069D01*
X2028699Y-1771168D01*
X2026599Y-1777269D01*
X2022500Y-1781368D01*
X2016400Y-1783368D01*
X2010299Y-1783368D01*
X2004099Y-1781368D01*
X2002100Y-1779369D01*
X2000000Y-1775268D01*
X2680132Y-1746568D02*
G01*
X2676031Y-1742469D01*
X2669931Y-1740468D01*
X2661732Y-1740468D01*
X2655631Y-1742469D01*
X2651531Y-1746568D01*
X2651531Y-1750668D01*
X2653531Y-1754769D01*
X2655631Y-1756869D01*
X2659732Y-1758868D01*
X2672031Y-1762968D01*
X2676031Y-1764969D01*
X2678131Y-1767069D01*
X2680132Y-1771168D01*
X2680132Y-1777269D01*
X2676031Y-1781368D01*
X2669931Y-1783368D01*
X2661732Y-1783368D01*
X2655631Y-1781368D01*
X2651531Y-1777269D01*
X2693631Y-1740468D02*
G01*
X2703932Y-1783368D01*
X2714131Y-1740468D02*
G01*
X2703932Y-1783368D01*
X2714131Y-1740468D02*
G01*
X2724332Y-1783368D01*
X2734531Y-1740468D02*
G01*
X2724332Y-1783368D01*
X2768531Y-1740468D02*
G01*
X2748032Y-1769068D01*
X2778732Y-1769068D01*
X2768531Y-1740468D02*
G01*
X2768531Y-1783368D01*
X3428163Y-1746568D02*
G01*
X3424062Y-1742469D01*
X3417962Y-1740468D01*
X3409763Y-1740468D01*
X3403662Y-1742469D01*
X3399562Y-1746568D01*
X3399562Y-1750668D01*
X3401562Y-1754769D01*
X3403662Y-1756869D01*
X3407763Y-1758868D01*
X3420063Y-1762968D01*
X3424062Y-1764969D01*
X3426162Y-1767069D01*
X3428163Y-1771168D01*
X3428163Y-1777269D01*
X3424062Y-1781368D01*
X3417962Y-1783368D01*
X3409763Y-1783368D01*
X3403662Y-1781368D01*
X3399562Y-1777269D01*
X3441662Y-1740468D02*
G01*
X3451962Y-1783368D01*
X3462163Y-1740468D02*
G01*
X3451962Y-1783368D01*
X3462163Y-1740468D02*
G01*
X3472362Y-1783368D01*
X3482563Y-1740468D02*
G01*
X3472362Y-1783368D01*
X3520663Y-1740468D02*
G01*
X3500163Y-1740468D01*
X3498163Y-1758868D01*
X3500163Y-1756869D01*
X3506363Y-1754769D01*
X3512462Y-1754769D01*
X3518563Y-1756869D01*
X3522663Y-1760868D01*
X3524763Y-1767069D01*
X3524763Y-1771168D01*
X3522663Y-1777269D01*
X3518563Y-1781368D01*
X3512462Y-1783368D01*
X3506363Y-1783368D01*
X3500163Y-1781368D01*
X3498163Y-1779369D01*
X3496063Y-1775268D01*
X436037Y-2494600D02*
G01*
X431936Y-2490500D01*
X425837Y-2488499D01*
X417636Y-2488499D01*
X411536Y-2490500D01*
X407436Y-2494600D01*
X407436Y-2498699D01*
X409436Y-2502800D01*
X411536Y-2504899D01*
X415637Y-2506900D01*
X427937Y-2510999D01*
X431936Y-2513000D01*
X434036Y-2515100D01*
X436037Y-2519200D01*
X436037Y-2525300D01*
X431936Y-2529400D01*
X425837Y-2531399D01*
X417636Y-2531399D01*
X411536Y-2529400D01*
X407436Y-2525300D01*
X449537Y-2488499D02*
G01*
X459837Y-2531399D01*
X470037Y-2488499D02*
G01*
X459837Y-2531399D01*
X470037Y-2488499D02*
G01*
X480237Y-2531399D01*
X490437Y-2488499D02*
G01*
X480237Y-2531399D01*
X528537Y-2494600D02*
G01*
X526437Y-2490500D01*
X520336Y-2488499D01*
X516237Y-2488499D01*
X510136Y-2490500D01*
X506037Y-2496700D01*
X503937Y-2506900D01*
X503937Y-2517100D01*
X506037Y-2525300D01*
X510136Y-2529400D01*
X516237Y-2531399D01*
X518337Y-2531399D01*
X524436Y-2529400D01*
X528537Y-2525300D01*
X530536Y-2519200D01*
X530536Y-2517100D01*
X528537Y-2510999D01*
X524436Y-2506900D01*
X518337Y-2504899D01*
X516237Y-2504899D01*
X510136Y-2506900D01*
X506037Y-2510999D01*
X503937Y-2517100D01*
X1184068Y-2494600D02*
G01*
X1179969Y-2490500D01*
X1173869Y-2488499D01*
X1165668Y-2488499D01*
X1159569Y-2490500D01*
X1155469Y-2494600D01*
X1155469Y-2498699D01*
X1157469Y-2502800D01*
X1159569Y-2504899D01*
X1163668Y-2506900D01*
X1175968Y-2510999D01*
X1179969Y-2513000D01*
X1182069Y-2515100D01*
X1184068Y-2519200D01*
X1184068Y-2525300D01*
X1179969Y-2529400D01*
X1173869Y-2531399D01*
X1165668Y-2531399D01*
X1159569Y-2529400D01*
X1155469Y-2525300D01*
X1197569Y-2488499D02*
G01*
X1207869Y-2531399D01*
X1218068Y-2488499D02*
G01*
X1207869Y-2531399D01*
X1218068Y-2488499D02*
G01*
X1228269Y-2531399D01*
X1238468Y-2488499D02*
G01*
X1228269Y-2531399D01*
X1280668Y-2488499D02*
G01*
X1260168Y-2531399D01*
X1251968Y-2488499D02*
G01*
X1280668Y-2488499D01*
X1932100Y-2494600D02*
G01*
X1928000Y-2490500D01*
X1921899Y-2488499D01*
X1913699Y-2488499D01*
X1907600Y-2490500D01*
X1903500Y-2494600D01*
X1903500Y-2498699D01*
X1905500Y-2502800D01*
X1907600Y-2504899D01*
X1911700Y-2506900D01*
X1923999Y-2510999D01*
X1928000Y-2513000D01*
X1930100Y-2515100D01*
X1932100Y-2519200D01*
X1932100Y-2525300D01*
X1928000Y-2529400D01*
X1921899Y-2531399D01*
X1913699Y-2531399D01*
X1907600Y-2529400D01*
X1903500Y-2525300D01*
X1945600Y-2488499D02*
G01*
X1955900Y-2531399D01*
X1966099Y-2488499D02*
G01*
X1955900Y-2531399D01*
X1966099Y-2488499D02*
G01*
X1976300Y-2531399D01*
X1986499Y-2488499D02*
G01*
X1976300Y-2531399D01*
X2010299Y-2488499D02*
G01*
X2004099Y-2490500D01*
X2002100Y-2494600D01*
X2002100Y-2498699D01*
X2004099Y-2502800D01*
X2008199Y-2504899D01*
X2016400Y-2506900D01*
X2022500Y-2508899D01*
X2026599Y-2513000D01*
X2028699Y-2517100D01*
X2028699Y-2523299D01*
X2026599Y-2527399D01*
X2024600Y-2529400D01*
X2018500Y-2531399D01*
X2010299Y-2531399D01*
X2004099Y-2529400D01*
X2002100Y-2527399D01*
X2000000Y-2523299D01*
X2000000Y-2517100D01*
X2002100Y-2513000D01*
X2006199Y-2508899D01*
X2012299Y-2506900D01*
X2020500Y-2504899D01*
X2024600Y-2502800D01*
X2026599Y-2498699D01*
X2026599Y-2494600D01*
X2024600Y-2490500D01*
X2018500Y-2488499D01*
X2010299Y-2488499D01*
X2680132Y-2494600D02*
G01*
X2676031Y-2490500D01*
X2669931Y-2488499D01*
X2661732Y-2488499D01*
X2655631Y-2490500D01*
X2651531Y-2494600D01*
X2651531Y-2498699D01*
X2653531Y-2502800D01*
X2655631Y-2504899D01*
X2659732Y-2506900D01*
X2672031Y-2510999D01*
X2676031Y-2513000D01*
X2678131Y-2515100D01*
X2680132Y-2519200D01*
X2680132Y-2525300D01*
X2676031Y-2529400D01*
X2669931Y-2531399D01*
X2661732Y-2531399D01*
X2655631Y-2529400D01*
X2651531Y-2525300D01*
X2693631Y-2488499D02*
G01*
X2703932Y-2531399D01*
X2714131Y-2488499D02*
G01*
X2703932Y-2531399D01*
X2714131Y-2488499D02*
G01*
X2724332Y-2531399D01*
X2734531Y-2488499D02*
G01*
X2724332Y-2531399D01*
X2774632Y-2502800D02*
G01*
X2772632Y-2508899D01*
X2768531Y-2513000D01*
X2762431Y-2515100D01*
X2760331Y-2515100D01*
X2754232Y-2513000D01*
X2750132Y-2508899D01*
X2748032Y-2502800D01*
X2748032Y-2500799D01*
X2750132Y-2494600D01*
X2754232Y-2490500D01*
X2760331Y-2488499D01*
X2762431Y-2488499D01*
X2768531Y-2490500D01*
X2772632Y-2494600D01*
X2774632Y-2502800D01*
X2774632Y-2513000D01*
X2772632Y-2523299D01*
X2768531Y-2529400D01*
X2762431Y-2531399D01*
X2758332Y-2531399D01*
X2752132Y-2529400D01*
X2750132Y-2525300D01*
X3428163Y-2494600D02*
G01*
X3424062Y-2490500D01*
X3417962Y-2488499D01*
X3409763Y-2488499D01*
X3403662Y-2490500D01*
X3399562Y-2494600D01*
X3399562Y-2498699D01*
X3401562Y-2502800D01*
X3403662Y-2504899D01*
X3407763Y-2506900D01*
X3420063Y-2510999D01*
X3424062Y-2513000D01*
X3426162Y-2515100D01*
X3428163Y-2519200D01*
X3428163Y-2525300D01*
X3424062Y-2529400D01*
X3417962Y-2531399D01*
X3409763Y-2531399D01*
X3403662Y-2529400D01*
X3399562Y-2525300D01*
X3441662Y-2488499D02*
G01*
X3451962Y-2531399D01*
X3462163Y-2488499D02*
G01*
X3451962Y-2531399D01*
X3462163Y-2488499D02*
G01*
X3472362Y-2531399D01*
X3482563Y-2488499D02*
G01*
X3472362Y-2531399D01*
X3496063Y-2496700D02*
G01*
X3500163Y-2494600D01*
X3506363Y-2488499D01*
X3506363Y-2531399D01*
X3532062Y-2488499D02*
G01*
X3525963Y-2490500D01*
X3521863Y-2496700D01*
X3519862Y-2506900D01*
X3519862Y-2513000D01*
X3521863Y-2523299D01*
X3525963Y-2529400D01*
X3532062Y-2531399D01*
X3536162Y-2531399D01*
X3542362Y-2529400D01*
X3546463Y-2523299D01*
X3548463Y-2513000D01*
X3548463Y-2506900D01*
X3546463Y-2496700D01*
X3542362Y-2490500D01*
X3536162Y-2488499D01*
X3532062Y-2488499D01*
X449980Y-144459D02*
G01*
X449980Y-175160D01*
X451979Y-181260D01*
X456080Y-185360D01*
X462280Y-187359D01*
X466379Y-187359D01*
X472480Y-185360D01*
X476579Y-181260D01*
X478580Y-175160D01*
X478580Y-144459D01*
X492080Y-152660D02*
G01*
X496179Y-150560D01*
X502379Y-144459D01*
X502379Y-187359D01*
D37*
X681779Y-555066D02*
G01*
X681779Y-631365D01*
X681779Y-555066D02*
G01*
X728980Y-555066D01*
X681779Y-591365D02*
G01*
X710779Y-591365D01*
X681779Y-631365D02*
G01*
X728980Y-631365D01*
X803879Y-565965D02*
G01*
X796679Y-558665D01*
X785780Y-555066D01*
X771180Y-555066D01*
X760280Y-558665D01*
X752979Y-565965D01*
X752979Y-573166D01*
X756680Y-580466D01*
X760280Y-584065D01*
X767579Y-587766D01*
X789380Y-595066D01*
X796679Y-598665D01*
X800280Y-602265D01*
X803879Y-609565D01*
X803879Y-620466D01*
X796679Y-627766D01*
X785780Y-631365D01*
X771180Y-631365D01*
X760280Y-627766D01*
X752979Y-620466D01*
X827879Y-555066D02*
G01*
X827879Y-631365D01*
X827879Y-555066D02*
G01*
X860680Y-555066D01*
X871580Y-558665D01*
X875180Y-562265D01*
X878779Y-569565D01*
X878779Y-580466D01*
X875180Y-587766D01*
X871580Y-591365D01*
X860680Y-595066D01*
X827879Y-595066D01*
X902780Y-569565D02*
G01*
X910079Y-565965D01*
X920979Y-555066D01*
X920979Y-631365D01*
X948680Y-573166D02*
G01*
X948680Y-569565D01*
X952280Y-562265D01*
X955879Y-558665D01*
X963180Y-555066D01*
X977780Y-555066D01*
X984979Y-558665D01*
X988680Y-562265D01*
X992280Y-569565D01*
X992280Y-576866D01*
X988680Y-584065D01*
X981379Y-595066D01*
X944979Y-631365D01*
X995879Y-631365D01*
X1019880Y-555066D02*
G01*
X1019880Y-631365D01*
X1019880Y-555066D02*
G01*
X1067179Y-555066D01*
X1019880Y-591365D02*
G01*
X1048980Y-591365D01*
D39*
X1705000Y-19600D02*
G01*
X1705000Y-62500D01*
X1705000Y-19600D02*
G01*
X1731599Y-19600D01*
X1705000Y-40000D02*
G01*
X1721400Y-40000D01*
X1745100Y-27800D02*
G01*
X1749200Y-25700D01*
X1755299Y-19600D01*
X1755299Y-62500D01*
X1935000Y-734600D02*
G01*
X1935000Y-765300D01*
X1936999Y-771399D01*
X1941099Y-775500D01*
X1947299Y-777500D01*
X1951400Y-777500D01*
X1957500Y-775500D01*
X1961599Y-771399D01*
X1963599Y-765300D01*
X1963599Y-734600D01*
X1979200Y-744800D02*
G01*
X1979200Y-742800D01*
X1981199Y-738699D01*
X1983299Y-736599D01*
X1987399Y-734600D01*
X1995500Y-734600D01*
X1999600Y-736599D01*
X2001700Y-738699D01*
X2003699Y-742800D01*
X2003699Y-746900D01*
X2001700Y-750999D01*
X1997600Y-757100D01*
X1977100Y-777500D01*
X2005799Y-777500D01*
X1460000Y-499600D02*
G01*
X1460000Y-530300D01*
X1461999Y-536399D01*
X1466099Y-540500D01*
X1472299Y-542500D01*
X1476400Y-542500D01*
X1482500Y-540500D01*
X1486599Y-536399D01*
X1488599Y-530300D01*
X1488599Y-499600D01*
X1506199Y-499600D02*
G01*
X1528699Y-499600D01*
X1516499Y-515999D01*
X1522600Y-515999D01*
X1526700Y-518000D01*
X1528699Y-520000D01*
X1530799Y-526199D01*
X1530799Y-530300D01*
X1528699Y-536399D01*
X1524600Y-540500D01*
X1518500Y-542500D01*
X1512399Y-542500D01*
X1506199Y-540500D01*
X1504200Y-538499D01*
X1502100Y-534400D01*
G36*
X855000Y-990000D02*
G01*
X825000Y-1020000D01*
X885000Y-1020000D01*
G37*
G36*
X1521519Y-251600D02*
G01*
X1521519Y-269600D01*
X1527500Y-269600D01*
X1527500Y-251600D01*
G37*
G36*
X1452500Y-251600D02*
G01*
X1452500Y-269600D01*
X1458480Y-269600D01*
X1458480Y-251600D01*
G37*
D37*
X3880000Y-570000D02*
G01*
X3780000Y-570000D01*
X3780000Y-470000D01*
X3880000Y-470000D01*
X3880000Y-545000D01*
D38*
X3880000Y-570000D02*
G01*
X3880000Y-545000D01*
D10*
X1861683Y-204070D02*
G01*
X1907322Y-204070D01*
X2110747Y32557D02*
G01*
X1829251Y32557D01*
X2032677Y-204070D02*
G01*
X2078316Y-204070D01*
X2110747Y32557D02*
G01*
X2110747Y-7554D01*
X2110747Y-96619D02*
G01*
X2110747Y-143380D01*
X1829251Y32557D02*
G01*
X1829251Y-7554D01*
X1829251Y-96619D02*
G01*
X1829251Y-143380D01*
X141999Y-924843D02*
G01*
X-82409Y-924843D01*
X141999Y-924843D02*
G01*
X141999Y-781900D01*
X141999Y-305156D01*
X-82409Y-924843D02*
G01*
X-82409Y-305156D01*
X160466Y-865000D02*
G01*
X141999Y-865000D01*
X160466Y-765000D02*
G01*
X141999Y-765000D01*
X160466Y-665000D02*
G01*
X141999Y-665000D01*
X160466Y-565000D02*
G01*
X141999Y-565000D01*
X160466Y-465000D02*
G01*
X141999Y-465000D01*
X205000Y-365000D02*
G01*
X141999Y-365000D01*
X141999Y-305156D02*
G01*
X-82409Y-305156D01*
X3266589Y-472199D02*
G01*
X3266589Y-622633D01*
X3656589Y-622633D02*
G01*
X3656589Y-472199D01*
X3266589Y-472199D01*
X3602523Y-967199D02*
G01*
X3656589Y-967199D01*
X3656589Y-756174D01*
X3504098Y-967199D02*
G01*
X3517507Y-967199D01*
X3405672Y-967199D02*
G01*
X3419083Y-967199D01*
X3266589Y-756174D02*
G01*
X3266589Y-967199D01*
X3320658Y-967199D01*
D39*
X1381008Y-318220D02*
G01*
X1381008Y-280468D01*
X1328991Y-280468D01*
X1328991Y-318220D01*
X1381008Y-351779D02*
G01*
X1381008Y-389531D01*
X1328991Y-389531D01*
X1328991Y-351779D01*
X1258991Y-351779D02*
G01*
X1258991Y-389531D01*
X1311008Y-389531D01*
X1311008Y-351779D01*
X1258991Y-318220D02*
G01*
X1258991Y-280468D01*
X1311008Y-280468D01*
X1311008Y-318220D01*
X1606008Y-608220D02*
G01*
X1606008Y-570468D01*
X1553991Y-570468D01*
X1553991Y-608220D01*
X1606008Y-641779D02*
G01*
X1606008Y-679531D01*
X1553991Y-679531D01*
X1553991Y-641779D01*
X1536008Y-608220D02*
G01*
X1536008Y-570468D01*
X1483991Y-570468D01*
X1483991Y-608220D01*
X1536008Y-641779D02*
G01*
X1536008Y-679531D01*
X1483991Y-679531D01*
X1483991Y-641779D01*
X1466008Y-608220D02*
G01*
X1466008Y-570468D01*
X1413991Y-570468D01*
X1413991Y-608220D01*
X1466008Y-641779D02*
G01*
X1466008Y-679531D01*
X1413991Y-679531D01*
X1413991Y-641779D01*
X1806008Y-608519D02*
G01*
X1806008Y-570769D01*
X1753991Y-570769D01*
X1753991Y-608519D01*
X1806008Y-642080D02*
G01*
X1806008Y-679830D01*
X1753991Y-679830D01*
X1753991Y-642080D01*
X1623991Y-641779D02*
G01*
X1623991Y-679531D01*
X1676008Y-679531D01*
X1676008Y-641779D01*
X1623991Y-608220D02*
G01*
X1623991Y-570468D01*
X1676008Y-570468D01*
X1676008Y-608220D01*
X1524497Y-122618D02*
G01*
X1524497Y-254600D01*
X1455502Y-122618D02*
G01*
X1455502Y-254600D01*
X1524497Y-212402D02*
G01*
X1455502Y-212402D01*
X1564988Y-256089D02*
G01*
X1596094Y-256089D01*
X1596094Y-216829D02*
G01*
X1564988Y-216829D01*
X1558987Y-222829D02*
G01*
X1558987Y-250090D01*
X1645011Y-256089D02*
G01*
X1613905Y-256089D01*
X1613905Y-216829D02*
G01*
X1645011Y-216829D01*
X1651012Y-222829D02*
G01*
X1651012Y-250090D01*
X1695370Y-574987D02*
G01*
X1695370Y-606093D01*
X1734629Y-606093D02*
G01*
X1734629Y-574987D01*
X1728630Y-568987D02*
G01*
X1701369Y-568987D01*
X1695370Y-655012D02*
G01*
X1695370Y-623906D01*
X1734629Y-623906D02*
G01*
X1734629Y-655012D01*
X1728630Y-661012D02*
G01*
X1701369Y-661012D01*
X1839988Y-284630D02*
G01*
X1871094Y-284630D01*
X1871094Y-245369D02*
G01*
X1839988Y-245369D01*
X1833987Y-251370D02*
G01*
X1833987Y-278629D01*
X1920011Y-284630D02*
G01*
X1888905Y-284630D01*
X1888905Y-245369D02*
G01*
X1920011Y-245369D01*
X1926012Y-251370D02*
G01*
X1926012Y-278629D01*
X2036448Y-284630D02*
G01*
X2067554Y-284630D01*
X2067554Y-245369D02*
G01*
X2036448Y-245369D01*
X2030447Y-251370D02*
G01*
X2030447Y-278629D01*
X2116472Y-284630D02*
G01*
X2085366Y-284630D01*
X2085366Y-245369D02*
G01*
X2116472Y-245369D01*
X2122471Y-251370D02*
G01*
X2122471Y-278629D01*
D10*
X190947Y-1183269D02*
G01*
X753937Y-1183269D01*
X753937Y-1808859D01*
X190947Y-1808859D01*
X190947Y-1183269D01*
X938978Y-1183269D02*
G01*
X1501968Y-1183269D01*
X1501968Y-1808859D01*
X938978Y-1808859D01*
X938978Y-1183269D01*
X1687010Y-1183269D02*
G01*
X2250000Y-1183269D01*
X2250000Y-1808859D01*
X1687010Y-1808859D01*
X1687010Y-1183269D01*
X2435042Y-1183269D02*
G01*
X2998032Y-1183269D01*
X2998032Y-1808859D01*
X2435042Y-1808859D01*
X2435042Y-1183269D01*
X3183073Y-1183269D02*
G01*
X3746063Y-1183269D01*
X3746063Y-1808859D01*
X3183073Y-1808859D01*
X3183073Y-1183269D01*
X190947Y-1931300D02*
G01*
X753937Y-1931300D01*
X753937Y-2556889D01*
X190947Y-2556889D01*
X190947Y-1931300D01*
X938978Y-1931300D02*
G01*
X1501968Y-1931300D01*
X1501968Y-2556889D01*
X938978Y-2556889D01*
X938978Y-1931300D01*
X1687010Y-1931300D02*
G01*
X2250000Y-1931300D01*
X2250000Y-2556889D01*
X1687010Y-2556889D01*
X1687010Y-1931300D01*
X2435042Y-1931300D02*
G01*
X2998032Y-1931300D01*
X2998032Y-2556889D01*
X2435042Y-2556889D01*
X2435042Y-1931300D01*
X3183073Y-1931300D02*
G01*
X3746063Y-1931300D01*
X3746063Y-2556889D01*
X3183073Y-2556889D01*
X3183073Y-1931300D01*
X618719Y-354535D02*
G01*
X618719Y-866345D01*
X1091159Y-866345D01*
X1091159Y-354535D01*
X618719Y-354535D01*
X1051790Y-236426D02*
G01*
X658090Y-236426D01*
X658090Y-39576D01*
X697460Y-39576D01*
X697460Y-157685D01*
X736829Y-157685D01*
X736829Y-39576D01*
X776199Y-39576D01*
X776199Y-157685D01*
X815569Y-157685D01*
X815569Y-39576D01*
X854939Y-39576D01*
X854939Y-157685D01*
X894309Y-157685D01*
X894309Y-39576D01*
X1130529Y-39576D01*
X579349Y-275796D02*
G01*
X1130529Y-275796D01*
X539980Y-205D02*
G01*
X1169899Y-205D01*
X1169899Y-205D02*
G01*
X1169899Y-306069D01*
X1169899Y-363640D02*
G01*
X1169899Y-384810D01*
X1169899Y-442379D02*
G01*
X1169899Y-463550D01*
X1169899Y-521120D02*
G01*
X1169899Y-542289D01*
X1169899Y-599859D02*
G01*
X1169899Y-621030D01*
X1169899Y-678600D02*
G01*
X1169899Y-699771D01*
X1169899Y-757341D02*
G01*
X1169899Y-778510D01*
X1169899Y-836080D02*
G01*
X1169899Y-857251D01*
X1169899Y-914821D02*
G01*
X1169899Y-945086D01*
X1169899Y-945086D02*
G01*
X1080510Y-945086D01*
X1022939Y-945086D02*
G01*
X1001769Y-945086D01*
X944200Y-945086D02*
G01*
X923059Y-945086D01*
X865489Y-945086D02*
G01*
X844290Y-945086D01*
X786719Y-945086D02*
G01*
X765600Y-945086D01*
X708029Y-945086D02*
G01*
X686939Y-945086D01*
X629369Y-945086D02*
G01*
X539980Y-945086D01*
X539980Y-945086D02*
G01*
X539980Y-914821D01*
X539980Y-857251D02*
G01*
X539980Y-836080D01*
X539980Y-778510D02*
G01*
X539980Y-757341D01*
X539980Y-699771D02*
G01*
X539980Y-678600D01*
X539980Y-621030D02*
G01*
X539980Y-599859D01*
X539980Y-542289D02*
G01*
X539980Y-521120D01*
X539980Y-463550D02*
G01*
X539980Y-442379D01*
X539980Y-384810D02*
G01*
X539980Y-363640D01*
X539980Y-306069D02*
G01*
X539980Y-205D01*
D40*
X1760000Y-79980D02*
G01*
X1700000Y-79980D01*
X1760000Y-249980D02*
G01*
X1700000Y-249980D01*
D39*
X1770000Y-234980D02*
G01*
X1770000Y-184980D01*
X1770000Y-94980D02*
G01*
X1770000Y-143539D01*
X1690000Y-144980D02*
G01*
X1690000Y-94980D01*
X1690000Y-184980D02*
G01*
X1690000Y-234980D01*
X1898350Y-315149D02*
G01*
X2037830Y-315149D01*
X2037830Y-714850D01*
X1898350Y-714850D01*
X1898350Y-315149D01*
X1547070Y-540952D02*
G01*
X1547070Y-279047D01*
X1662929Y-279047D01*
X1662929Y-540952D01*
X1547070Y-540952D01*
D10*
X3319336Y-12364D02*
G01*
X3319336Y-140790D01*
X3610672Y-12364D02*
G01*
X3610672Y-145790D01*
X3610672Y-268270D02*
G01*
X3319336Y-268270D01*
X3398077Y158895D02*
G01*
X3398077Y-12364D01*
X3531931Y158895D02*
G01*
X3531931Y-12364D01*
X3531931Y158895D02*
G01*
X3398077Y158895D01*
X3610672Y-12364D02*
G01*
X3319336Y-12364D01*
X3319336Y-140790D02*
G01*
X3319336Y-157397D01*
X3319336Y-261021D02*
G01*
X3319336Y-268270D01*
X3610672Y-145790D02*
G01*
X3610672Y-157399D01*
X3610672Y-261019D02*
G01*
X3610672Y-268270D01*
D39*
G75*
G01*
X1564988Y-216830D02*
G03*
X1558988Y-222830I0J-6000D01*
G75*
G01*
X1558988Y-250090D02*
G03*
X1564988Y-256090I6000J0D01*
G75*
G01*
X1645012Y-216830D02*
G02*
X1651012Y-222830I0J-6000D01*
G75*
G01*
X1651012Y-250090D02*
G02*
X1645012Y-256090I-6000J0D01*
G75*
G01*
X1734630Y-574988D02*
G03*
X1728630Y-568988I-6000J0D01*
G75*
G01*
X1701370Y-568988D02*
G03*
X1695370Y-574988I0J-6000D01*
G75*
G01*
X1734630Y-655012D02*
G02*
X1728630Y-661012I-6000J0D01*
G75*
G01*
X1701370Y-661012D02*
G02*
X1695370Y-655012I0J6000D01*
G75*
G01*
X1839988Y-245370D02*
G03*
X1833988Y-251370I0J-6000D01*
G75*
G01*
X1833988Y-278630D02*
G03*
X1839988Y-284630I6000J0D01*
G75*
G01*
X1920012Y-245370D02*
G02*
X1926012Y-251370I0J-6000D01*
G75*
G01*
X1926012Y-278630D02*
G02*
X1920012Y-284630I-6000J0D01*
G75*
G01*
X2036448Y-245370D02*
G03*
X2030448Y-251370I0J-6000D01*
G75*
G01*
X2030448Y-278630D02*
G03*
X2036448Y-284630I6000J0D01*
G75*
G01*
X2116472Y-245370D02*
G02*
X2122472Y-251370I0J-6000D01*
G75*
G01*
X2122472Y-278630D02*
G02*
X2116472Y-284630I-6000J0D01*
D40*
G75*
G01*
X1730000Y-164980D02*
G02*
X1715000Y-164980I-7500J0D01*
G75*
G01*
X1730000Y-164980D02*
G02*
X1745000Y-164980I7500J0D01*
D10*
G75*
G01
X3574740Y-647200D02*
G03X3574740Y-647200I-113140J0D01*
D41*
G75*
G01
X1933880Y-340000D02*
G03X1933880Y-340000I-5910J0D01*
G75*
G01
X1860910Y-311170D02*
G03X1860910Y-311170I-5910J0D01*
M02*
